<?xml version="1.0" encoding="UTF-8"?>
<!DOCTYPE svg PUBLIC "-//W3C//DTD SVG 1.1//EN" "http://www.w3.org/Graphics/SVG/1.1/DTD/svg11.dtd">
<!-- Creator: CorelDRAW 2021 (64-Bit) -->
<svg xmlns="http://www.w3.org/2000/svg" xml:space="preserve" width="439px" height="106px" version="1.1" style="shape-rendering:geometricPrecision; text-rendering:geometricPrecision; image-rendering:optimizeQuality; fill-rule:evenodd; clip-rule:evenodd"
viewBox="0 0 384.43 92.99"
 xmlns:xlink="http://www.w3.org/1999/xlink"
 xmlns:xodm="http://www.corel.com/coreldraw/odm/2003">
 <defs>
  <style type="text/css">
   <![CDATA[
    .fil0 {fill:#00A859}
    .fil1 {fill:#373435;fill-rule:nonzero}
   ]]>
  </style>
 </defs>
 <g id="Layer_x0020_1">
  <metadata id="CorelCorpID_0Corel-Layer"/>
  <g id="_2530736606288">
   <g id="_2262727895968">
    <path class="fil0" d="M92.79 49.12c-0.93,0.4 -0.53,1.72 -2.75,3.46 -2.92,2.3 -6.7,2.16 -9.65,-0.03 -0.68,-0.5 -1.08,-0.95 -1.57,-1.67 -1.15,-1.71 -0.36,-1.74 -1.43,-1.73 -0.72,2.48 -0.15,3.78 -2.05,8.63 -8.23,21.04 -34.67,25.37 -49.32,12.07 -20.23,-18.36 -8.99,-48.47 12.61,-53.35 0.4,2.55 0.08,8.21 0.08,11.09 0,4.19 -0.06,6.6 2.37,8.96 4.71,4.59 12.52,1.54 13.1,-4.97 0.26,-2.94 0.03,-18.14 0.04,-22.43 0.01,-9.08 -6.18,-9.78 -13.25,-8.84 -13.83,1.84 -22.86,8.19 -29.55,15.62 -16.47,18.29 -14.83,47.95 3.03,64.27 4.02,3.68 7.94,6.6 13.51,8.96 26.85,11.37 56.03,-3.64 63.39,-30.57 0.39,-1.42 1.88,-8.34 1.44,-9.47z"/>
    <path class="fil0" d="M83.64 23.45c-7.22,1.63 -6.17,8.36 -6.18,13.06 0,3.55 0.04,5.33 2.13,7.53 3.88,4.09 10.43,2.75 12.58,-1.88 1.13,-2.42 0.77,-5.83 0.77,-8.9 0,-3.7 -0.14,-5.47 -2.08,-7.59 -1.61,-1.76 -4.38,-2.86 -7.22,-2.22z"/>
    <path class="fil0" d="M84.33 11.95c-5.1,1.39 -3.05,8.66 1.89,7.43 1.8,-0.45 3.25,-2.34 2.73,-4.72 -0.38,-1.71 -2.43,-3.3 -4.62,-2.71z"/>
   </g>
   <path class="fil1" d="M134.29 75.67c2.72,0 5.35,-0.56 7.88,-1.69 2.54,-1.13 4.84,-2.69 6.92,-4.67l3.38 4.49c-2.58,2.58 -5.5,4.63 -8.78,6.12 -3.27,1.5 -6.75,2.25 -10.44,2.25 -4.37,0 -8.24,-0.97 -11.58,-2.9 -3.34,-1.94 -5.93,-4.67 -7.77,-8.2 -1.85,-3.52 -2.77,-7.57 -2.77,-12.13 0,-4.75 0.98,-8.97 2.94,-12.65 1.96,-3.69 4.68,-6.56 8.16,-8.61 3.48,-2.05 7.45,-3.08 11.92,-3.08 2.77,0 5.44,0.38 8.02,1.14 2.58,0.77 4.93,1.84 7.05,3.22l0 7.26c-1.98,-1.71 -4.24,-3.03 -6.77,-3.98 -2.54,-0.94 -5.14,-1.41 -7.81,-1.41 -3.18,0 -5.98,0.72 -8.4,2.17 -2.42,1.46 -4.29,3.51 -5.6,6.16 -1.32,2.65 -1.97,5.68 -1.97,9.09 0,3.46 0.64,6.5 1.93,9.12 1.29,2.63 3.12,4.67 5.5,6.12 2.37,1.46 5.1,2.18 8.19,2.18zm44.59 -28.14c1.3,0 2.56,0.14 3.81,0.42l0 6.84c-1.39,-0.51 -2.82,-0.76 -4.29,-0.76 -2.58,0 -4.79,0.69 -6.64,2.07 -1.84,1.39 -3.52,3.55 -5.04,6.5l0 18.53 -6.85 0 0 -32.28 6.64 -1.46 0 8.85c1.52,-2.81 3.36,-4.96 5.53,-6.46 2.17,-1.5 4.45,-2.25 6.84,-2.25zm26.07 29.04c4.24,0 8.18,-1.5 11.82,-4.5l2.7 3.74c-4.43,4.19 -9.64,6.29 -15.63,6.29 -3.45,0 -6.54,-0.67 -9.26,-2 -2.72,-1.34 -4.85,-3.28 -6.4,-5.81 -1.54,-2.54 -2.31,-5.49 -2.31,-8.85 0,-3.41 0.79,-6.51 2.38,-9.3 1.59,-2.79 3.78,-4.97 6.57,-6.53 2.79,-1.57 5.89,-2.35 9.3,-2.35 3,0 5.66,0.61 7.98,1.83 2.33,1.22 4.15,2.94 5.47,5.15 1.31,2.21 1.97,4.75 1.97,7.6 0,1.57 -0.26,3.02 -0.76,4.36l-26.14 0c0.32,3.22 1.57,5.76 3.73,7.6 2.17,1.85 5.03,2.77 8.58,2.77zm-0.83 -24.27c-2.72,0 -5.11,0.81 -7.16,2.42 -2.05,1.62 -3.4,3.8 -4.04,6.57l20.39 0c-0.13,-2.72 -1.03,-4.9 -2.69,-6.53 -1.66,-1.64 -3.83,-2.46 -6.5,-2.46zm55.45 -4.91l0 33.74 -6.64 0 0 -4.56c-1.43,1.61 -3.18,2.91 -5.25,3.9 -2.08,1 -4.31,1.49 -6.71,1.49 -2.72,0 -5.24,-0.67 -7.57,-2 -2.33,-1.34 -4.17,-3.23 -5.53,-5.67 -1.36,-2.45 -2.04,-5.28 -2.04,-8.51 0,-3.5 0.82,-6.64 2.45,-9.43 1.64,-2.79 3.85,-4.98 6.64,-6.57 2.79,-1.59 5.87,-2.39 9.23,-2.39 2.76,0 5.62,0.58 8.57,1.73l0 -0.07 6.85 -1.66zm-16.53 28.83c1.85,0 3.62,-0.4 5.33,-1.21 1.7,-0.8 3.15,-1.97 4.35,-3.49l0 -15.9c-2.76,-1.84 -5.6,-2.76 -8.5,-2.76 -2.12,0 -4.04,0.48 -5.74,1.45 -1.71,0.96 -3.05,2.37 -4.04,4.21 -1,1.85 -1.49,3.99 -1.49,6.44 0,3.41 0.92,6.14 2.76,8.19 1.85,2.05 4.29,3.07 7.33,3.07zm50.89 -18.73c6.91,2.26 10.37,6.17 10.37,11.75 0,2.54 -0.75,4.77 -2.25,6.71 -1.5,1.93 -3.59,3.44 -6.29,4.52 -2.7,1.09 -5.8,1.63 -9.3,1.63 -3.5,0 -6.6,-0.53 -9.3,-1.59 -2.69,-1.06 -4.79,-2.54 -6.29,-4.43 -1.5,-1.88 -2.25,-4.05 -2.25,-6.49 0,-2.72 0.91,-5.1 2.73,-7.12 1.83,-2.03 4.4,-3.6 7.71,-4.71 -5.99,-2.39 -8.99,-6.01 -8.99,-10.85 0,-2.4 0.7,-4.52 2.08,-6.36 1.38,-1.84 3.31,-3.28 5.77,-4.32 2.47,-1.04 5.31,-1.56 8.54,-1.56 3.23,0 6.09,0.51 8.57,1.52 2.49,1.02 4.43,2.43 5.81,4.26 1.38,1.82 2.07,3.9 2.07,6.25 0,2.49 -0.79,4.63 -2.38,6.43 -1.59,1.8 -3.79,3.25 -6.6,4.36zm-16.87 -10.1c0,1.89 0.79,3.5 2.38,4.81 1.59,1.31 4.09,2.38 7.5,3.21 6,-1.61 8.99,-4.28 8.99,-8.02 0,-2.12 -0.86,-3.81 -2.59,-5.08 -1.73,-1.27 -4.02,-1.9 -6.88,-1.9 -2.86,0 -5.14,0.63 -6.84,1.9 -1.71,1.27 -2.56,2.96 -2.56,5.08zm9.4 28.9c3.18,0 5.75,-0.68 7.71,-2.04 1.96,-1.36 2.94,-3.17 2.94,-5.42 0,-4.15 -3.6,-7.08 -10.79,-8.79 -3.55,0.79 -6.19,1.94 -7.91,3.46 -1.73,1.52 -2.6,3.3 -2.6,5.33 0,2.25 0.98,4.06 2.94,5.42 1.96,1.36 4.53,2.04 7.71,2.04zm58.35 -28.83l0 33.67 -6.63 0 0 -5.8c-1.66,2.07 -3.66,3.67 -5.98,4.8 -2.33,1.13 -4.74,1.69 -7.23,1.69 -3.69,0 -6.67,-1.17 -8.95,-3.52 -2.28,-2.35 -3.42,-5.88 -3.42,-10.58l0 -18.8 6.84 -1.46 0 18.46c0,6.64 2.58,9.96 7.74,9.96 4.2,0 7.79,-2.1 10.79,-6.29l0 -20.67 6.84 -1.46zm25.31 34.71c-3.23,0 -6.36,-0.45 -9.4,-1.35 -3.05,-0.9 -5.56,-2.02 -7.54,-3.35l2.14 -4.43c1.89,1.2 4.16,2.16 6.81,2.87 2.65,0.72 5.27,1.07 7.85,1.07 2.44,0 4.39,-0.41 5.84,-1.24 1.45,-0.83 2.18,-1.98 2.18,-3.46 0,-0.87 -0.3,-1.59 -0.9,-2.14 -0.6,-0.55 -1.53,-1 -2.8,-1.35 -1.27,-0.34 -3.1,-0.72 -5.5,-1.14 -5.11,-0.83 -8.81,-1.95 -11.09,-3.35 -2.28,-1.41 -3.43,-3.59 -3.43,-6.54 0,-3.13 1.35,-5.67 4.05,-7.6 2.69,-1.94 6.28,-2.9 10.75,-2.9 2.54,0 5,0.28 7.4,0.86 2.39,0.58 4.47,1.32 6.22,2.25l0 5.66c-1.66,-1.19 -3.7,-2.11 -6.12,-2.76 -2.42,-0.64 -4.89,-0.97 -7.43,-0.97 -2.54,0 -4.58,0.43 -6.12,1.28 -1.54,0.85 -2.31,2 -2.31,3.42 0,1.25 0.65,2.18 1.96,2.8 1.32,0.63 3.77,1.21 7.37,1.77 3.22,0.5 5.85,1.12 7.88,1.83 2.03,0.71 3.62,1.73 4.77,3.04 1.15,1.31 1.73,3.08 1.73,5.29 0,3.18 -1.29,5.72 -3.87,7.6 -2.58,1.89 -6.06,2.84 -10.44,2.84z"/>
  </g>
 </g>
</svg>
