<?xml version="1.0" encoding="UTF-8"?>
<!DOCTYPE svg PUBLIC "-//W3C//DTD SVG 1.1//EN" "http://www.w3.org/Graphics/SVG/1.1/DTD/svg11.dtd">
<!-- Creator: CorelDRAW 2021 (64-Bit) -->
<svg xmlns="http://www.w3.org/2000/svg" xml:space="preserve" width="914px" height="297px" version="1.1" style="shape-rendering:geometricPrecision; text-rendering:geometricPrecision; image-rendering:optimizeQuality; fill-rule:evenodd; clip-rule:evenodd"
viewBox="0 0 401.55 130.56"
 xmlns:xlink="http://www.w3.org/1999/xlink"
 xmlns:xodm="http://www.corel.com/coreldraw/odm/2003">
 <defs>
  <style type="text/css">
   <![CDATA[
    .fil1 {fill:#373435;fill-rule:nonzero}
    .fil0 {fill:#ED2F59;fill-rule:nonzero}
   ]]>
  </style>
 </defs>
 <g id="Layer_x0020_1">
  <metadata id="CorelCorpID_0Corel-Layer"/>
  <g id="_2530914606704">
   <g>
    <path class="fil0" d="M37.8 58.32c13.84,0.38 17.39,10.66 17.39,10.66 3.18,8.13 1.27,16.12 0.51,17.52 -1.27,2.54 0.76,3.43 0.76,3.43 2.16,1.39 4.57,1.27 5.84,0.76 2.03,-0.89 2.54,-2.54 2.54,-2.54 1.14,-3.05 1.14,-6.98 0.63,-10.54 -0.38,-2.15 -1.14,-4.82 -2.03,-7.23 -1.27,-3.3 -3.55,-6.73 -6.6,-9.52 -4.95,-4.57 -15.87,-11.17 -34.02,-3.43 -4.06,1.65 -7.74,4.19 -11.04,7.36 -3.05,3.05 -5.59,6.6 -7.49,10.54 -3.81,7.87 -5.21,16.88 -3.68,25.39 1.39,8 5.2,14.98 10.91,20.06 3.18,2.79 6.86,5.07 11.05,6.72 0,0 7.49,3.05 17.52,3.05 8.25,0.13 16.37,-2.03 24.24,-6.22 7.62,-4.06 14.85,-10.16 21.46,-17.9 5.96,-6.85 11.17,-14.85 15.48,-23.74 3.94,-7.87 6.98,-16.25 8.76,-23.86 5.46,-23.49 3.68,-37.2 2.54,-42.15 4.19,-1.4 8.13,-3.17 11.81,-4.7 2.28,-1.01 4.57,-2.03 6.6,-2.79 11.93,-4.06 19.04,3.05 20.69,5.46 1.52,2.28 3.3,1.02 3.3,1.02 2.29,-1.15 3.43,-3.18 3.56,-4.7 0.25,-1.91 -1.15,-3.68 -1.15,-3.68 -3.43,-4.32 -8.12,-5.59 -12.31,-5.72 -6.98,-0.25 -14.22,2.92 -22.34,6.35 -7.49,3.3 -15.87,6.98 -25.39,8.51 -2.16,0.38 -4.45,0.63 -6.6,0.63l0 0c-9.27,0.38 -16.38,-3.93 -15.87,-11.93 0.13,-2.03 -1.53,-2.16 -1.53,-2.16 -1.39,-0.38 -3.17,-0.25 -4.31,0.64 -1.14,0.88 -1.14,2.66 -1.14,2.66 -0.51,4.83 2.66,10.66 8.37,12.82 0,0 8.89,4.57 21.71,1.65 3.3,-0.76 6.48,-1.39 9.52,-2.28 -5.58,5.33 -6.22,20.31 -6.22,20.31 -0.63,14.22 -4.57,32.24 -18.53,52.43 -16.63,23.99 -35.8,33 -50.91,32.37 -10.15,-0.38 -17.39,-5.97 -17.39,-5.97 -5.07,-4.44 -8.38,-10.66 -9.65,-17.64 -1.26,-7.62 -0.12,-15.62 3.43,-22.73 1.65,-3.55 3.94,-6.72 6.6,-9.39 2.92,-2.79 5.72,-4.7 9.4,-6.47 0,0 6.34,-3.31 13.58,-3.05zm133.42 7.87l0 0c-0.76,0 -1.52,0.38 -1.9,1.14 -19.17,31.61 -27.55,30.34 -27.55,30.34 -4.83,-2.79 14.22,-32.62 20.82,-42.78 0.89,-1.4 -0.13,-3.3 -1.78,-3.3l-3.68 0c-1.52,0 -3.05,0.76 -4.06,2.03 -2.54,3.3 -7.49,10.41 -11.81,18.66 -16.88,26.53 -24.37,25.39 -24.37,25.39 -4.83,-2.79 14.21,-32.62 20.82,-42.78 0.88,-1.4 -0.13,-3.3 -1.78,-3.3l-3.68 0c-1.53,0 -3.05,0.76 -4.06,2.03 -3.43,4.57 -11.56,16 -16,28.18 -6.98,19.05 4.06,19.3 4.06,19.3 5.59,0.76 13.08,-6.98 19.55,-15.36 -4.06,15.11 5.33,15.36 5.33,15.36 10.16,1.4 26.66,-25.14 31.23,-32.75 0.51,-1.02 -0.13,-2.16 -1.14,-2.16zm105.11 0l0 0c-0.89,0 -1.52,0.38 -2.03,1.14 -1.91,3.05 -3.68,5.84 -5.33,8.38 0,0 -3.81,5.71 -9.14,7.62 0.5,-1.4 1.01,-2.92 1.27,-4.32 0,0 6.09,-24.88 -8.13,-27.42 -10.15,-1.9 -19.17,5.46 -19.67,15.74 -2.54,2.29 -4.58,5.59 -5.97,9.4 0,0 -3.05,8.12 -0.64,15.23 1.4,4.44 5.72,8.89 12.32,9.27 8.12,0.5 15.1,-6.1 19.17,-13.97 8.37,-1.9 13.83,-10.41 13.83,-10.41 2.41,-3.55 4.32,-6.6 5.46,-8.5 0.51,-1.02 -0.13,-2.16 -1.14,-2.16zm-24.5 -11.43c0,0 10.79,0.26 4.31,24.63 -0.5,1.65 -1.14,3.3 -1.77,4.95 -1.91,0 -3.94,-0.25 -6.1,-0.89 0,0 -6.72,-1.9 -8.12,-9.77 1.78,-2.54 4.19,-5.33 6.98,-7.11 1.53,-0.89 1.02,-3.17 -0.76,-3.43 -1.27,-0.25 -3.05,-0.25 -5.2,0.13 1.39,-4.06 4.44,-9.01 10.66,-8.51zm-2.03 37.07c-3.18,3.94 -6.98,6.35 -9.14,5.84 0,0 -10.54,-0.51 -3.94,-18.15 1.91,2.66 5.08,6.09 10.03,7.36 2.16,0.64 4.06,0.89 5.97,0.89 -0.89,1.52 -1.91,2.92 -2.92,4.06zm90.38 -77.05c0.89,-1.4 0,-3.3 -1.65,-3.3l-3.68 0c-1.52,0 -3.17,0.76 -4.19,2.03 0,0 -14.72,19.42 -26.66,41.38 -0.51,-0.76 -1.27,-1.52 -2.54,-2.16 -1.14,-0.5 -2.66,-0.63 -2.66,-0.63 -11.81,-1.27 -29.58,15.99 -32.75,31.99 -3.56,17.26 5.96,16.63 5.96,16.63 1.53,0 2.67,-0.26 2.67,-0.26 3.93,-1.01 8.38,-4.31 13.33,-10.02 0.89,-1.02 1.65,-1.91 2.41,-2.92 -2.67,13.58 5.08,13.58 5.08,13.58 10.28,1.4 26.78,-25.14 31.35,-32.75 0.51,-1.02 -0.12,-2.16 -1.27,-2.16l0 0c-0.76,0 -1.39,0.38 -1.9,1.14 -19.17,31.61 -27.55,30.34 -27.55,30.34 -2.16,-1.27 0.38,-7.49 4.06,-15.49 13.71,-29.45 39.99,-67.4 39.99,-67.4zm-54.58 73.62c-3.94,4.57 -7.62,7.49 -10.67,8.64 -0.51,0.12 -1.14,0 -1.39,-0.13 -5.08,-2.92 7.36,-21.2 7.36,-21.2 14.98,-21.33 19.29,-20.06 19.8,-19.8 0.26,0.25 0.64,0.5 0.76,0.89 0.38,0.5 0.51,1.14 0.51,1.77 -3.43,6.6 -6.47,13.33 -8.88,19.68 -1.15,1.9 -4.07,6.09 -7.49,10.15zm78.57 -22.21c-0.76,0 -1.52,0.38 -1.9,1.14 -5.33,8.76 -9.77,14.98 -13.46,19.42 0,0 -4.18,5.46 -9.52,9.02 -3.8,2.54 -8.25,4.06 -12.18,2.03 0,0 -7.49,-4.7 3.3,-22.09 0.25,-0.25 0.38,-0.51 0.5,-0.76 1.15,2.03 4.19,2.66 4.19,2.66 6.35,1.27 11.18,-2.28 14.09,-5.71 4.45,-5.33 5.46,-10.92 5.46,-10.92 0.26,-2.41 0,-4.31 -0.89,-5.84 -0.38,-0.76 -1.26,-1.77 -2.66,-2.41 -1.14,-0.5 -2.67,-0.63 -2.67,-0.63 -9.14,-1.02 -21.7,8.88 -28.56,20.82 0,0 -4.57,7.49 -4.57,14.98 0,5.33 2.67,10.66 9.27,13.2 4.95,1.9 10.41,0.76 14.85,-1.78 6.86,-3.93 11.68,-10.28 11.68,-10.28 6.22,-7.62 11.93,-16.76 14.34,-20.69 0.51,-1.02 -0.12,-2.16 -1.27,-2.16zm-13.83 -10.28c0,0 2.03,0.89 0.76,5.33 0,0 -1.27,5.08 -5.59,9.52 0,0 -2.28,2.41 -5.33,3.55 -1.65,0.51 -3.81,0.77 -5.33,0 0,0 -2.28,-1.14 -0.63,-3.8 11.93,-16 15.61,-14.86 16.12,-14.6zm49.89 10.28c-0.89,0 -1.53,0.38 -1.91,1.14 -1.52,2.29 -2.79,4.44 -4.19,6.48 -2.54,3.8 -5.96,5.45 -8.76,6.09 -0.12,-8 -5.45,-13.96 -9.64,-18.28 -1.53,-1.52 -2.8,-2.79 -3.81,-3.81 1.27,-2.41 3.93,-8.12 3.17,-11.55 0,0 -0.63,-4.32 -5.96,-3.43 -4.83,0.89 -10.41,6.6 -2.67,17.65 -2.03,3.68 -4.06,6.85 -6.09,10.03 -0.51,0.63 -0.51,1.52 -0.13,2.15l0 0c0.51,1.02 1.78,1.02 2.41,0.13 1.52,-2.28 3.3,-4.95 5.97,-9.39 2.03,2.92 7.23,10.66 7.87,16.63 -0.26,-0.13 -0.64,-0.13 -0.89,-0.13 -18.03,-2.92 -21.33,8.5 -21.33,8.5 -2.92,8.64 5.33,12.06 5.33,12.06 7.49,3.56 17.52,-0.5 21.97,-7.87 1.9,-3.17 2.92,-6.09 3.42,-8.88 8.13,-1.53 12.44,-9.02 12.44,-9.02 1.65,-2.66 3.05,-4.95 3.94,-6.34 0.51,-1.02 -0.13,-2.16 -1.14,-2.16zm-30.6 -18.28c0,0 2.41,-0.38 1.15,3.81 -0.26,1.01 -0.77,2.03 -1.15,3.04 -2.79,-4.57 -1.27,-6.6 0,-6.85l0 0zm-8.76 46.08c0,0 -3.3,-1.65 -2.03,-5.08 2.16,-5.84 9.65,-5.58 17.27,-5.08 0,0 0,0 0,0 0,0 -4.7,14.35 -15.24,10.16z"/>
    <path class="fil0" d="M185.19 42.06c0.62,-1.8 3.8,-0.38 5.71,-0.51 -4.19,5.46 -6.6,9.27 -6.99,9.78 -0.38,0.63 -6.47,9.64 -11.93,21.45 -0.37,0.83 -0.74,1.65 -1.09,2.47 -2.61,6.07 -4.49,11.83 -5.64,17.08 -0.86,3.94 -1.26,7.62 -1.14,10.92 0,13.33 5.97,29.07 31.99,26.53 35.55,-3.3 64.62,-41.64 64.62,-41.64 6.34,-7.62 11.93,-16.76 14.34,-20.69 0.51,-1.02 -0.12,-2.16 -1.14,-2.16 -0.76,0 -1.52,0.38 -1.9,1.14 -5.34,8.76 -9.78,14.98 -13.59,19.43 0,0 -26.66,32.62 -57.88,36.68 0,0 -43.42,6.6 -10.54,-56.36 0,0 6.09,-12.69 16.63,-26.28 11.93,-1.65 21.58,-3.43 29.32,-5.71 15.49,-4.57 24.38,-10.92 27.17,-19.42 1.39,-4.19 1.01,-7.75 -1.02,-10.29 -3.55,-4.69 -11.04,-4.57 -11.8,-4.44 -7.87,0 -16.25,2.79 -25.01,8.25 -6.86,4.32 -13.84,10.16 -21.07,17.65 -3.56,3.81 -6.86,7.49 -9.65,10.91 -4.8,6.6 -8.88,10.81 -12.32,13.43 -16.85,12.79 4.84,-1.24 -13.39,17.22 -1.3,1.31 0.64,3.85 1,6.11 12.11,76.78 -3.4,22.8 15.32,-31.55zm65.88 -19.04c-3.94,2.66 -9.39,5.08 -16.25,6.98 -6.6,1.9 -14.6,3.55 -24.25,4.95 6.22,-7.36 13.59,-14.6 21.84,-19.93 0,0 5.58,-3.81 11.68,-6.35 5.71,-2.28 11.8,-3.68 14.34,-1.14 0.76,0.64 1.27,1.4 1.27,2.67 -0.13,1.01 -0.25,2.03 -0.63,3.17 -1.15,3.68 -3.81,6.73 -8,9.65z"/>
    <path class="fil0" d="M54.07 67.77l0 28.66 -39.69 0 0 -28.66 39.69 0zm0 30.12l2.11 4.41c1.03,2.13 1.55,4.18 1.55,6.16l0 3.39 -47.01 0 0 -3.39c0,-1.96 0.52,-4.01 1.55,-6.16l2.11 -4.41 39.69 0zm-1.46 -28.65l-36.77 0 0 25.73 36.77 0 0 -25.73zm0.49 30.12l-37.87 0 -1.87 4.02c-0.78,1.72 -1.17,3.09 -1.17,4.15l0 2.86 44.08 0 0 -1.11c0,-1.98 -0.46,-3.97 -1.37,-5.96l-1.8 -3.96zm-34.33 -24.12l0 13.72c0,1.38 0.17,2.24 0.52,2.57 0.35,0.34 1.22,0.51 2.61,0.51l24.56 0c1.43,0 2.33,-0.16 2.68,-0.49 0.36,-0.33 0.54,-1.17 0.54,-2.5l0 -13.87c0,-1.34 -0.18,-2.17 -0.55,-2.51 -0.36,-0.33 -1.26,-0.51 -2.67,-0.51l-24.56 0c-1.39,0 -2.26,0.17 -2.61,0.49 -0.35,0.34 -0.52,1.19 -0.52,2.59zm-1.28 26.07l3.66 0 0 1.4 3.72 0 0 -1.4 3.59 0 0 1.4 3.78 0 0 -1.4 3.6 0 0 1.4 3.72 0 0 -1.4 3.72 0 0 1.4 3.66 0 0 -1.4 3.66 0 0 1.4 -3.66 0 0 1.46 3.66 0 0 1.4 -3.66 0 0 -1.4 -3.66 0 0 1.4 -3.66 0 0 -1.4 -3.78 0 0 1.4 -3.6 0 0 -1.4 -3.78 0 0 1.4 -3.59 0 0 -1.4 -3.72 0 0 1.4 -3.66 0 0 -1.46 3.66 0 0 -1.34 -3.66 0 0 -1.46zm7.38 2.8l3.72 0 0 -1.34 -3.72 0 0 1.34zm7.43 0l3.54 0 0 -1.34 -3.54 0 0 1.34zm7.26 0l3.66 0 0 -1.34 -3.66 0 0 1.34zm-22.25 -15.11l0 -13.77c0,-2.03 0.24,-3.29 0.74,-3.79 0.5,-0.5 1.78,-0.74 3.85,-0.74l24.65 0c2.07,0 3.35,0.24 3.85,0.74 0.5,0.5 0.74,1.76 0.74,3.79l0 13.77c0,2.01 -0.25,3.26 -0.76,3.76 -0.51,0.5 -1.78,0.74 -3.83,0.74l-24.65 0c-2.05,0 -3.32,-0.24 -3.83,-0.74 -0.51,-0.5 -0.76,-1.75 -0.76,-3.76z"/>
   </g>
   <path class="fil1" d="M245.2 112.26c0.22,-0.11 0.46,-0.17 0.72,-0.17 0.56,0 0.97,0.23 1.23,0.71 0.13,0.22 0.19,0.51 0.19,0.87 0,0.21 -0.07,1.59 -0.22,4.15 -0.13,1.92 -0.23,3.07 -0.3,3.45 -0.07,0.38 -0.26,0.68 -0.55,0.9 -0.16,0.15 -0.44,0.23 -0.82,0.23 -0.57,0 -1.01,-0.26 -1.32,-0.79 -0.11,-0.19 -0.16,-0.45 -0.16,-0.79 0,-0.3 0.02,-0.93 0.08,-1.9 0.02,-0.28 0.05,-0.94 0.11,-1.99 0.05,-1.04 0.1,-1.75 0.14,-2.13 0.07,-0.98 0.15,-1.6 0.24,-1.88 0.09,-0.27 0.31,-0.49 0.66,-0.66zm0.61 -4.83c0.01,0 0.05,-0.01 0.12,-0.02 0.06,-0.01 0.11,-0.01 0.15,-0.01 0.46,0 0.83,0.16 1.11,0.47 0.28,0.31 0.43,0.71 0.43,1.2 0,0.15 -0.04,0.39 -0.11,0.73 -0.11,0.38 -0.3,0.67 -0.57,0.88 -0.26,0.2 -0.56,0.31 -0.89,0.31 -0.47,0 -0.88,-0.2 -1.21,-0.6 -0.22,-0.24 -0.33,-0.58 -0.33,-1.01 0,-0.47 0.13,-0.91 0.39,-1.3 0.26,-0.4 0.56,-0.61 0.91,-0.65zm22.45 4.04c0.23,-0.15 0.49,-0.23 0.76,-0.23 0.52,0 0.94,0.2 1.27,0.6 0.18,0.24 0.27,0.48 0.27,0.73 0,0.26 -0.14,0.93 -0.41,2.01 -0.51,1.99 -0.95,3.45 -1.32,4.37 -0.36,0.93 -0.78,1.62 -1.23,2.09 -0.48,0.49 -0.94,0.74 -1.38,0.74 -0.65,0 -1.3,-0.6 -1.94,-1.78l-0.42 -0.76 -0.38 0.87c-0.6,1.34 -1.24,2.01 -1.92,2.01 -0.02,0 -0.05,-0.01 -0.1,-0.02 -0.04,-0.01 -0.07,-0.01 -0.09,-0.01 -1.17,-0.23 -2.56,-2.75 -4.17,-7.57 -0.28,-0.85 -0.42,-1.42 -0.42,-1.72 0,-0.25 0.1,-0.52 0.31,-0.82 0.29,-0.42 0.69,-0.63 1.2,-0.63 0.31,0 0.62,0.11 0.91,0.32 0.18,0.13 0.33,0.33 0.44,0.6 0.11,0.28 0.42,1.17 0.93,2.7 0.42,1.24 0.66,1.86 0.71,1.86l0.33 -0.84c0.17,-0.53 0.38,-1.07 0.63,-1.61 0.5,-1.06 1.02,-1.58 1.57,-1.58 0.18,0 0.37,0.05 0.58,0.16 0.27,0.12 0.48,0.28 0.63,0.48 0.11,0.16 0.35,0.78 0.74,1.87 0.31,0.96 0.5,1.44 0.57,1.44l0.06 -0.06c0.02,-0.03 0.05,-0.16 0.11,-0.36 0.05,-0.21 0.14,-0.51 0.25,-0.89 0.11,-0.39 0.21,-0.73 0.3,-1.03 0.33,-1.21 0.56,-1.97 0.68,-2.28 0.13,-0.31 0.31,-0.53 0.53,-0.66zm5.84 -0.77c0.2,-0.13 0.48,-0.19 0.83,-0.19 0.36,0 0.65,0.06 0.85,0.19 0.16,0.12 0.31,0.3 0.45,0.54 0.14,0.25 0.2,0.46 0.2,0.65 0,0.11 0.02,0.16 0.06,0.14 0.04,0 0.15,-0.08 0.33,-0.25 0.58,-0.53 1.33,-0.79 2.22,-0.79 0.57,0 1.04,0.09 1.4,0.28 0.94,0.51 1.46,1.56 1.57,3.16 0.01,0.19 0.02,0.4 0.02,0.63 0,0.24 -0.08,0.46 -0.24,0.64 -0.33,0.42 -0.74,0.63 -1.21,0.63l-0.19 0c-0.41,-0.04 -0.73,-0.22 -0.98,-0.53 -0.24,-0.31 -0.37,-0.69 -0.37,-1.14 0,-0.25 -0.02,-0.37 -0.05,-0.37 -0.02,-0.02 -0.06,0 -0.11,0.06 -0.33,0.26 -0.56,0.74 -0.69,1.44 -0.05,0.3 -0.12,1.17 -0.19,2.6 -0.04,1.11 -0.09,1.82 -0.17,2.15 -0.07,0.32 -0.24,0.6 -0.52,0.84 -0.34,0.32 -0.66,0.48 -0.96,0.48 -0.78,0 -1.44,-1.01 -1.97,-3.05 -0.35,-1.37 -0.62,-2.9 -0.8,-4.57 -0.09,-0.91 -0.14,-1.55 -0.14,-1.92 0,-0.81 0.22,-1.35 0.66,-1.62zm11.97 1.56c0.22,-0.11 0.46,-0.17 0.71,-0.17 0.57,0 0.98,0.23 1.24,0.71 0.12,0.22 0.19,0.51 0.19,0.87 0,0.21 -0.07,1.59 -0.22,4.15 -0.13,1.92 -0.23,3.07 -0.3,3.45 -0.08,0.38 -0.26,0.68 -0.55,0.9 -0.17,0.15 -0.44,0.23 -0.83,0.23 -0.56,0 -1,-0.26 -1.31,-0.79 -0.11,-0.19 -0.17,-0.45 -0.17,-0.79 0,-0.3 0.03,-0.93 0.09,-1.9 0.01,-0.28 0.05,-0.94 0.11,-1.99 0.05,-1.04 0.1,-1.75 0.13,-2.13 0.08,-0.98 0.16,-1.6 0.25,-1.88 0.09,-0.27 0.31,-0.49 0.66,-0.66zm0.6 -4.83c0.02,0 0.06,-0.01 0.13,-0.02 0.06,-0.01 0.11,-0.01 0.15,-0.01 0.45,0 0.82,0.16 1.11,0.47 0.28,0.31 0.42,0.71 0.42,1.2 0,0.15 -0.03,0.39 -0.11,0.73 -0.11,0.38 -0.29,0.67 -0.56,0.88 -0.26,0.2 -0.56,0.31 -0.89,0.31 -0.48,0 -0.88,-0.2 -1.21,-0.6 -0.22,-0.24 -0.33,-0.58 -0.33,-1.01 0,-0.47 0.13,-0.91 0.39,-1.3 0.25,-0.4 0.55,-0.61 0.9,-0.65zm6.92 0.54c0.24,-0.17 0.51,-0.26 0.82,-0.26 0.55,0 0.98,0.23 1.29,0.68 0.17,0.22 0.26,0.81 0.28,1.75l0.02 1.41 0.39 0.06c0.29,0.04 0.71,0.06 1.26,0.06 0.92,0 1.53,0.24 1.84,0.73 0.15,0.23 0.22,0.5 0.22,0.82 0,0.62 -0.24,1.08 -0.71,1.38 -0.21,0.12 -0.55,0.17 -1.05,0.17l-0.6 0 -1.29 -0.03 0.08 1.05c0.07,0.92 0.21,1.89 0.4,2.89 0.19,1.01 0.35,1.52 0.48,1.52 0.2,0 0.37,-0.27 0.52,-0.79 0.07,-0.31 0.11,-0.68 0.11,-1.13 0,-0.48 0.08,-0.83 0.25,-1.08 0.31,-0.49 0.73,-0.73 1.26,-0.73 0.53,0 0.95,0.24 1.26,0.73 0.15,0.21 0.22,0.63 0.22,1.27 0,2.11 -0.7,3.63 -2.11,4.55 -0.64,0.41 -1.23,0.62 -1.76,0.62 -0.64,0 -1.18,-0.27 -1.62,-0.82 -1,-1.26 -1.67,-3.74 -2,-7.45l-0.08 -0.82 -0.39 0c-0.24,0 -0.47,-0.08 -0.7,-0.23 -0.23,-0.15 -0.4,-0.33 -0.51,-0.54 -0.09,-0.18 -0.13,-0.41 -0.13,-0.67 0,-0.49 0.11,-0.85 0.33,-1.08 0.33,-0.37 0.67,-0.56 1.01,-0.56 0.09,0 0.15,-0.06 0.17,-0.19 0.02,-0.12 0.02,-0.48 0.02,-1.08 0,-0.74 0.05,-1.25 0.14,-1.53 0.09,-0.28 0.29,-0.52 0.58,-0.7zm15.34 5.98c-0.26,-0.13 -0.52,-0.19 -0.8,-0.19 -0.71,0 -1.16,0.35 -1.34,1.07 -0.04,0.15 -0.04,0.23 -0.01,0.25 0.02,0.02 0.15,0.03 0.37,0.03 0.84,0 1.59,-0.11 2.25,-0.34l0.38 -0.11 -0.19 -0.25c-0.18,-0.19 -0.4,-0.34 -0.66,-0.46zm-1.73 -3.33c0.17,-0.07 0.44,-0.11 0.82,-0.11 0.63,0 1.19,0.09 1.68,0.28 0.35,0.15 0.74,0.4 1.19,0.73 0.45,0.34 0.82,0.68 1.11,1.02 0.68,0.81 1.02,1.59 1.02,2.35 0,0.37 -0.1,0.72 -0.3,1.04 -0.64,0.98 -2.16,1.68 -4.56,2.09 -0.69,0.11 -1.04,0.22 -1.04,0.31 0,0.04 0.01,0.08 0.03,0.11 0.07,0.23 0.35,0.43 0.83,0.6 0.49,0.17 0.95,0.25 1.39,0.25 0.38,0 0.65,-0.06 0.8,-0.2 0.09,-0.05 0.13,-0.19 0.13,-0.42 0,-0.19 0.11,-0.4 0.32,-0.65 0.21,-0.24 0.43,-0.41 0.67,-0.51 0.13,-0.05 0.28,-0.08 0.44,-0.08 0.31,0 0.6,0.09 0.88,0.28 0.27,0.19 0.46,0.42 0.55,0.71 0.05,0.17 0.08,0.35 0.08,0.56 0,0.42 -0.1,0.85 -0.3,1.3 -0.2,0.45 -0.46,0.82 -0.77,1.1 -0.4,0.36 -0.8,0.6 -1.19,0.72 -0.4,0.12 -0.98,0.19 -1.75,0.19 -0.75,0 -1.35,-0.06 -1.8,-0.17 -0.44,-0.12 -0.93,-0.34 -1.46,-0.68 -0.42,-0.26 -0.73,-0.5 -0.92,-0.69 -0.2,-0.2 -0.39,-0.51 -0.59,-0.92 -0.59,-1.17 -0.88,-2.37 -0.88,-3.62 0,-1.77 0.55,-3.22 1.65,-4.35 0.49,-0.52 1.15,-0.94 1.97,-1.24zm18.25 -0.88c0.37,-0.18 0.71,-0.28 1.02,-0.28l0.44 0c0.88,0.02 1.72,0.39 2.52,1.1 0.66,0.57 1.02,1.11 1.07,1.61l0 0.17c0,0.44 -0.13,0.79 -0.38,1.08 -0.26,0.28 -0.59,0.42 -0.99,0.42 -0.24,0 -0.49,-0.05 -0.75,-0.15 -0.27,-0.11 -0.42,-0.22 -0.46,-0.33 -0.03,-0.13 -0.18,-0.26 -0.42,-0.38 -0.25,-0.12 -0.46,-0.18 -0.65,-0.18 -0.36,0 -0.71,0.27 -1.03,0.83 -0.32,0.55 -0.5,1.19 -0.56,1.91 0,0.05 0,0.12 -0.01,0.19 -0.01,0.08 -0.02,0.14 -0.02,0.2 0,0.74 0.17,1.34 0.5,1.82 0.33,0.48 0.76,0.76 1.29,0.84l0.11 0c0.09,0 0.17,-0.05 0.24,-0.15 0.08,-0.09 0.2,-0.31 0.36,-0.64 0.29,-0.57 0.59,-0.94 0.88,-1.11 0.24,-0.13 0.48,-0.19 0.74,-0.19 0.38,0 0.71,0.15 0.99,0.45 0.27,0.3 0.41,0.68 0.41,1.13 0,0.47 -0.24,1.09 -0.71,1.88 -0.48,0.78 -0.93,1.28 -1.35,1.51 -0.2,0.09 -0.57,0.18 -1.12,0.25 -0.37,0.04 -0.64,0.06 -0.83,0.06 -1.04,0 -1.91,-0.29 -2.62,-0.88 -0.7,-0.58 -1.2,-1.43 -1.49,-2.54 -0.13,-0.53 -0.2,-1.18 -0.2,-1.95 0,-0.73 0.07,-1.43 0.2,-2.09 0.53,-2.35 1.47,-3.88 2.82,-4.58zm13.89 5.2c-0.24,-0.24 -0.4,-0.39 -0.49,-0.44 -0.09,-0.04 -0.31,-0.07 -0.63,-0.07l-0.69 0 -0.28 0.63c-0.38,0.9 -0.57,1.67 -0.57,2.31 0,0.64 0.19,1.11 0.57,1.41 0.26,0.21 0.56,0.31 0.91,0.31 0.53,0 1.02,-0.21 1.47,-0.63 0.45,-0.42 0.67,-0.92 0.67,-1.48 0,-0.64 -0.32,-1.32 -0.96,-2.04zm-3.48 -3.39c0.2,-0.11 0.59,-0.17 1.18,-0.17l0.76 0c1.1,0.02 1.83,0.12 2.2,0.29 0.75,0.33 1.38,0.82 1.89,1.46 0.94,1.17 1.4,2.5 1.4,3.99 0,1.48 -0.45,2.68 -1.34,3.58 -0.88,0.89 -2.13,1.34 -3.76,1.36l-0.08 0c-1.47,0 -2.59,-0.36 -3.37,-1.07 -0.77,-0.72 -1.16,-1.75 -1.16,-3.11 0,-0.34 0.02,-0.71 0.08,-1.1 0.13,-0.98 0.43,-2.05 0.92,-3.19 0.48,-1.15 0.91,-1.83 1.28,-2.04zm15.78 3.17c-0.3,-0.06 -0.57,-0.09 -0.83,-0.09 -1.04,0 -1.56,0.62 -1.56,1.87l0 0.39c0.04,0.57 0.07,0.87 0.11,0.91 0.02,0.01 0.04,0.02 0.05,0.02 0.15,0 0.48,-0.17 0.99,-0.52 0.51,-0.35 0.91,-0.66 1.18,-0.95 0.31,-0.3 0.51,-0.51 0.58,-0.65 0.07,-0.13 0.11,-0.29 0.11,-0.48l0 -0.39 -0.63 -0.11zm1.15 -8.87c0.22,-0.12 0.47,-0.17 0.74,-0.17 0.29,0 0.56,0.07 0.8,0.22 0.27,0.19 0.44,0.42 0.52,0.68 0.11,0.42 0.24,2.52 0.38,6.33 0.13,3.5 0.19,5.72 0.19,6.66 0,0.74 -0.07,1.21 -0.22,1.42 -0.29,0.47 -0.71,0.7 -1.26,0.7 -0.58,0 -1.01,-0.27 -1.29,-0.82 -0.11,-0.2 -0.16,-0.46 -0.16,-0.76 0,-0.34 -0.13,-0.4 -0.39,-0.2 -0.23,0.17 -0.61,0.36 -1.11,0.57 -0.5,0.21 -0.92,0.34 -1.25,0.39 -0.29,0.04 -0.49,0.06 -0.6,0.06 -0.95,0 -1.7,-0.41 -2.25,-1.24 -0.48,-0.76 -0.71,-1.67 -0.71,-2.74 0,-1 0.19,-1.9 0.57,-2.71 0.82,-1.74 2.27,-2.6 4.34,-2.6l1.07 -0.03 -0.06 -2.49c-0.01,-0.45 -0.02,-0.97 -0.02,-1.55 0,-0.62 0.06,-1.04 0.19,-1.24 0.14,-0.23 0.32,-0.39 0.52,-0.48zm10.81 8.1c-0.25,-0.13 -0.52,-0.19 -0.79,-0.19 -0.72,0 -1.16,0.35 -1.35,1.07 -0.03,0.15 -0.04,0.23 -0.01,0.25 0.03,0.02 0.15,0.03 0.37,0.03 0.84,0 1.59,-0.11 2.25,-0.34l0.38 -0.11 -0.19 -0.25c-0.18,-0.19 -0.4,-0.34 -0.66,-0.46zm-1.73 -3.33c0.17,-0.07 0.44,-0.11 0.83,-0.11 0.62,0 1.18,0.09 1.67,0.28 0.35,0.15 0.75,0.4 1.2,0.73 0.44,0.34 0.81,0.68 1.11,1.02 0.67,0.81 1.01,1.59 1.01,2.35 0,0.37 -0.1,0.72 -0.3,1.04 -0.64,0.98 -2.16,1.68 -4.56,2.09 -0.69,0.11 -1.04,0.22 -1.04,0.31 0,0.04 0.01,0.08 0.03,0.11 0.07,0.23 0.35,0.43 0.84,0.6 0.48,0.17 0.94,0.25 1.38,0.25 0.39,0 0.65,-0.06 0.8,-0.2 0.09,-0.05 0.14,-0.19 0.14,-0.42 0,-0.19 0.1,-0.4 0.31,-0.65 0.21,-0.24 0.44,-0.41 0.67,-0.51 0.13,-0.05 0.28,-0.08 0.44,-0.08 0.31,0 0.61,0.09 0.88,0.28 0.28,0.19 0.46,0.42 0.55,0.71 0.05,0.17 0.08,0.35 0.08,0.56 0,0.42 -0.1,0.85 -0.3,1.3 -0.2,0.45 -0.46,0.82 -0.77,1.1 -0.4,0.36 -0.8,0.6 -1.19,0.72 -0.4,0.12 -0.98,0.19 -1.75,0.19 -0.75,0 -1.34,-0.06 -1.79,-0.17 -0.45,-0.12 -0.94,-0.34 -1.47,-0.68 -0.42,-0.26 -0.73,-0.5 -0.92,-0.69 -0.19,-0.2 -0.39,-0.51 -0.59,-0.92 -0.59,-1.17 -0.88,-2.37 -0.88,-3.62 0,-1.77 0.55,-3.22 1.65,-4.35 0.49,-0.52 1.15,-0.94 1.97,-1.24zm11.59 -0.28c0.33,-0.1 0.74,-0.14 1.23,-0.14 0.72,0 1.3,0.08 1.76,0.25 0.46,0.17 0.87,0.39 1.25,0.65 0.37,0.26 0.61,0.5 0.72,0.71 0.09,0.17 0.14,0.41 0.14,0.73 0,0.47 -0.11,0.82 -0.33,1.05 -0.29,0.32 -0.68,0.48 -1.15,0.48 -0.39,0 -0.71,-0.11 -0.96,-0.31 -0.39,-0.32 -0.8,-0.48 -1.24,-0.48 -0.2,0 -0.39,0.03 -0.59,0.11 -0.19,0.07 -0.3,0.16 -0.34,0.25 -0.02,0.02 0.04,0.09 0.16,0.21 0.13,0.13 0.28,0.25 0.44,0.39 0.41,0.3 0.9,0.74 1.5,1.34 0.59,0.59 1.02,1.08 1.28,1.45 0.8,1.11 1.2,2.13 1.2,3.05 0,0.81 -0.31,1.54 -0.93,2.18 -0.82,0.81 -1.84,1.21 -3.05,1.21 -0.36,0 -0.64,-0.02 -0.82,-0.05 -0.95,-0.14 -1.69,-0.45 -2.21,-0.95 -0.52,-0.5 -0.78,-1.13 -0.78,-1.88 0,-0.22 0.03,-0.46 0.08,-0.7 0.24,-1.21 0.79,-1.81 1.65,-1.81 0.42,0 0.77,0.14 1.05,0.44 0.29,0.29 0.43,0.67 0.43,1.14l0 0.51 0.41 0.08c0.06,0.02 0.15,0.03 0.28,0.03 0.47,0 0.71,-0.2 0.71,-0.59 0,-0.15 -0.04,-0.29 -0.11,-0.43 -0.13,-0.24 -0.37,-0.55 -0.73,-0.93 -0.35,-0.37 -0.71,-0.69 -1.05,-0.93 -1.32,-0.9 -2.15,-1.88 -2.5,-2.94 -0.09,-0.32 -0.14,-0.61 -0.14,-0.87 0,-0.7 0.24,-1.35 0.71,-1.95 0.48,-0.61 1.12,-1.04 1.93,-1.3zm8.2 8.98c0.19,-0.19 0.35,-0.28 0.5,-0.28 0.01,0 0.15,0.02 0.41,0.05 0.55,0.08 1,0.25 1.34,0.53 0.35,0.27 0.53,0.59 0.55,0.97 0,0.59 -0.32,0.88 -0.96,0.88 -0.47,0 -0.95,-0.16 -1.43,-0.47 -0.47,-0.31 -0.71,-0.65 -0.71,-1.03 0,-0.23 0.1,-0.44 0.3,-0.65zm5.93 0c0.18,-0.19 0.35,-0.28 0.49,-0.28 0.02,0 0.16,0.02 0.42,0.05 0.55,0.08 0.99,0.25 1.34,0.53 0.35,0.27 0.53,0.59 0.55,0.97 0,0.59 -0.32,0.88 -0.96,0.88 -0.48,0 -0.95,-0.16 -1.43,-0.47 -0.47,-0.31 -0.71,-0.65 -0.71,-1.03 0,-0.23 0.1,-0.44 0.3,-0.65zm5.93 0c0.18,-0.19 0.35,-0.28 0.49,-0.28 0.02,0 0.16,0.02 0.41,0.05 0.55,0.08 1,0.25 1.35,0.53 0.35,0.27 0.53,0.59 0.55,0.97 0,0.59 -0.32,0.88 -0.96,0.88 -0.48,0 -0.95,-0.16 -1.43,-0.47 -0.48,-0.31 -0.71,-0.65 -0.71,-1.03 0,-0.23 0.1,-0.44 0.3,-0.65z"/>
  </g>
 </g>
</svg>
