<?xml version="1.0" encoding="UTF-8"?>
<!DOCTYPE svg PUBLIC "-//W3C//DTD SVG 1.1//EN" "http://www.w3.org/Graphics/SVG/1.1/DTD/svg11.dtd">
<!-- Creator: CorelDRAW 2021 (64-Bit) -->
<svg xmlns="http://www.w3.org/2000/svg" xml:space="preserve" width="786px" height="226px" version="1.1" style="shape-rendering:geometricPrecision; text-rendering:geometricPrecision; image-rendering:optimizeQuality; fill-rule:evenodd; clip-rule:evenodd"
viewBox="0 0 587.05 168.78"
 xmlns:xlink="http://www.w3.org/1999/xlink"
 xmlns:xodm="http://www.corel.com/coreldraw/odm/2003">
 <defs>
  <style type="text/css">
   <![CDATA[
    .fil2 {fill:none}
    .fil0 {fill:#3E4095}
    .fil1 {fill:#3E4095;fill-rule:nonzero}
   ]]>
  </style>
   <clipPath id="id0">
    <path d="M0 0l587.05 0 0 168.78 -587.05 0 0 -168.78z"/>
   </clipPath>
 </defs>
 <g id="Layer_x0020_1">
  <metadata id="CorelCorpID_0Corel-Layer"/>
  <g>
  </g>
  <g style="clip-path:url(#id0)">
   <g>
    <g id="_2530809668352">
     <g id="_2365296417888">
      <path class="fil0" d="M439.5 60.94l-16.98 -0.2c-0.39,9.59 -0.99,37.15 1.8,44.54 5,13.78 17.18,13.78 32.56,9.79 0,8.59 0,14.18 -7.39,16.37 -3.4,1 -6.79,0.2 -8.99,-1.59 -3.39,-2.6 -2.6,-4 -4.59,-7.19 -4.2,1.99 -10.99,6.19 -14.98,8.78 5.79,18.58 39.34,21.18 49.73,3.6 5.39,-8.99 3.39,-23.77 3.39,-35.35 0,-7.99 1,-32.75 -0.2,-38.95l-16.77 0c-3,14.38 5.79,40.35 -8.39,40.95 -9.19,0.2 -8.99,-7.99 -8.99,-15.98 0,-8.19 0.2,-16.78 -0.2,-24.77l0 0zm-94.86 34.35c-3.4,6.39 -12.19,5.79 -16.98,3 -2.4,-1.4 -2.2,-2.4 -4.59,-3.8 -2.2,2 -7.99,11.19 -9.99,13.98 5.79,6 14.38,9.19 23.37,9.19 10.18,0 19.77,-4.99 22.57,-11.38 4.39,-4.8 6.79,-22.17 -3.2,-31.36 -3.39,-3.19 -8.59,-4.79 -13.58,-6.99 -4.8,-2 -12.18,-4.19 -9.39,-10.58 7.39,-8.99 16.78,0.79 18.77,1.99 0.2,-0.2 0.2,-0.6 0.41,-0.4l2.19 -2.79c1.8,-2.4 5.79,-7.59 6.39,-9.79 -12.38,-12.38 -37.94,-11.78 -44.33,5.59 -2.2,4.2 -2.4,11.19 -1.2,16.38 1.39,5.79 4.39,8.59 7.79,10.98 10.18,7.59 22.96,5.99 21.77,15.98l0 0zm20.77 20.57l17.17 0 0 -26.56c2.2,1.6 7.99,9.99 10.19,12.98l10.18 13.59 21.17 0c-3.59,-5 -7.39,-10.39 -11.18,-15.38 -4,-5.4 -8.59,-10.79 -11.79,-15.98 2.8,-5.19 16.58,-18.57 19.18,-23.77 -5,0 -9.79,0 -14.78,0 -7.39,-0.19 -7.59,3.4 -15.98,13.19 -2,2.19 -4.99,5.99 -6.79,7.58l-0.2 -42.14 -17.17 0 0 76.5 0 -0.01z"/>
      <path class="fil0" d="M161.89 75.92c-23.77,4.79 -15.18,36.15 5.19,32.35 7.99,-1.39 14.78,-9.38 13.19,-19.17 -1.4,-7.59 -9.19,-14.98 -18.38,-13.18z"/>
      <path class="fil0" d="M276.13 85.31l34.15 0 0 -14.58 -33.95 -0.2 -0.2 14.78zm-2.6 -24.57l-17.17 0c-0.2,7.99 0,15.98 0,23.77 0,7.19 1.6,17.57 -7.39,17.37 -12.18,-0.2 -4.2,-25.56 -6.99,-41.14l-16.78 -0.2c-0.8,4.8 -0.6,34.35 0.4,38.95 2,11.38 10.19,17.57 22.77,17.97 13.18,0.4 21.77,-5.99 24.37,-16.57 1.79,-7.39 1,-31.36 0.79,-40.15l0 0zm-106.45 -15.78c-23.76,-2.19 -27.56,9.79 -31.15,10.79l-0.2 -42.14c-6.19,-1 -13.58,-0.6 -19.77,-0.2 -0.8,3.19 -0.2,97.06 0.2,107.45 7.59,0 13.98,-7.99 16.57,-12.99 5,-8.78 0.8,-17.17 3.6,-26.16 2.4,-6.79 8.19,-13.38 13.58,-16.18 8.59,-4.59 16.18,-2.99 24.57,0.2 6.99,5 9.78,6.79 13.58,14.78 3.79,7.99 3.79,16.38 0.6,24.77 -1.8,5.79 -7.39,11.58 -11.99,14.38 -7.79,4.79 -12.78,3.99 -22.96,4.19 -12.59,0.4 -40.75,1 -36.75,16.98 24.56,0.6 53.92,6.59 72.7,-5.2l2.79 -2.19c4.8,-2.6 8.79,-7.99 11.79,-12.39 1.79,-2.59 1.39,-2.39 0.59,-5.19l17.18 0 0.2 -76.49 -16.98 0 -0.2 76.49c-5.99,-4.79 -8.38,-25.56 -5.59,-37.15 1.2,-4.79 3,-7.18 4.39,-11.18 -2.59,-5.19 -9.98,-11.78 -14.57,-14.78 -6.8,-4.59 -12.59,-6.59 -22.17,-7.79l-0.01 0z"/>
      <path class="fil1" d="M235.99 147.02l0 -22.37 -2.6 0 -9.39 15.78 -9.18 -15.78 -2.6 0 0 22.37 3 0 0 -16.18 7.99 13.38 1.59 0 7.99 -13.58 0 16.38 3.2 0 0 0zm21.57 -16.98l0 8.79c0,3.6 -2,5.59 -5.19,5.59 -3,0 -4.6,-1.59 -4.6,-4.99l0 -9.39 -3.19 0 0 9.79c0,4.99 2.99,7.39 7.39,7.39 2.39,0 4.39,-1 5.79,-2.79l0 2.59 2.79 0 0 -16.98 -2.99 0 0 0zm11.58 16.98l3 0 0 -23.77 -3 0 0 23.77zm20.37 -3.2c-0.6,0.4 -1.4,0.8 -2.4,0.8 -1.59,0 -2.59,-1 -2.59,-2.79l0 -9.19 4.79 0 0 -2.6 -4.79 0 0 -3.59 -3 0 0 3.59 -2.99 0 0 2.6 2.99 0 0 9.19c0,3.39 1.8,5.39 5.19,5.39 1.4,0 2.8,-0.4 3.8,-1.2l-1 -2.19 0 -0.01zm8.79 -16.97c1.2,0 2.2,-1 2.2,-2 0,-1.2 -1,-2 -2.2,-2 -1.2,0 -2,0.8 -2,2 0,1 0.8,2 2,2zm-1.4 20.17l3 0 0 -16.98 -3 0 0 16.98zm32.56 -17.18c-2.8,0 -5.2,1.2 -6.39,3.2 -1.2,-2.2 -3.4,-3.2 -5.99,-3.2 -2.4,0 -4.6,1 -5.8,2.8l0 -2.6 -2.99 0 0 16.98 3.19 0 0 -8.79c0,-3.59 2,-5.59 5,-5.59 2.79,0 4.39,1.6 4.39,4.99l0 9.39 3 0 0 -8.79c0,-3.59 2.19,-5.59 5.19,-5.59 2.79,0 4.39,1.6 4.39,4.99l0 9.39 3 0 0 -9.79c0,-4.99 -2.8,-7.39 -6.99,-7.39l0 0zm30.75 8.79c0,-5.19 -3.59,-8.79 -8.39,-8.79 -4.99,0 -8.58,3.6 -8.58,8.59 0,5.19 3.59,8.79 9.18,8.79 2.8,0 5,-1 6.59,-2.79l-1.59 -2c-1.4,1.4 -3,2 -5,2 -3.39,0 -5.79,-2 -5.99,-4.8l13.58 0c0,-0.4 0.2,-0.8 0.2,-1zm-8.39 -6.19c3,0 5,2 5.4,4.99l-10.79 0c0.2,-2.99 2.4,-4.99 5.4,-4.99l-0.01 0zm28.17 -9.19l0 9.39c-1.6,-1.8 -3.6,-2.8 -6,-2.8 -4.99,0 -8.58,3.6 -8.58,8.59 0,5.19 3.59,8.79 8.58,8.79 2.4,0 4.6,-1 6,-3l0 2.8 2.99 0 0 -23.77 -2.99 0zm-5.8 21.17c-3.19,0 -5.59,-2.39 -5.59,-5.99 0,-3.59 2.4,-5.79 5.59,-5.79 3.2,0 5.8,2.2 5.8,5.79 0,3.6 -2.6,5.99 -5.8,5.99zm18.78 -17.57c1.19,0 1.99,-1 1.99,-2 0,-1.2 -0.8,-2 -1.99,-2 -1.2,0 -2.2,0.8 -2.2,2 0,1 1,2 2.2,2zm-1.6 20.17l3 0 0 -16.98 -3 0 0 16.98zm17.77 -17.18c-2.79,0 -5.19,0.8 -6.99,2.2l1.2 2.4c1.4,-1.2 3.4,-1.8 5.4,-1.8 2.99,0 4.59,1.4 4.59,3.99l0 0.6 -4.99 0c-5,0 -6.79,2.2 -6.79,5 0,2.99 2.39,4.99 6.39,4.99 2.59,0 4.39,-1 5.39,-2.4l0 2.2 3 0 0 -10.19c0,-4.79 -2.6,-6.99 -7.19,-6.99l-0.01 0zm-0.79 14.98c-2.2,0 -3.6,-1 -3.6,-2.79 0,-1.4 0.8,-2.6 3.8,-2.6l4.79 0 0 2.4c-0.8,2 -2.6,3 -4.99,3l0 -0.01z"/>
     </g>
    </g>
   </g>
  </g>
  <polygon class="fil2" points="0,0 587.05,0 587.05,168.78 0,168.78 "/>
 </g>
</svg>
