<?xml version="1.0" encoding="UTF-8"?>
<!DOCTYPE svg PUBLIC "-//W3C//DTD SVG 1.1//EN" "http://www.w3.org/Graphics/SVG/1.1/DTD/svg11.dtd">
<!-- Creator: CorelDRAW 2021 (64-Bit) -->
<svg xmlns="http://www.w3.org/2000/svg" xml:space="preserve" width="870px" height="345px" version="1.1" style="shape-rendering:geometricPrecision; text-rendering:geometricPrecision; image-rendering:optimizeQuality; fill-rule:evenodd; clip-rule:evenodd"
viewBox="0 0 384.26 152.45"
 xmlns:xlink="http://www.w3.org/1999/xlink"
 xmlns:xodm="http://www.corel.com/coreldraw/odm/2003">
 <defs>
  <style type="text/css">
   <![CDATA[
    .fil188 {fill:#DFD6EA;fill-rule:nonzero}
    .fil187 {fill:#DFD6EA;fill-rule:nonzero}
    .fil186 {fill:#DFD5E9;fill-rule:nonzero}
    .fil185 {fill:#DFD4E9;fill-rule:nonzero}
    .fil184 {fill:#DFD4E8;fill-rule:nonzero}
    .fil183 {fill:#DFD3E8;fill-rule:nonzero}
    .fil182 {fill:#DFD2E7;fill-rule:nonzero}
    .fil181 {fill:#DFD1E7;fill-rule:nonzero}
    .fil180 {fill:#DFD1E6;fill-rule:nonzero}
    .fil179 {fill:#DFD0E6;fill-rule:nonzero}
    .fil178 {fill:#DFCFE6;fill-rule:nonzero}
    .fil177 {fill:#DFCFE5;fill-rule:nonzero}
    .fil176 {fill:#DFCEE5;fill-rule:nonzero}
    .fil175 {fill:#DFCDE4;fill-rule:nonzero}
    .fil174 {fill:#DFCDE4;fill-rule:nonzero}
    .fil173 {fill:#DFCCE3;fill-rule:nonzero}
    .fil172 {fill:#DFCBE3;fill-rule:nonzero}
    .fil171 {fill:#DFCAE2;fill-rule:nonzero}
    .fil170 {fill:#DFCAE2;fill-rule:nonzero}
    .fil169 {fill:#DFC9E1;fill-rule:nonzero}
    .fil168 {fill:#DFC8E1;fill-rule:nonzero}
    .fil167 {fill:#DFC8E1;fill-rule:nonzero}
    .fil166 {fill:#DFC7E0;fill-rule:nonzero}
    .fil165 {fill:#DFC6E0;fill-rule:nonzero}
    .fil164 {fill:#DFC5DF;fill-rule:nonzero}
    .fil163 {fill:#DFC5DF;fill-rule:nonzero}
    .fil162 {fill:#DFC4DE;fill-rule:nonzero}
    .fil161 {fill:#DFC3DE;fill-rule:nonzero}
    .fil160 {fill:#DEC3DD;fill-rule:nonzero}
    .fil159 {fill:#DEC2DD;fill-rule:nonzero}
    .fil158 {fill:#DEC1DC;fill-rule:nonzero}
    .fil157 {fill:#DEC0DC;fill-rule:nonzero}
    .fil156 {fill:#DEC0DB;fill-rule:nonzero}
    .fil155 {fill:#DEBFDB;fill-rule:nonzero}
    .fil154 {fill:#DEBDDA;fill-rule:nonzero}
    .fil153 {fill:#DEBDDA;fill-rule:nonzero}
    .fil152 {fill:#DEBCD9;fill-rule:nonzero}
    .fil151 {fill:#DEBBD9;fill-rule:nonzero}
    .fil150 {fill:#DEBBD8;fill-rule:nonzero}
    .fil149 {fill:#DEBAD8;fill-rule:nonzero}
    .fil148 {fill:#DEB9D7;fill-rule:nonzero}
    .fil147 {fill:#DEB8D7;fill-rule:nonzero}
    .fil146 {fill:#DEB7D6;fill-rule:nonzero}
    .fil145 {fill:#DEB6D5;fill-rule:nonzero}
    .fil144 {fill:#DEB6D5;fill-rule:nonzero}
    .fil143 {fill:#DEB5D4;fill-rule:nonzero}
    .fil142 {fill:#DEB4D4;fill-rule:nonzero}
    .fil141 {fill:#DEB3D3;fill-rule:nonzero}
    .fil140 {fill:#DEB2D3;fill-rule:nonzero}
    .fil139 {fill:#DEB1D2;fill-rule:nonzero}
    .fil138 {fill:#DEB1D2;fill-rule:nonzero}
    .fil137 {fill:#DDB0D1;fill-rule:nonzero}
    .fil136 {fill:#DDAED0;fill-rule:nonzero}
    .fil135 {fill:#DDAED0;fill-rule:nonzero}
    .fil134 {fill:#DDADCF;fill-rule:nonzero}
    .fil133 {fill:#DDACCF;fill-rule:nonzero}
    .fil132 {fill:#DDABCE;fill-rule:nonzero}
    .fil131 {fill:#DDAACE;fill-rule:nonzero}
    .fil130 {fill:#DDA9CD;fill-rule:nonzero}
    .fil129 {fill:#DDA9CD;fill-rule:nonzero}
    .fil128 {fill:#DDA7CC;fill-rule:nonzero}
    .fil127 {fill:#DDA7CB;fill-rule:nonzero}
    .fil126 {fill:#DDA6CB;fill-rule:nonzero}
    .fil125 {fill:#DDA5CA;fill-rule:nonzero}
    .fil124 {fill:#DDA4CA;fill-rule:nonzero}
    .fil123 {fill:#DDA3C9;fill-rule:nonzero}
    .fil122 {fill:#DDA2C8;fill-rule:nonzero}
    .fil121 {fill:#DDA1C8;fill-rule:nonzero}
    .fil120 {fill:#DDA0C7;fill-rule:nonzero}
    .fil119 {fill:#DDA0C7;fill-rule:nonzero}
    .fil118 {fill:#DD9EC6;fill-rule:nonzero}
    .fil117 {fill:#DC9EC6;fill-rule:nonzero}
    .fil116 {fill:#DC9DC5;fill-rule:nonzero}
    .fil115 {fill:#DC9CC4;fill-rule:nonzero}
    .fil114 {fill:#DC9BC4;fill-rule:nonzero}
    .fil113 {fill:#DC9AC4;fill-rule:nonzero}
    .fil112 {fill:#DC99C3;fill-rule:nonzero}
    .fil111 {fill:#DC98C2;fill-rule:nonzero}
    .fil110 {fill:#DC97C2;fill-rule:nonzero}
    .fil109 {fill:#DC96C1;fill-rule:nonzero}
    .fil108 {fill:#DC95C1;fill-rule:nonzero}
    .fil107 {fill:#DC95C0;fill-rule:nonzero}
    .fil106 {fill:#DC93BF;fill-rule:nonzero}
    .fil105 {fill:#DC93BF;fill-rule:nonzero}
    .fil104 {fill:#DC92BF;fill-rule:nonzero}
    .fil103 {fill:#DC91BE;fill-rule:nonzero}
    .fil102 {fill:#DC90BD;fill-rule:nonzero}
    .fil101 {fill:#DC8FBD;fill-rule:nonzero}
    .fil100 {fill:#DC8EBC;fill-rule:nonzero}
    .fil99 {fill:#DC8DBC;fill-rule:nonzero}
    .fil98 {fill:#DC8CBB;fill-rule:nonzero}
    .fil97 {fill:#DC8BBB;fill-rule:nonzero}
    .fil96 {fill:#DB8BBA;fill-rule:nonzero}
    .fil95 {fill:#DB89B9;fill-rule:nonzero}
    .fil94 {fill:#DB89B9;fill-rule:nonzero}
    .fil93 {fill:#DB88B9;fill-rule:nonzero}
    .fil92 {fill:#DB87B8;fill-rule:nonzero}
    .fil91 {fill:#DB86B7;fill-rule:nonzero}
    .fil90 {fill:#DB85B7;fill-rule:nonzero}
    .fil89 {fill:#DB84B6;fill-rule:nonzero}
    .fil88 {fill:#DB83B6;fill-rule:nonzero}
    .fil87 {fill:#DB83B5;fill-rule:nonzero}
    .fil86 {fill:#DB81B5;fill-rule:nonzero}
    .fil85 {fill:#DB81B4;fill-rule:nonzero}
    .fil84 {fill:#DB80B4;fill-rule:nonzero}
    .fil83 {fill:#DB7FB3;fill-rule:nonzero}
    .fil82 {fill:#DB7EB3;fill-rule:nonzero}
    .fil81 {fill:#DB7DB2;fill-rule:nonzero}
    .fil80 {fill:#DB7CB1;fill-rule:nonzero}
    .fil79 {fill:#DB7BB1;fill-rule:nonzero}
    .fil78 {fill:#DB7AB1;fill-rule:nonzero}
    .fil77 {fill:#DB7AB0;fill-rule:nonzero}
    .fil76 {fill:#DB78AF;fill-rule:nonzero}
    .fil75 {fill:#DB78AF;fill-rule:nonzero}
    .fil74 {fill:#DB77AF;fill-rule:nonzero}
    .fil73 {fill:#DA75AE;fill-rule:nonzero}
    .fil72 {fill:#DA75AE;fill-rule:nonzero}
    .fil71 {fill:#DA74AD;fill-rule:nonzero}
    .fil70 {fill:#DA72AC;fill-rule:nonzero}
    .fil69 {fill:#DA72AC;fill-rule:nonzero}
    .fil68 {fill:#DA71AC;fill-rule:nonzero}
    .fil67 {fill:#DA70AB;fill-rule:nonzero}
    .fil66 {fill:#DA6FAA;fill-rule:nonzero}
    .fil65 {fill:#DA6EAA;fill-rule:nonzero}
    .fil64 {fill:#DA6DA9;fill-rule:nonzero}
    .fil63 {fill:#DA6CA9;fill-rule:nonzero}
    .fil62 {fill:#DA6BA8;fill-rule:nonzero}
    .fil61 {fill:#DA6AA8;fill-rule:nonzero}
    .fil60 {fill:#DA69A7;fill-rule:nonzero}
    .fil59 {fill:#DA69A7;fill-rule:nonzero}
    .fil58 {fill:#DA68A7;fill-rule:nonzero}
    .fil57 {fill:#DA66A6;fill-rule:nonzero}
    .fil56 {fill:#DA65A5;fill-rule:nonzero}
    .fil55 {fill:#DA64A5;fill-rule:nonzero}
    .fil54 {fill:#DA64A5;fill-rule:nonzero}
    .fil53 {fill:#DA63A4;fill-rule:nonzero}
    .fil52 {fill:#DA61A3;fill-rule:nonzero}
    .fil51 {fill:#DA60A3;fill-rule:nonzero}
    .fil50 {fill:#DA60A3;fill-rule:nonzero}
    .fil49 {fill:#D95FA2;fill-rule:nonzero}
    .fil48 {fill:#D95EA2;fill-rule:nonzero}
    .fil47 {fill:#D95DA1;fill-rule:nonzero}
    .fil46 {fill:#D95CA1;fill-rule:nonzero}
    .fil45 {fill:#D95BA1;fill-rule:nonzero}
    .fil44 {fill:#D95AA0;fill-rule:nonzero}
    .fil43 {fill:#D959A0;fill-rule:nonzero}
    .fil42 {fill:#D9589F;fill-rule:nonzero}
    .fil41 {fill:#D9579F;fill-rule:nonzero}
    .fil40 {fill:#D9569E;fill-rule:nonzero}
    .fil39 {fill:#D9559E;fill-rule:nonzero}
    .fil38 {fill:#D9549E;fill-rule:nonzero}
    .fil37 {fill:#D9539D;fill-rule:nonzero}
    .fil36 {fill:#D9529D;fill-rule:nonzero}
    .fil35 {fill:#D9529C;fill-rule:nonzero}
    .fil34 {fill:#D9519C;fill-rule:nonzero}
    .fil33 {fill:#D9509C;fill-rule:nonzero}
    .fil32 {fill:#D94F9B;fill-rule:nonzero}
    .fil31 {fill:#D94E9B;fill-rule:nonzero}
    .fil30 {fill:#D94D9A;fill-rule:nonzero}
    .fil29 {fill:#D94C9A;fill-rule:nonzero}
    .fil28 {fill:#D94B9A;fill-rule:nonzero}
    .fil27 {fill:#D94A99;fill-rule:nonzero}
    .fil26 {fill:#D94999;fill-rule:nonzero}
    .fil25 {fill:#D94899;fill-rule:nonzero}
    .fil24 {fill:#D94798;fill-rule:nonzero}
    .fil23 {fill:#D94698;fill-rule:nonzero}
    .fil22 {fill:#D94597;fill-rule:nonzero}
    .fil21 {fill:#D94497;fill-rule:nonzero}
    .fil20 {fill:#D94397;fill-rule:nonzero}
    .fil19 {fill:#D94296;fill-rule:nonzero}
    .fil18 {fill:#D84196;fill-rule:nonzero}
    .fil17 {fill:#D84096;fill-rule:nonzero}
    .fil16 {fill:#D83E95;fill-rule:nonzero}
    .fil15 {fill:#D83D95;fill-rule:nonzero}
    .fil14 {fill:#D83C94;fill-rule:nonzero}
    .fil13 {fill:#D83B94;fill-rule:nonzero}
    .fil12 {fill:#D83994;fill-rule:nonzero}
    .fil11 {fill:#D83893;fill-rule:nonzero}
    .fil10 {fill:#D83793;fill-rule:nonzero}
    .fil9 {fill:#D83692;fill-rule:nonzero}
    .fil8 {fill:#D83492;fill-rule:nonzero}
    .fil7 {fill:#D83392;fill-rule:nonzero}
    .fil6 {fill:#D83291;fill-rule:nonzero}
    .fil5 {fill:#D83191;fill-rule:nonzero}
    .fil4 {fill:#D83091;fill-rule:nonzero}
    .fil3 {fill:#D82E90;fill-rule:nonzero}
    .fil2 {fill:#D82D90;fill-rule:nonzero}
    .fil1 {fill:#D82C90;fill-rule:nonzero}
    .fil0 {fill:#D82B8F;fill-rule:nonzero}
    .fil189 {fill:#BA3291;fill-rule:nonzero}
   ]]>
  </style>
     <clipPath id="id0" style="clip-rule:nonzero">
      <path d="M35.77 18.21l-21.72 101.57 23 0 13.1 -61.17c2.87,-0.32 6.07,-0.48 7.35,-0.48 11.65,0 15.17,9.11 15.17,20.29 0,12.13 -4.16,28.74 -15.81,28.74 -3.68,0 -6.71,-1.59 -10.7,-5.75 -1.44,3.68 -2.08,6.71 -2.08,9.27 0,9.74 8.94,11.82 15.81,11.82 26.67,0 34.98,-30.67 34.98,-46 0,-11.98 -5.27,-23 -18.85,-25.71 10.38,-5.91 15.97,-15.97 15.97,-25.4 0,-13.09 -10.54,-25.39 -34.02,-25.39 -30.18,0 -57.97,20.28 -57.97,42.32 0,10.7 6.55,14.7 17.09,14.7 -0.16,-1.44 -2.24,-2.72 -2.24,-10.86 0,-26.36 21.24,-38.81 39.93,-38.81 15.17,0 21.08,8.14 21.08,17.24 0,11.98 -10.22,25.88 -23,25.88l-0.95 0 7.5 -35.46 -23.64 3.2zm81.78 -7.03l-17.09 80.01c-0.8,3.84 -1.28,7.35 -1.28,10.38 0,13.42 7.51,19.17 17.09,19.17 8.62,0 24.43,-3.51 33.54,-29.55l-6.71 0c-2.4,7.99 -8.15,14.06 -14.38,14.06 -4.47,0 -6.54,-1.44 -6.54,-5.91 0,-1.44 0.16,-3.04 0.64,-5.11l18.36 -86.24 -23.63 3.19zm75.86 28.75l-10.86 51.26c-2.4,7.99 -6.55,14.06 -12.78,14.06 -3.51,0 -4.79,-2.88 -4.79,-6.55 0,-1.44 0.16,-2.87 0.48,-4.47l11.5 -54.3 -23 0 -10.86 51.26c-0.8,3.84 -1.28,7.35 -1.28,10.38 0,13.42 7.51,19.17 17.09,19.17 6.71,0 15.65,-2.08 23.64,-15.17 0.96,9.9 6.7,15.17 15.81,15.17 8.62,0 23,-3.51 32.1,-29.55l-6.71 0c-2.39,7.99 -6.71,14.06 -12.93,14.06 -4.48,0 -6.55,-1.44 -6.55,-5.91 0,-1.44 0.16,-3.04 0.64,-5.11l11.49 -54.3 -22.99 0zm76.34 22.04c0,10.22 -7.19,29.86 -7.19,40.72 0,9.11 4.95,18.05 18.85,18.05 8.46,0 20.76,-3.35 29.7,-29.55l-6.71 0c-3.51,8.31 -6.38,14.06 -13.41,14.06 -4.79,0 -6.39,-2.72 -6.39,-6.71 0,-8.94 7.67,-28.27 7.67,-41.21 0,-12.77 -7.51,-18.04 -17.73,-18.04 -4.95,0 -11.98,1.28 -18.69,8.94l1.76 -8.3 -23 0 -16.93 79.85 23 0 10.86 -51.27c2.4,-7.98 6.71,-14.69 12.46,-14.69 3.83,0 5.75,2.88 5.75,8.15l0 0zm93.11 17.25c14.37,-15.66 21.4,-23.96 21.4,-33.86 0,-6.87 -3.04,-14.54 -8.95,-14.54 -5.74,0 -10.86,2.4 -10.86,7.83 0,4.95 1.92,8.94 7.51,8.94 0.8,0 1.76,-0.16 2.72,-0.32 -0.32,5.91 -4.95,12.78 -13.42,22.52l-1.92 -11.66c-1.43,-8.14 -4.47,-19 -17.24,-19 -21.41,0 -32.74,28.43 -37.7,52.06l6.71 0c5.59,-26.35 15.17,-38.97 21.4,-38.97 2.88,0 4.47,2.56 6.07,13.26l2.56 17.89 -32.26 36.41 11.5 0 22.03 -26.83c3.2,19.48 9.43,27.79 18.85,27.79 8.78,0 18.05,-4.79 18.85,-16.45 -1.76,0.64 -2.88,0.96 -5.91,0.96 -5.59,0 -7.51,-3.52 -9.27,-13.9l-2.07 -12.13z"/>
     </clipPath>
 </defs>
 <g id="Layer_x0020_1">
  <metadata id="CorelCorpID_0Corel-Layer"/>
  <g id="_2530689137744">
   <g>
    <g style="clip-path:url(#id0)">
     <polygon class="fil0" points="-10.5,117.12 -4.16,58.68 380.99,100.44 374.65,158.88 "/>
     <polygon id="_1" class="fil0" points="-4.18,58.84 -4.13,58.37 381.02,100.13 380.97,100.6 "/>
     <polygon id="_2" class="fil0" points="-4.15,58.52 -4.1,58.06 381.06,99.82 381.01,100.29 "/>
     <polygon id="_3" class="fil0" points="-4.11,58.21 -4.06,57.74 381.09,99.5 381.04,99.97 "/>
     <polygon id="_4" class="fil0" points="-4.08,57.9 -4.03,57.43 381.12,99.19 381.07,99.66 "/>
     <polygon id="_5" class="fil0" points="-4.04,57.59 -3.99,57.12 381.16,98.88 381.11,99.35 "/>
     <polygon id="_6" class="fil0" points="-4.01,57.27 -3.96,56.81 381.19,98.57 381.14,99.04 "/>
     <polygon id="_7" class="fil1" points="-3.98,56.96 -3.93,56.49 381.23,98.26 381.18,98.72 "/>
     <polygon id="_8" class="fil1" points="-3.94,56.65 -3.89,56.18 381.26,97.94 381.21,98.41 "/>
     <polygon id="_9" class="fil1" points="-3.91,56.34 -3.86,55.87 381.29,97.63 381.24,98.1 "/>
     <polygon id="_10" class="fil1" points="-3.88,56.02 -3.82,55.56 381.33,97.32 381.28,97.79 "/>
     <polygon id="_11" class="fil1" points="-3.84,55.71 -3.79,55.24 381.36,97.01 381.31,97.47 "/>
     <polygon id="_12" class="fil1" points="-3.81,55.4 -3.76,54.93 381.4,96.69 381.34,97.16 "/>
     <polygon id="_13" class="fil2" points="-3.77,55.09 -3.72,54.62 381.43,96.38 381.38,96.85 "/>
     <polygon id="_14" class="fil2" points="-3.74,54.78 -3.69,54.31 381.46,96.07 381.41,96.54 "/>
     <polygon id="_15" class="fil2" points="-3.71,54.46 -3.66,53.99 381.5,95.76 381.45,96.22 "/>
     <polygon id="_16" class="fil3" points="-3.67,54.15 -3.62,53.68 381.53,95.44 381.48,95.91 "/>
     <polygon id="_17" class="fil3" points="-3.64,53.84 -3.59,53.37 381.56,95.13 381.51,95.6 "/>
     <polygon id="_18" class="fil3" points="-3.6,53.53 -3.55,53.06 381.6,94.82 381.55,95.29 "/>
     <polygon id="_19" class="fil4" points="-3.57,53.21 -3.52,52.75 381.63,94.51 381.58,94.98 "/>
     <polygon id="_20" class="fil4" points="-3.54,52.9 -3.49,52.43 381.67,94.19 381.62,94.66 "/>
     <polygon id="_21" class="fil4" points="-3.5,52.59 -3.45,52.12 381.7,93.88 381.65,94.35 "/>
     <polygon id="_22" class="fil5" points="-3.47,52.28 -3.42,51.81 381.73,93.57 381.68,94.04 "/>
     <polygon id="_23" class="fil5" points="-3.44,51.96 -3.38,51.5 381.77,93.26 381.72,93.73 "/>
     <polygon id="_24" class="fil6" points="-3.4,51.65 -3.35,51.18 381.8,92.95 381.75,93.41 "/>
     <polygon id="_25" class="fil6" points="-3.37,51.34 -3.32,50.87 381.84,92.63 381.78,93.1 "/>
     <polygon id="_26" class="fil7" points="-3.33,51.03 -3.28,50.56 381.87,92.32 381.82,92.79 "/>
     <polygon id="_27" class="fil7" points="-3.3,50.71 -3.25,50.25 381.9,92.01 381.85,92.48 "/>
     <polygon id="_28" class="fil8" points="-3.27,50.4 -3.21,49.93 381.94,91.7 381.89,92.16 "/>
     <polygon id="_29" class="fil8" points="-3.23,50.09 -3.18,49.62 381.97,91.38 381.92,91.85 "/>
     <polygon id="_30" class="fil9" points="-3.2,49.78 -3.15,49.31 382.01,91.07 381.95,91.54 "/>
     <polygon id="_31" class="fil9" points="-3.16,49.46 -3.11,49 382.04,90.76 381.99,91.23 "/>
     <polygon id="_32" class="fil10" points="-3.13,49.15 -3.08,48.68 382.07,90.45 382.02,90.91 "/>
     <polygon id="_33" class="fil11" points="-3.1,48.84 -3.05,48.37 382.11,90.13 382.06,90.6 "/>
     <polygon id="_34" class="fil11" points="-3.06,48.53 -3.01,48.06 382.14,89.82 382.09,90.29 "/>
     <polygon id="_35" class="fil12" points="-3.03,48.22 -2.98,47.75 382.17,89.51 382.12,89.98 "/>
     <polygon id="_36" class="fil12" points="-2.99,47.9 -2.94,47.43 382.21,89.2 382.16,89.67 "/>
     <polygon id="_37" class="fil13" points="-2.96,47.59 -2.91,47.12 382.24,88.88 382.19,89.35 "/>
     <polygon id="_38" class="fil14" points="-2.93,47.28 -2.88,46.81 382.28,88.57 382.23,89.04 "/>
     <polygon id="_39" class="fil14" points="-2.89,46.97 -2.84,46.5 382.31,88.26 382.26,88.73 "/>
     <polygon id="_40" class="fil15" points="-2.86,46.65 -2.81,46.18 382.34,87.95 382.29,88.42 "/>
     <polygon id="_41" class="fil16" points="-2.83,46.34 -2.77,45.87 382.38,87.63 382.33,88.1 "/>
     <polygon id="_42" class="fil17" points="-2.79,46.03 -2.74,45.56 382.41,87.32 382.36,87.79 "/>
     <polygon id="_43" class="fil17" points="-2.76,45.72 -2.71,45.25 382.45,87.01 382.39,87.48 "/>
     <polygon id="_44" class="fil18" points="-2.72,45.4 -2.67,44.94 382.48,86.7 382.43,87.17 "/>
     <polygon id="_45" class="fil19" points="-2.69,45.09 -2.64,44.62 382.51,86.38 382.46,86.85 "/>
     <polygon id="_46" class="fil20" points="-2.66,44.78 -2.61,44.31 382.55,86.07 382.5,86.54 "/>
     <polygon id="_47" class="fil20" points="-2.62,44.47 -2.57,44 382.58,85.76 382.53,86.23 "/>
     <polygon id="_48" class="fil21" points="-2.59,44.15 -2.54,43.69 382.62,85.45 382.56,85.92 "/>
     <polygon id="_49" class="fil22" points="-2.55,43.84 -2.5,43.37 382.65,85.14 382.6,85.6 "/>
     <polygon id="_50" class="fil23" points="-2.52,43.53 -2.47,43.06 382.68,84.82 382.63,85.29 "/>
     <polygon id="_51" class="fil24" points="-2.49,43.22 -2.44,42.75 382.72,84.51 382.67,84.98 "/>
     <polygon id="_52" class="fil25" points="-2.45,42.91 -2.4,42.44 382.75,84.2 382.7,84.67 "/>
     <polygon id="_53" class="fil26" points="-2.42,42.59 -2.37,42.12 382.78,83.89 382.73,84.35 "/>
     <polygon id="_54" class="fil26" points="-2.39,42.28 -2.33,41.81 382.82,83.57 382.77,84.04 "/>
     <polygon id="_55" class="fil27" points="-2.35,41.97 -2.3,41.5 382.85,83.26 382.8,83.73 "/>
     <polygon id="_56" class="fil28" points="-2.32,41.66 -2.27,41.19 382.89,82.95 382.84,83.42 "/>
     <polygon id="_57" class="fil29" points="-2.28,41.34 -2.23,40.87 382.92,82.64 382.87,83.1 "/>
     <polygon id="_58" class="fil30" points="-2.25,41.03 -2.2,40.56 382.95,82.32 382.9,82.79 "/>
     <polygon id="_59" class="fil31" points="-2.22,40.72 -2.17,40.25 382.99,82.01 382.94,82.48 "/>
     <polygon id="_60" class="fil32" points="-2.18,40.41 -2.13,39.94 383.02,81.7 382.97,82.17 "/>
     <polygon id="_61" class="fil33" points="-2.15,40.09 -2.1,39.63 383.06,81.39 383,81.86 "/>
     <polygon id="_62" class="fil34" points="-2.11,39.78 -2.06,39.31 383.09,81.07 383.04,81.54 "/>
     <polygon id="_63" class="fil35" points="-2.08,39.47 -2.03,39 383.12,80.76 383.07,81.23 "/>
     <polygon id="_64" class="fil36" points="-2.05,39.16 -2,38.69 383.16,80.45 383.11,80.92 "/>
     <polygon id="_65" class="fil37" points="-2.01,38.84 -1.96,38.38 383.19,80.14 383.14,80.61 "/>
     <polygon id="_66" class="fil38" points="-1.98,38.53 -1.93,38.06 383.22,79.83 383.17,80.29 "/>
     <polygon id="_67" class="fil39" points="-1.94,38.22 -1.89,37.75 383.26,79.51 383.21,79.98 "/>
     <polygon id="_68" class="fil40" points="-1.91,37.91 -1.86,37.44 383.29,79.2 383.24,79.67 "/>
     <polygon id="_69" class="fil41" points="-1.88,37.59 -1.83,37.13 383.33,78.89 383.28,79.36 "/>
     <polygon id="_70" class="fil42" points="-1.84,37.28 -1.79,36.81 383.36,78.58 383.31,79.04 "/>
     <polygon id="_71" class="fil43" points="-1.81,36.97 -1.76,36.5 383.39,78.26 383.34,78.73 "/>
     <polygon id="_72" class="fil44" points="-1.78,36.66 -1.72,36.19 383.43,77.95 383.38,78.42 "/>
     <polygon id="_73" class="fil45" points="-1.74,36.34 -1.69,35.88 383.46,77.64 383.41,78.11 "/>
     <polygon id="_74" class="fil46" points="-1.71,36.03 -1.66,35.56 383.5,77.33 383.44,77.79 "/>
     <polygon id="_75" class="fil47" points="-1.67,35.72 -1.62,35.25 383.53,77.01 383.48,77.48 "/>
     <polygon id="_76" class="fil48" points="-1.64,35.41 -1.59,34.94 383.56,76.7 383.51,77.17 "/>
     <polygon id="_77" class="fil49" points="-1.61,35.1 -1.56,34.63 383.6,76.39 383.55,76.86 "/>
     <polygon id="_78" class="fil50" points="-1.57,34.78 -1.52,34.31 383.63,76.08 383.58,76.55 "/>
     <polygon id="_79" class="fil51" points="-1.54,34.47 -1.49,34 383.66,75.76 383.61,76.23 "/>
     <polygon id="_80" class="fil52" points="-1.5,34.16 -1.45,33.69 383.7,75.45 383.65,75.92 "/>
     <polygon id="_81" class="fil53" points="-1.47,33.85 -1.42,33.38 383.73,75.14 383.68,75.61 "/>
     <polygon id="_82" class="fil54" points="-1.44,33.53 -1.39,33.06 383.77,74.83 383.72,75.3 "/>
     <polygon id="_83" class="fil55" points="-1.4,33.22 -1.35,32.75 383.8,74.51 383.75,74.98 "/>
     <polygon id="_84" class="fil56" points="-1.37,32.91 -1.32,32.44 383.83,74.2 383.78,74.67 "/>
     <polygon id="_85" class="fil57" points="-1.34,32.6 -1.28,32.13 383.87,73.89 383.82,74.36 "/>
     <polygon id="_86" class="fil58" points="-1.3,32.28 -1.25,31.82 383.9,73.58 383.85,74.05 "/>
     <polygon id="_87" class="fil59" points="-1.27,31.97 -1.22,31.5 383.94,73.26 383.89,73.73 "/>
     <polygon id="_88" class="fil60" points="-1.23,31.66 -1.18,31.19 383.97,72.95 383.92,73.42 "/>
     <polygon id="_89" class="fil61" points="-1.2,31.35 -1.15,30.88 384,72.64 383.95,73.11 "/>
     <polygon id="_90" class="fil62" points="-1.17,31.03 -1.12,30.57 384.04,72.33 383.99,72.8 "/>
     <polygon id="_91" class="fil63" points="-1.13,30.72 -1.08,30.25 384.07,72.02 384.02,72.48 "/>
     <polygon id="_92" class="fil64" points="-1.1,30.41 -1.05,29.94 384.11,71.7 384.05,72.17 "/>
     <polygon id="_93" class="fil65" points="-1.06,30.1 -1.01,29.63 384.14,71.39 384.09,71.86 "/>
     <polygon id="_94" class="fil66" points="-1.03,29.79 -0.98,29.32 384.17,71.08 384.12,71.55 "/>
     <polygon id="_95" class="fil67" points="-1,29.47 -0.95,29 384.21,70.77 384.16,71.23 "/>
     <polygon id="_96" class="fil68" points="-0.96,29.16 -0.91,28.69 384.24,70.45 384.19,70.92 "/>
     <polygon id="_97" class="fil69" points="-0.93,28.85 -0.88,28.38 384.27,70.14 384.22,70.61 "/>
     <polygon id="_98" class="fil70" points="-0.89,28.54 -0.84,28.07 384.31,69.83 384.26,70.3 "/>
     <polygon id="_99" class="fil71" points="-0.86,28.22 -0.81,27.75 384.34,69.52 384.29,69.99 "/>
     <polygon id="_100" class="fil72" points="-0.83,27.91 -0.78,27.44 384.38,69.2 384.33,69.67 "/>
     <polygon id="_101" class="fil73" points="-0.79,27.6 -0.74,27.13 384.41,68.89 384.36,69.36 "/>
     <polygon id="_102" class="fil74" points="-0.76,27.29 -0.71,26.82 384.44,68.58 384.39,69.05 "/>
     <polygon id="_103" class="fil75" points="-0.73,26.97 -0.67,26.51 384.48,68.27 384.43,68.74 "/>
     <polygon id="_104" class="fil76" points="-0.69,26.66 -0.64,26.19 384.51,67.95 384.46,68.42 "/>
     <polygon id="_105" class="fil77" points="-0.66,26.35 -0.61,25.88 384.55,67.64 384.49,68.11 "/>
     <polygon id="_106" class="fil78" points="-0.62,26.04 -0.57,25.57 384.58,67.33 384.53,67.8 "/>
     <polygon id="_107" class="fil79" points="-0.59,25.72 -0.54,25.26 384.61,67.02 384.56,67.49 "/>
     <polygon id="_108" class="fil80" points="-0.56,25.41 -0.51,24.94 384.65,66.71 384.6,67.17 "/>
     <polygon id="_109" class="fil81" points="-0.52,25.1 -0.47,24.63 384.68,66.39 384.63,66.86 "/>
     <polygon id="_110" class="fil82" points="-0.49,24.79 -0.44,24.32 384.71,66.08 384.66,66.55 "/>
     <polygon id="_111" class="fil83" points="-0.45,24.47 -0.4,24.01 384.75,65.77 384.7,66.24 "/>
     <polygon id="_112" class="fil84" points="-0.42,24.16 -0.37,23.69 384.78,65.46 384.73,65.92 "/>
     <polygon id="_113" class="fil85" points="-0.39,23.85 -0.34,23.38 384.82,65.14 384.77,65.61 "/>
     <polygon id="_114" class="fil86" points="-0.35,23.54 -0.3,23.07 384.85,64.83 384.8,65.3 "/>
     <polygon id="_115" class="fil87" points="-0.32,23.22 -0.27,22.76 384.88,64.52 384.83,64.99 "/>
     <polygon id="_116" class="fil88" points="-0.28,22.91 -0.23,22.44 384.92,64.21 384.87,64.67 "/>
     <polygon id="_117" class="fil89" points="-0.25,22.6 -0.2,22.13 384.95,63.89 384.9,64.36 "/>
     <polygon id="_118" class="fil90" points="-0.22,22.29 -0.17,21.82 384.99,63.58 384.93,64.05 "/>
     <polygon id="_119" class="fil91" points="-0.18,21.98 -0.13,21.51 385.02,63.27 384.97,63.74 "/>
     <polygon id="_120" class="fil92" points="-0.15,21.66 -0.1,21.19 385.05,62.96 385,63.43 "/>
     <polygon id="_121" class="fil93" points="-0.12,21.35 -0.07,20.88 385.09,62.64 385.04,63.11 "/>
     <polygon id="_122" class="fil94" points="-0.08,21.04 -0.03,20.57 385.12,62.33 385.07,62.8 "/>
     <polygon id="_123" class="fil95" points="-0.05,20.73 0,20.26 385.16,62.02 385.1,62.49 "/>
     <polygon id="_124" class="fil96" points="-0.01,20.41 0.04,19.95 385.19,61.71 385.14,62.18 "/>
     <polygon id="_125" class="fil97" points="0.02,20.1 0.07,19.63 385.22,61.39 385.17,61.86 "/>
     <polygon id="_126" class="fil98" points="0.05,19.79 0.1,19.32 385.26,61.08 385.21,61.55 "/>
     <polygon id="_127" class="fil99" points="0.09,19.48 0.14,19.01 385.29,60.77 385.24,61.24 "/>
     <polygon id="_128" class="fil100" points="0.12,19.16 0.17,18.7 385.32,60.46 385.27,60.93 "/>
     <polygon id="_129" class="fil101" points="0.15,18.85 0.21,18.38 385.36,60.15 385.31,60.61 "/>
     <polygon id="_130" class="fil102" points="0.19,18.54 0.24,18.07 385.39,59.83 385.34,60.3 "/>
     <polygon id="_131" class="fil103" points="0.22,18.23 0.27,17.76 385.43,59.52 385.38,59.99 "/>
     <polygon id="_132" class="fil104" points="0.26,17.91 0.31,17.45 385.46,59.21 385.41,59.68 "/>
     <polygon id="_133" class="fil105" points="0.29,17.6 0.34,17.13 385.49,58.9 385.44,59.36 "/>
     <polygon id="_134" class="fil106" points="0.32,17.29 0.38,16.82 385.53,58.58 385.48,59.05 "/>
     <polygon id="_135" class="fil107" points="0.36,16.98 0.41,16.51 385.56,58.27 385.51,58.74 "/>
     <polygon id="_136" class="fil108" points="0.39,16.67 0.44,16.2 385.6,57.96 385.54,58.43 "/>
     <polygon id="_137" class="fil109" points="0.43,16.35 0.48,15.88 385.63,57.65 385.58,58.11 "/>
     <polygon id="_138" class="fil110" points="0.46,16.04 0.51,15.57 385.66,57.33 385.61,57.8 "/>
     <polygon id="_139" class="fil111" points="0.49,15.73 0.54,15.26 385.7,57.02 385.65,57.49 "/>
     <polygon id="_140" class="fil112" points="0.53,15.42 0.58,14.95 385.73,56.71 385.68,57.18 "/>
     <polygon id="_141" class="fil113" points="0.56,15.1 0.61,14.63 385.76,56.4 385.71,56.87 "/>
     <polygon id="_142" class="fil114" points="0.6,14.79 0.65,14.32 385.8,56.08 385.75,56.55 "/>
     <polygon id="_143" class="fil115" points="0.63,14.48 0.68,14.01 385.83,55.77 385.78,56.24 "/>
     <polygon id="_144" class="fil116" points="0.66,14.17 0.71,13.7 385.87,55.46 385.82,55.93 "/>
     <polygon id="_145" class="fil117" points="0.7,13.85 0.75,13.39 385.9,55.15 385.85,55.62 "/>
     <polygon id="_146" class="fil118" points="0.73,13.54 0.78,13.07 385.93,54.83 385.88,55.3 "/>
     <polygon id="_147" class="fil119" points="0.76,13.23 0.82,12.76 385.97,54.52 385.92,54.99 "/>
     <polygon id="_148" class="fil120" points="0.8,12.92 0.85,12.45 386,54.21 385.95,54.68 "/>
     <polygon id="_149" class="fil121" points="0.83,12.6 0.88,12.14 386.04,53.9 385.98,54.37 "/>
     <polygon id="_150" class="fil122" points="0.87,12.29 0.92,11.82 386.07,53.59 386.02,54.05 "/>
     <polygon id="_151" class="fil123" points="0.9,11.98 0.95,11.51 386.1,53.27 386.05,53.74 "/>
     <polygon id="_152" class="fil124" points="0.93,11.67 0.99,11.2 386.14,52.96 386.09,53.43 "/>
     <polygon id="_153" class="fil125" points="0.97,11.35 1.02,10.89 386.17,52.65 386.12,53.12 "/>
     <polygon id="_154" class="fil126" points="1,11.04 1.05,10.57 386.21,52.34 386.15,52.8 "/>
     <polygon id="_155" class="fil127" points="1.04,10.73 1.09,10.26 386.24,52.02 386.19,52.49 "/>
     <polygon id="_156" class="fil128" points="1.07,10.42 1.12,9.95 386.27,51.71 386.22,52.18 "/>
     <polygon id="_157" class="fil129" points="1.1,10.11 1.15,9.64 386.31,51.4 386.26,51.87 "/>
     <polygon id="_158" class="fil130" points="1.14,9.79 1.19,9.32 386.34,51.09 386.29,51.55 "/>
     <polygon id="_159" class="fil131" points="1.17,9.48 1.22,9.01 386.37,50.77 386.32,51.24 "/>
     <polygon id="_160" class="fil132" points="1.21,9.17 1.26,8.7 386.41,50.46 386.36,50.93 "/>
     <polygon id="_161" class="fil133" points="1.24,8.86 1.29,8.39 386.44,50.15 386.39,50.62 "/>
     <polygon id="_162" class="fil134" points="1.27,8.54 1.32,8.07 386.48,49.84 386.43,50.31 "/>
     <polygon id="_163" class="fil135" points="1.31,8.23 1.36,7.76 386.51,49.52 386.46,49.99 "/>
     <polygon id="_164" class="fil136" points="1.34,7.92 1.39,7.45 386.54,49.21 386.49,49.68 "/>
     <polygon id="_165" class="fil137" points="1.37,7.61 1.43,7.14 386.58,48.9 386.53,49.37 "/>
     <polygon id="_166" class="fil138" points="1.41,7.29 1.46,6.83 386.61,48.59 386.56,49.06 "/>
     <polygon id="_167" class="fil139" points="1.44,6.98 1.49,6.51 386.65,48.27 386.59,48.74 "/>
     <polygon id="_168" class="fil140" points="1.48,6.67 1.53,6.2 386.68,47.96 386.63,48.43 "/>
     <polygon id="_169" class="fil141" points="1.51,6.36 1.56,5.89 386.71,47.65 386.66,48.12 "/>
     <polygon id="_170" class="fil142" points="1.54,6.04 1.59,5.58 386.75,47.34 386.7,47.81 "/>
     <polygon id="_171" class="fil143" points="1.58,5.73 1.63,5.26 386.78,47.03 386.73,47.49 "/>
     <polygon id="_172" class="fil144" points="1.61,5.42 1.66,4.95 386.82,46.71 386.76,47.18 "/>
     <polygon id="_173" class="fil145" points="1.65,5.11 1.7,4.64 386.85,46.4 386.8,46.87 "/>
     <polygon id="_174" class="fil146" points="1.68,4.79 1.73,4.33 386.88,46.09 386.83,46.56 "/>
     <polygon id="_175" class="fil147" points="1.71,4.48 1.76,4.01 386.92,45.78 386.87,46.24 "/>
     <polygon id="_176" class="fil148" points="1.75,4.17 1.8,3.7 386.95,45.46 386.9,45.93 "/>
     <polygon id="_177" class="fil149" points="1.78,3.86 1.83,3.39 386.98,45.15 386.93,45.62 "/>
     <polygon id="_178" class="fil150" points="1.81,3.55 1.87,3.08 387.02,44.84 386.97,45.31 "/>
     <polygon id="_179" class="fil151" points="1.85,3.23 1.9,2.76 387.05,44.53 387,45 "/>
     <polygon id="_180" class="fil152" points="1.88,2.92 1.93,2.45 387.09,44.21 387.03,44.68 "/>
     <polygon id="_181" class="fil153" points="1.92,2.61 1.97,2.14 387.12,43.9 387.07,44.37 "/>
     <polygon id="_182" class="fil154" points="1.95,2.3 2,1.83 387.15,43.59 387.1,44.06 "/>
     <polygon id="_183" class="fil155" points="1.98,1.98 2.04,1.51 387.19,43.28 387.14,43.75 "/>
     <polygon id="_184" class="fil156" points="2.02,1.67 2.07,1.2 387.22,42.96 387.17,43.43 "/>
     <polygon id="_185" class="fil157" points="2.05,1.36 2.1,0.89 387.25,42.65 387.2,43.12 "/>
     <polygon id="_186" class="fil158" points="2.09,1.05 2.14,0.58 387.29,42.34 387.24,42.81 "/>
     <polygon id="_187" class="fil159" points="2.12,0.73 2.17,0.27 387.32,42.03 387.27,42.5 "/>
     <polygon id="_188" class="fil160" points="2.15,0.42 2.2,-0.05 387.36,41.71 387.31,42.18 "/>
     <polygon id="_189" class="fil161" points="2.19,0.11 2.24,-0.36 387.39,41.4 387.34,41.87 "/>
     <polygon id="_190" class="fil162" points="2.22,-0.2 2.27,-0.67 387.42,41.09 387.37,41.56 "/>
     <polygon id="_191" class="fil163" points="2.26,-0.52 2.31,-0.98 387.46,40.78 387.41,41.25 "/>
     <polygon id="_192" class="fil164" points="2.29,-0.83 2.34,-1.3 387.49,40.47 387.44,40.93 "/>
     <polygon id="_193" class="fil165" points="2.32,-1.14 2.37,-1.61 387.53,40.15 387.48,40.62 "/>
     <polygon id="_194" class="fil166" points="2.36,-1.45 2.41,-1.92 387.56,39.84 387.51,40.31 "/>
     <polygon id="_195" class="fil167" points="2.39,-1.77 2.44,-2.23 387.59,39.53 387.54,40 "/>
     <polygon id="_196" class="fil168" points="2.42,-2.08 2.48,-2.55 387.63,39.22 387.58,39.68 "/>
     <polygon id="_197" class="fil169" points="2.46,-2.39 2.51,-2.86 387.66,38.9 387.61,39.37 "/>
     <polygon id="_198" class="fil170" points="2.49,-2.7 2.54,-3.17 387.7,38.59 387.64,39.06 "/>
     <polygon id="_199" class="fil171" points="2.53,-3.01 2.58,-3.48 387.73,38.28 387.68,38.75 "/>
     <polygon id="_200" class="fil172" points="2.56,-3.33 2.61,-3.8 387.76,37.97 387.71,38.43 "/>
     <polygon id="_201" class="fil173" points="2.59,-3.64 2.64,-4.11 387.8,37.65 387.75,38.12 "/>
     <polygon id="_202" class="fil173" points="2.63,-3.95 2.68,-4.42 387.83,37.34 387.78,37.81 "/>
     <polygon id="_203" class="fil174" points="2.66,-4.26 2.71,-4.73 387.86,37.03 387.81,37.5 "/>
     <polygon id="_204" class="fil175" points="2.7,-4.58 2.75,-5.04 387.9,36.72 387.85,37.19 "/>
     <polygon id="_205" class="fil176" points="2.73,-4.89 2.78,-5.36 387.93,36.4 387.88,36.87 "/>
     <polygon id="_206" class="fil177" points="2.76,-5.2 2.81,-5.67 387.97,36.09 387.92,36.56 "/>
     <polygon id="_207" class="fil178" points="2.8,-5.51 2.85,-5.98 388,35.78 387.95,36.25 "/>
     <polygon id="_208" class="fil179" points="2.83,-5.83 2.88,-6.29 388.03,35.47 387.98,35.94 "/>
     <polygon id="_209" class="fil179" points="2.86,-6.14 2.92,-6.61 388.07,35.16 388.02,35.62 "/>
     <polygon id="_210" class="fil180" points="2.9,-6.45 2.95,-6.92 388.1,34.84 388.05,35.31 "/>
     <polygon id="_211" class="fil181" points="2.93,-6.76 2.98,-7.23 388.14,34.53 388.09,35 "/>
     <polygon id="_212" class="fil182" points="2.97,-7.08 3.02,-7.54 388.17,34.22 388.12,34.69 "/>
     <polygon id="_213" class="fil182" points="3,-7.39 3.05,-7.86 388.2,33.91 388.15,34.37 "/>
     <polygon id="_214" class="fil183" points="3.03,-7.7 3.08,-8.17 388.24,33.59 388.19,34.06 "/>
     <polygon id="_215" class="fil184" points="3.07,-8.01 3.12,-8.48 388.27,33.28 388.22,33.75 "/>
     <polygon id="_216" class="fil185" points="3.1,-8.33 3.15,-8.79 388.31,32.97 388.25,33.44 "/>
     <polygon id="_217" class="fil185" points="3.14,-8.64 3.19,-9.11 388.34,32.66 388.29,33.12 "/>
     <polygon id="_218" class="fil186" points="3.17,-8.95 3.22,-9.42 388.37,32.34 388.32,32.81 "/>
     <polygon id="_219" class="fil187" points="3.2,-9.26 3.25,-9.73 388.41,32.03 388.36,32.5 "/>
     <polygon id="_220" class="fil187" points="3.24,-9.57 3.29,-10.04 388.44,31.72 388.39,32.19 "/>
     <polygon id="_221" class="fil188" points="3.27,-9.89 3.32,-10.36 388.47,31.41 388.42,31.88 "/>
     <polygon id="_222" class="fil188" points="3.31,-10.2 3.3,-10.15 388.45,31.61 388.46,31.56 "/>
    </g>
   </g>
   <g id="_2530689139952">
    <path class="fil189" d="M25.88 129.6l-9.17 0 0 4.94 8.44 0c0.62,0 1.09,0.14 1.39,0.42 0.31,0.27 0.46,0.64 0.46,1.1 0,0.45 -0.15,0.82 -0.45,1.11 -0.3,0.29 -0.77,0.43 -1.4,0.43l-8.44 0 0 5.73 9.48 0c0.64,0 1.12,0.15 1.45,0.44 0.32,0.3 0.49,0.69 0.49,1.19 0,0.47 -0.17,0.86 -0.49,1.15 -0.33,0.3 -0.81,0.45 -1.45,0.45l-11.06 0c-0.89,0 -1.52,-0.2 -1.91,-0.59 -0.39,-0.4 -0.59,-1.03 -0.59,-1.91l0 -15.11c0,-0.59 0.09,-1.06 0.27,-1.43 0.17,-0.37 0.44,-0.64 0.81,-0.81 0.37,-0.17 0.84,-0.26 1.42,-0.26l10.75 0c0.65,0 1.13,0.15 1.44,0.44 0.32,0.29 0.47,0.66 0.47,1.13 0,0.47 -0.15,0.86 -0.47,1.15 -0.31,0.28 -0.79,0.43 -1.44,0.43zm7.87 4.41l3.03 8.5 3.26 -8.87c0.26,-0.71 0.5,-1.22 0.75,-1.52 0.25,-0.29 0.62,-0.44 1.13,-0.44 0.47,0 0.88,0.16 1.21,0.48 0.33,0.32 0.5,0.69 0.5,1.11 0,0.16 -0.03,0.35 -0.09,0.57 -0.06,0.22 -0.13,0.43 -0.21,0.62 -0.08,0.19 -0.16,0.41 -0.26,0.66l-3.59 8.91c-0.1,0.25 -0.23,0.58 -0.4,0.97 -0.15,0.4 -0.33,0.73 -0.53,1.01 -0.2,0.28 -0.44,0.49 -0.72,0.65 -0.29,0.15 -0.64,0.23 -1.05,0.23 -0.53,0 -0.95,-0.12 -1.27,-0.36 -0.31,-0.24 -0.55,-0.51 -0.7,-0.8 -0.15,-0.28 -0.4,-0.85 -0.76,-1.7l-3.56 -8.82c-0.08,-0.22 -0.17,-0.44 -0.25,-0.66 -0.09,-0.22 -0.16,-0.44 -0.22,-0.66 -0.06,-0.23 -0.09,-0.43 -0.09,-0.59 0,-0.26 0.08,-0.51 0.23,-0.77 0.16,-0.25 0.37,-0.46 0.64,-0.61 0.28,-0.16 0.57,-0.24 0.9,-0.24 0.61,0 1.04,0.17 1.28,0.53 0.23,0.36 0.49,0.96 0.77,1.8zm22.64 6.2l-7.32 0c0.01,0.85 0.18,1.6 0.51,2.25 0.34,0.65 0.78,1.14 1.33,1.47 0.56,0.33 1.17,0.49 1.83,0.49 0.45,0 0.86,-0.05 1.23,-0.16 0.37,-0.1 0.73,-0.26 1.08,-0.49 0.35,-0.22 0.66,-0.46 0.95,-0.72 0.3,-0.26 0.68,-0.6 1.15,-1.04 0.19,-0.17 0.46,-0.25 0.81,-0.25 0.39,0 0.7,0.11 0.94,0.32 0.23,0.2 0.36,0.5 0.36,0.89 0,0.33 -0.14,0.73 -0.4,1.18 -0.27,0.45 -0.67,0.89 -1.2,1.3 -0.54,0.41 -1.21,0.76 -2.02,1.03 -0.81,0.28 -1.74,0.41 -2.78,0.41 -2.41,0 -4.28,-0.69 -5.61,-2.06 -1.33,-1.37 -2,-3.22 -2,-5.57 0,-1.11 0.17,-2.14 0.49,-3.08 0.33,-0.95 0.81,-1.76 1.44,-2.44 0.63,-0.67 1.41,-1.19 2.33,-1.55 0.92,-0.36 1.95,-0.54 3.07,-0.54 1.46,0 2.72,0.31 3.76,0.92 1.05,0.62 1.83,1.42 2.35,2.4 0.52,0.98 0.79,1.98 0.79,2.99 0,0.94 -0.28,1.55 -0.81,1.83 -0.54,0.28 -1.3,0.42 -2.28,0.42zm-7.32 -2.13l6.78 0c-0.08,-1.28 -0.43,-2.23 -1.03,-2.87 -0.6,-0.63 -1.38,-0.95 -2.36,-0.95 -0.94,0 -1.7,0.32 -2.3,0.96 -0.6,0.65 -0.96,1.6 -1.09,2.86zm16.95 -4.34l0 0.46c0.66,-0.87 1.38,-1.51 2.16,-1.92 0.79,-0.4 1.68,-0.6 2.7,-0.6 0.99,0 1.87,0.21 2.65,0.64 0.77,0.43 1.35,1.04 1.74,1.82 0.25,0.46 0.41,0.95 0.48,1.49 0.07,0.52 0.11,1.2 0.11,2.02l0 6.97c0,0.75 -0.18,1.31 -0.52,1.7 -0.34,0.38 -0.79,0.57 -1.34,0.57 -0.55,0 -1.01,-0.19 -1.36,-0.59 -0.34,-0.39 -0.52,-0.95 -0.52,-1.68l0 -6.24c0,-1.23 -0.17,-2.18 -0.51,-2.83 -0.34,-0.65 -1.03,-0.98 -2.05,-0.98 -0.66,0 -1.27,0.19 -1.83,0.59 -0.54,0.4 -0.95,0.95 -1.2,1.64 -0.18,0.56 -0.27,1.6 -0.27,3.13l0 4.69c0,0.76 -0.18,1.32 -0.53,1.7 -0.35,0.38 -0.81,0.57 -1.36,0.57 -0.54,0 -0.98,-0.19 -1.33,-0.59 -0.34,-0.39 -0.52,-0.95 -0.52,-1.68l0 -10.82c0,-0.71 0.16,-1.24 0.47,-1.59 0.31,-0.36 0.73,-0.53 1.27,-0.53 0.33,0 0.63,0.08 0.89,0.23 0.26,0.16 0.47,0.39 0.63,0.7 0.16,0.31 0.24,0.69 0.24,1.13zm13.78 -1.73l0.41 0 0 -2.25c0,-0.6 0.01,-1.07 0.05,-1.41 0.03,-0.35 0.12,-0.65 0.26,-0.89 0.15,-0.26 0.36,-0.47 0.63,-0.63 0.28,-0.16 0.58,-0.24 0.92,-0.24 0.47,0 0.9,0.18 1.28,0.54 0.26,0.24 0.42,0.53 0.49,0.87 0.07,0.35 0.1,0.83 0.1,1.46l0 2.55 1.37 0c0.53,0 0.94,0.13 1.22,0.38 0.28,0.25 0.42,0.57 0.42,0.96 0,0.51 -0.2,0.86 -0.6,1.06 -0.4,0.2 -0.97,0.3 -1.71,0.3l-0.7 0 0 6.88c0,0.58 0.02,1.04 0.06,1.35 0.05,0.31 0.15,0.57 0.33,0.77 0.18,0.19 0.47,0.29 0.88,0.29 0.21,0 0.51,-0.04 0.89,-0.12 0.37,-0.07 0.66,-0.11 0.87,-0.11 0.3,0 0.58,0.12 0.82,0.36 0.24,0.25 0.36,0.54 0.36,0.9 0,0.6 -0.33,1.06 -0.98,1.38 -0.66,0.32 -1.61,0.48 -2.84,0.48 -1.17,0 -2.06,-0.19 -2.66,-0.59 -0.6,-0.39 -0.99,-0.93 -1.18,-1.63 -0.19,-0.69 -0.28,-1.62 -0.28,-2.78l0 -7.18 -0.49 0c-0.55,0 -0.96,-0.13 -1.24,-0.38 -0.28,-0.26 -0.42,-0.59 -0.42,-0.98 0,-0.39 0.15,-0.71 0.44,-0.96 0.3,-0.25 0.73,-0.38 1.3,-0.38zm21.77 10c0,1.03 -0.25,1.91 -0.75,2.65 -0.5,0.73 -1.24,1.29 -2.23,1.67 -0.98,0.38 -2.17,0.56 -3.58,0.56 -1.34,0 -2.49,-0.2 -3.45,-0.61 -0.96,-0.41 -1.67,-0.93 -2.13,-1.54 -0.45,-0.62 -0.68,-1.23 -0.68,-1.86 0,-0.41 0.14,-0.76 0.44,-1.05 0.29,-0.29 0.66,-0.44 1.11,-0.44 0.39,0 0.69,0.1 0.9,0.29 0.21,0.19 0.41,0.46 0.6,0.81 0.39,0.66 0.85,1.17 1.38,1.49 0.53,0.33 1.26,0.5 2.18,0.5 0.75,0 1.37,-0.17 1.84,-0.5 0.49,-0.33 0.72,-0.72 0.72,-1.15 0,-0.66 -0.24,-1.14 -0.74,-1.44 -0.5,-0.3 -1.32,-0.59 -2.46,-0.87 -1.29,-0.31 -2.34,-0.65 -3.15,-1 -0.8,-0.35 -1.45,-0.82 -1.93,-1.4 -0.48,-0.57 -0.73,-1.28 -0.73,-2.12 0,-0.75 0.23,-1.46 0.67,-2.13 0.45,-0.67 1.11,-1.2 1.99,-1.59 0.87,-0.4 1.92,-0.6 3.15,-0.6 0.97,0 1.84,0.09 2.61,0.3 0.77,0.2 1.42,0.47 1.93,0.81 0.52,0.34 0.91,0.71 1.18,1.12 0.27,0.42 0.41,0.81 0.41,1.21 0,0.43 -0.15,0.78 -0.44,1.05 -0.28,0.28 -0.69,0.42 -1.22,0.42 -0.39,0 -0.71,-0.11 -0.98,-0.33 -0.27,-0.22 -0.58,-0.55 -0.93,-0.99 -0.28,-0.36 -0.61,-0.66 -1,-0.88 -0.38,-0.22 -0.9,-0.33 -1.56,-0.33 -0.67,0 -1.24,0.15 -1.69,0.43 -0.44,0.29 -0.66,0.65 -0.66,1.08 0,0.4 0.16,0.72 0.49,0.97 0.33,0.25 0.77,0.46 1.33,0.63 0.55,0.16 1.32,0.36 2.3,0.6 1.16,0.28 2.11,0.62 2.84,1.01 0.74,0.4 1.29,0.86 1.67,1.4 0.38,0.53 0.57,1.14 0.57,1.83zm12.6 -11.28c0,-0.85 0.23,-1.63 0.67,-2.33 0.44,-0.7 1.09,-1.25 1.95,-1.66 0.87,-0.42 1.88,-0.62 3.04,-0.62 1.15,0 2.14,0.21 2.99,0.64 0.83,0.43 1.47,1 1.88,1.69 0.42,0.69 0.62,1.42 0.62,2.16 0,1.03 -0.33,1.92 -1.01,2.68 -0.68,0.75 -1.68,1.53 -3,2.31 0.46,0.55 0.89,1.05 1.28,1.52 0.39,0.48 0.77,0.92 1.14,1.33 0.37,0.41 0.7,0.76 1,1.06 0.14,-0.26 0.35,-0.74 0.64,-1.44 0.29,-0.7 0.56,-1.21 0.81,-1.52 0.25,-0.31 0.61,-0.47 1.06,-0.47 0.43,0 0.81,0.16 1.14,0.46 0.33,0.31 0.5,0.68 0.5,1.12 0,0.4 -0.14,0.97 -0.43,1.7 -0.29,0.74 -0.69,1.56 -1.24,2.45 0.35,0.29 0.88,0.74 1.62,1.33 0.73,0.59 1.19,1 1.36,1.21 0.16,0.22 0.25,0.5 0.25,0.86 0,0.47 -0.17,0.87 -0.52,1.2 -0.34,0.32 -0.72,0.48 -1.14,0.48 -0.43,0 -0.84,-0.13 -1.25,-0.41 -0.4,-0.27 -1.26,-0.94 -2.56,-2.01 -0.6,0.56 -1.21,1.01 -1.85,1.37 -0.63,0.36 -1.31,0.62 -2.04,0.79 -0.73,0.17 -1.54,0.26 -2.44,0.26 -1.14,0 -2.16,-0.17 -3.08,-0.5 -0.9,-0.33 -1.66,-0.78 -2.27,-1.35 -0.6,-0.56 -1.05,-1.19 -1.34,-1.88 -0.29,-0.69 -0.44,-1.39 -0.44,-2.1 0,-0.69 0.11,-1.32 0.33,-1.89 0.22,-0.57 0.53,-1.08 0.93,-1.55 0.39,-0.45 0.88,-0.89 1.47,-1.31 0.58,-0.42 1.25,-0.82 2.02,-1.21 -0.69,-0.86 -1.21,-1.63 -1.56,-2.3 -0.35,-0.67 -0.53,-1.36 -0.53,-2.07zm3.88 6.56c-0.93,0.54 -1.63,1.08 -2.08,1.62 -0.47,0.53 -0.7,1.17 -0.7,1.91 0,0.43 0.09,0.83 0.26,1.21 0.16,0.38 0.41,0.74 0.74,1.07 0.32,0.33 0.7,0.58 1.13,0.75 0.43,0.17 0.88,0.26 1.36,0.26 0.46,0 0.91,-0.07 1.35,-0.22 0.44,-0.14 0.85,-0.35 1.25,-0.62 0.39,-0.27 0.8,-0.6 1.22,-1.01 -0.82,-0.74 -1.55,-1.49 -2.2,-2.22 -0.64,-0.74 -1.42,-1.65 -2.33,-2.75zm1.4 -3.76c0.93,-0.59 1.61,-1.09 2.02,-1.5 0.42,-0.4 0.63,-0.89 0.63,-1.47 0,-0.56 -0.21,-1.04 -0.63,-1.42 -0.41,-0.39 -0.94,-0.58 -1.56,-0.58 -0.64,0 -1.16,0.2 -1.59,0.59 -0.42,0.39 -0.63,0.86 -0.63,1.39 0,0.27 0.08,0.56 0.24,0.88 0.16,0.31 0.35,0.63 0.59,0.94 0.24,0.31 0.55,0.7 0.93,1.17zm36.19 7c0,1.21 -0.31,2.3 -0.94,3.27 -0.62,0.97 -1.54,1.73 -2.75,2.27 -1.2,0.55 -2.64,0.82 -4.29,0.82 -1.98,0 -3.62,-0.37 -4.91,-1.12 -0.91,-0.53 -1.65,-1.25 -2.22,-2.15 -0.57,-0.9 -0.86,-1.78 -0.86,-2.63 0,-0.49 0.18,-0.91 0.52,-1.27 0.34,-0.35 0.78,-0.52 1.3,-0.52 0.44,0 0.8,0.14 1.09,0.41 0.3,0.27 0.55,0.68 0.76,1.22 0.26,0.64 0.54,1.18 0.83,1.6 0.3,0.43 0.72,0.79 1.26,1.07 0.54,0.28 1.24,0.42 2.12,0.42 1.21,0 2.19,-0.28 2.94,-0.85 0.76,-0.56 1.14,-1.26 1.14,-2.1 0,-0.67 -0.21,-1.21 -0.61,-1.62 -0.41,-0.42 -0.94,-0.74 -1.58,-0.96 -0.65,-0.22 -1.51,-0.45 -2.59,-0.7 -1.44,-0.34 -2.65,-0.74 -3.62,-1.18 -0.97,-0.46 -1.74,-1.08 -2.31,-1.86 -0.58,-0.78 -0.86,-1.75 -0.86,-2.91 0,-1.11 0.3,-2.09 0.9,-2.95 0.61,-0.86 1.48,-1.52 2.62,-1.98 1.14,-0.46 2.49,-0.69 4.03,-0.69 1.23,0 2.3,0.15 3.2,0.46 0.9,0.31 1.65,0.71 2.24,1.22 0.59,0.5 1.03,1.04 1.3,1.59 0.27,0.56 0.41,1.11 0.41,1.64 0,0.48 -0.17,0.92 -0.51,1.31 -0.34,0.38 -0.77,0.58 -1.28,0.58 -0.47,0 -0.82,-0.12 -1.06,-0.35 -0.25,-0.23 -0.51,-0.62 -0.79,-1.15 -0.37,-0.75 -0.8,-1.35 -1.32,-1.77 -0.51,-0.43 -1.33,-0.64 -2.47,-0.64 -1.05,0 -1.9,0.23 -2.54,0.69 -0.65,0.47 -0.97,1.02 -0.97,1.67 0,0.4 0.11,0.75 0.33,1.04 0.22,0.29 0.52,0.54 0.91,0.75 0.38,0.21 0.77,0.38 1.16,0.5 0.39,0.12 1.04,0.29 1.95,0.52 1.13,0.27 2.16,0.56 3.08,0.88 0.91,0.32 1.69,0.71 2.34,1.16 0.65,0.46 1.15,1.04 1.51,1.74 0.36,0.7 0.54,1.55 0.54,2.57zm12.91 4.25l0 -0.48c-0.45,0.57 -0.92,1.04 -1.41,1.43 -0.5,0.38 -1.03,0.67 -1.62,0.85 -0.58,0.19 -1.25,0.28 -2,0.28 -0.9,0 -1.71,-0.18 -2.43,-0.56 -0.72,-0.37 -1.27,-0.89 -1.67,-1.55 -0.46,-0.79 -0.69,-1.93 -0.69,-3.43l0 -7.41c0,-0.75 0.17,-1.31 0.5,-1.68 0.34,-0.37 0.79,-0.55 1.35,-0.55 0.56,0 1.02,0.18 1.36,0.56 0.35,0.37 0.52,0.93 0.52,1.67l0 5.99c0,0.87 0.08,1.6 0.22,2.19 0.15,0.59 0.41,1.05 0.79,1.38 0.38,0.33 0.89,0.5 1.54,0.5 0.63,0 1.23,-0.18 1.78,-0.56 0.56,-0.37 0.97,-0.86 1.23,-1.47 0.21,-0.53 0.31,-1.69 0.31,-3.48l0 -4.55c0,-0.74 0.17,-1.3 0.52,-1.67 0.35,-0.38 0.8,-0.56 1.36,-0.56 0.56,0 1.01,0.18 1.34,0.55 0.34,0.37 0.51,0.93 0.51,1.68l0 10.84c0,0.72 -0.16,1.25 -0.48,1.61 -0.33,0.36 -0.75,0.53 -1.26,0.53 -0.51,0 -0.94,-0.18 -1.27,-0.55 -0.33,-0.37 -0.5,-0.89 -0.5,-1.56zm10.95 -3.29l0 3.13c0,0.76 -0.18,1.32 -0.53,1.7 -0.36,0.38 -0.81,0.57 -1.35,0.57 -0.54,0 -0.99,-0.19 -1.33,-0.57 -0.35,-0.39 -0.52,-0.95 -0.52,-1.7l0 -10.42c0,-1.68 0.61,-2.52 1.82,-2.52 0.62,0 1.07,0.19 1.34,0.59 0.27,0.39 0.42,0.97 0.45,1.74 0.45,-0.77 0.9,-1.35 1.38,-1.74 0.47,-0.4 1.1,-0.59 1.88,-0.59 0.79,0 1.55,0.19 2.29,0.59 0.74,0.39 1.11,0.91 1.11,1.56 0,0.46 -0.15,0.84 -0.47,1.14 -0.32,0.3 -0.66,0.44 -1.02,0.44 -0.14,0 -0.47,-0.08 -1,-0.25 -0.52,-0.17 -0.99,-0.25 -1.39,-0.25 -0.55,0 -0.99,0.14 -1.34,0.43 -0.35,0.29 -0.62,0.71 -0.81,1.28 -0.19,0.56 -0.32,1.24 -0.4,2.02 -0.07,0.78 -0.11,1.73 -0.11,2.85zm11.68 -7.71l0 0.46c0.7,-0.87 1.43,-1.52 2.19,-1.92 0.76,-0.41 1.62,-0.62 2.58,-0.62 1.15,0 2.21,0.3 3.18,0.89 0.97,0.6 1.73,1.47 2.29,2.61 0.57,1.14 0.85,2.49 0.85,4.06 0,1.15 -0.17,2.21 -0.49,3.17 -0.32,0.96 -0.77,1.77 -1.34,2.43 -0.56,0.65 -1.23,1.15 -2.01,1.5 -0.77,0.36 -1.6,0.53 -2.48,0.53 -1.07,0 -1.97,-0.21 -2.7,-0.64 -0.72,-0.43 -1.41,-1.06 -2.07,-1.89l0 5.62c0,1.65 -0.6,2.47 -1.8,2.47 -0.7,0 -1.17,-0.21 -1.4,-0.63 -0.23,-0.43 -0.34,-1.05 -0.34,-1.86l0 -16.16c0,-0.71 0.15,-1.24 0.47,-1.59 0.31,-0.36 0.73,-0.53 1.27,-0.53 0.53,0 0.96,0.18 1.3,0.54 0.33,0.36 0.5,0.88 0.5,1.56zm7.32 5.44c0,-0.98 -0.15,-1.83 -0.45,-2.54 -0.3,-0.7 -0.72,-1.25 -1.25,-1.63 -0.54,-0.38 -1.13,-0.57 -1.77,-0.57 -1.04,0 -1.91,0.41 -2.61,1.22 -0.71,0.81 -1.06,2.01 -1.06,3.59 0,1.49 0.35,2.65 1.05,3.47 0.7,0.83 1.57,1.24 2.62,1.24 0.62,0 1.19,-0.18 1.72,-0.54 0.53,-0.36 0.95,-0.9 1.28,-1.62 0.32,-0.73 0.47,-1.6 0.47,-2.62zm10.48 2.27l0 3.13c0,0.76 -0.18,1.32 -0.54,1.7 -0.35,0.38 -0.8,0.57 -1.35,0.57 -0.54,0 -0.98,-0.19 -1.33,-0.57 -0.34,-0.39 -0.52,-0.95 -0.52,-1.7l0 -10.42c0,-1.68 0.61,-2.52 1.82,-2.52 0.62,0 1.07,0.19 1.34,0.59 0.28,0.39 0.43,0.97 0.45,1.74 0.45,-0.77 0.91,-1.35 1.38,-1.74 0.47,-0.4 1.1,-0.59 1.89,-0.59 0.78,0 1.54,0.19 2.28,0.59 0.74,0.39 1.11,0.91 1.11,1.56 0,0.46 -0.15,0.84 -0.47,1.14 -0.31,0.3 -0.65,0.44 -1.02,0.44 -0.14,0 -0.47,-0.08 -0.99,-0.25 -0.53,-0.17 -0.99,-0.25 -1.4,-0.25 -0.54,0 -0.99,0.14 -1.34,0.43 -0.35,0.29 -0.62,0.71 -0.81,1.28 -0.19,0.56 -0.32,1.24 -0.4,2.02 -0.07,0.78 -0.1,1.73 -0.1,2.85zm12.32 -7.69l0 10.82c0,0.75 -0.18,1.31 -0.53,1.7 -0.36,0.38 -0.81,0.57 -1.35,0.57 -0.55,0 -1,-0.19 -1.34,-0.59 -0.34,-0.39 -0.51,-0.95 -0.51,-1.68l0 -10.71c0,-0.74 0.17,-1.3 0.51,-1.67 0.34,-0.38 0.79,-0.56 1.34,-0.56 0.54,0 0.99,0.18 1.35,0.56 0.35,0.37 0.53,0.9 0.53,1.56zm-1.85 -3.86c-0.52,0 -0.96,-0.16 -1.33,-0.48 -0.37,-0.32 -0.55,-0.77 -0.55,-1.36 0,-0.52 0.18,-0.96 0.56,-1.3 0.38,-0.34 0.82,-0.51 1.32,-0.51 0.49,0 0.92,0.15 1.29,0.46 0.37,0.31 0.56,0.76 0.56,1.35 0,0.58 -0.18,1.03 -0.55,1.35 -0.36,0.32 -0.79,0.49 -1.3,0.49zm17.77 12.07c0,1.03 -0.25,1.91 -0.75,2.65 -0.5,0.73 -1.25,1.29 -2.23,1.67 -0.98,0.38 -2.18,0.56 -3.59,0.56 -1.34,0 -2.49,-0.2 -3.45,-0.61 -0.96,-0.41 -1.66,-0.93 -2.12,-1.54 -0.46,-0.62 -0.69,-1.23 -0.69,-1.86 0,-0.41 0.15,-0.76 0.44,-1.05 0.29,-0.29 0.66,-0.44 1.11,-0.44 0.4,0 0.7,0.1 0.91,0.29 0.21,0.19 0.41,0.46 0.6,0.81 0.38,0.66 0.84,1.17 1.37,1.49 0.54,0.33 1.27,0.5 2.19,0.5 0.75,0 1.36,-0.17 1.84,-0.5 0.48,-0.33 0.72,-0.72 0.72,-1.15 0,-0.66 -0.25,-1.14 -0.74,-1.44 -0.5,-0.3 -1.32,-0.59 -2.47,-0.87 -1.28,-0.31 -2.33,-0.65 -3.14,-1 -0.81,-0.35 -1.45,-0.82 -1.94,-1.4 -0.48,-0.57 -0.72,-1.28 -0.72,-2.12 0,-0.75 0.22,-1.46 0.67,-2.13 0.45,-0.67 1.11,-1.2 1.98,-1.59 0.87,-0.4 1.92,-0.6 3.16,-0.6 0.97,0 1.84,0.09 2.61,0.3 0.77,0.2 1.41,0.47 1.93,0.81 0.52,0.34 0.91,0.71 1.18,1.12 0.27,0.42 0.4,0.81 0.4,1.21 0,0.43 -0.14,0.78 -0.43,1.05 -0.29,0.28 -0.7,0.42 -1.23,0.42 -0.38,0 -0.71,-0.11 -0.98,-0.33 -0.27,-0.22 -0.58,-0.55 -0.93,-0.99 -0.28,-0.36 -0.61,-0.66 -0.99,-0.88 -0.39,-0.22 -0.91,-0.33 -1.57,-0.33 -0.67,0 -1.23,0.15 -1.68,0.43 -0.44,0.29 -0.67,0.65 -0.67,1.08 0,0.4 0.16,0.72 0.49,0.97 0.33,0.25 0.77,0.46 1.33,0.63 0.56,0.16 1.33,0.36 2.3,0.6 1.16,0.28 2.11,0.62 2.85,1.01 0.73,0.4 1.29,0.86 1.67,1.4 0.38,0.53 0.57,1.14 0.57,1.83zm13.61 -1.8l-7.32 0c0.01,0.85 0.18,1.6 0.51,2.25 0.33,0.65 0.78,1.14 1.33,1.47 0.55,0.33 1.17,0.49 1.83,0.49 0.45,0 0.86,-0.05 1.23,-0.16 0.37,-0.1 0.73,-0.26 1.07,-0.49 0.35,-0.22 0.67,-0.46 0.96,-0.72 0.3,-0.26 0.68,-0.6 1.14,-1.04 0.2,-0.17 0.47,-0.25 0.82,-0.25 0.39,0 0.7,0.11 0.94,0.32 0.23,0.2 0.35,0.5 0.35,0.89 0,0.33 -0.13,0.73 -0.39,1.18 -0.27,0.45 -0.67,0.89 -1.21,1.3 -0.53,0.41 -1.2,0.76 -2.01,1.03 -0.81,0.28 -1.74,0.41 -2.79,0.41 -2.4,0 -4.27,-0.69 -5.6,-2.06 -1.34,-1.37 -2,-3.22 -2,-5.57 0,-1.11 0.16,-2.14 0.49,-3.08 0.33,-0.95 0.81,-1.76 1.44,-2.44 0.63,-0.67 1.41,-1.19 2.33,-1.55 0.92,-0.36 1.94,-0.54 3.07,-0.54 1.46,0 2.72,0.31 3.76,0.92 1.05,0.62 1.83,1.42 2.35,2.4 0.52,0.98 0.78,1.98 0.78,2.99 0,0.94 -0.27,1.55 -0.81,1.83 -0.53,0.28 -1.29,0.42 -2.27,0.42zm-7.32 -2.13l6.78 0c-0.09,-1.28 -0.43,-2.23 -1.03,-2.87 -0.6,-0.63 -1.39,-0.95 -2.36,-0.95 -0.94,0 -1.7,0.32 -2.3,0.96 -0.6,0.65 -0.97,1.6 -1.09,2.86zm25.61 3.93c0,1.03 -0.26,1.91 -0.76,2.65 -0.5,0.73 -1.24,1.29 -2.22,1.67 -0.99,0.38 -2.18,0.56 -3.59,0.56 -1.34,0 -2.49,-0.2 -3.45,-0.61 -0.96,-0.41 -1.67,-0.93 -2.13,-1.54 -0.45,-0.62 -0.68,-1.23 -0.68,-1.86 0,-0.41 0.15,-0.76 0.44,-1.05 0.29,-0.29 0.66,-0.44 1.11,-0.44 0.39,0 0.69,0.1 0.9,0.29 0.21,0.19 0.41,0.46 0.61,0.81 0.38,0.66 0.84,1.17 1.37,1.49 0.54,0.33 1.26,0.5 2.19,0.5 0.75,0 1.36,-0.17 1.84,-0.5 0.48,-0.33 0.72,-0.72 0.72,-1.15 0,-0.66 -0.25,-1.14 -0.75,-1.44 -0.5,-0.3 -1.32,-0.59 -2.46,-0.87 -1.29,-0.31 -2.33,-0.65 -3.14,-1 -0.81,-0.35 -1.45,-0.82 -1.94,-1.4 -0.48,-0.57 -0.73,-1.28 -0.73,-2.12 0,-0.75 0.23,-1.46 0.67,-2.13 0.45,-0.67 1.11,-1.2 1.99,-1.59 0.87,-0.4 1.92,-0.6 3.16,-0.6 0.96,0 1.83,0.09 2.6,0.3 0.77,0.2 1.42,0.47 1.93,0.81 0.52,0.34 0.92,0.71 1.18,1.12 0.28,0.42 0.41,0.81 0.41,1.21 0,0.43 -0.14,0.78 -0.43,1.05 -0.29,0.28 -0.7,0.42 -1.23,0.42 -0.38,0 -0.71,-0.11 -0.98,-0.33 -0.27,-0.22 -0.58,-0.55 -0.93,-0.99 -0.28,-0.36 -0.61,-0.66 -1,-0.88 -0.38,-0.22 -0.9,-0.33 -1.56,-0.33 -0.67,0 -1.23,0.15 -1.68,0.43 -0.45,0.29 -0.67,0.65 -0.67,1.08 0,0.4 0.16,0.72 0.49,0.97 0.33,0.25 0.77,0.46 1.33,0.63 0.55,0.16 1.32,0.36 2.3,0.6 1.16,0.28 2.11,0.62 2.84,1.01 0.74,0.4 1.3,0.86 1.68,1.4 0.37,0.53 0.57,1.14 0.57,1.83zm23.3 2.27l-0.96 -2.52 -8.17 0 -0.96 2.57c-0.37,1 -0.69,1.68 -0.95,2.03 -0.27,0.36 -0.7,0.53 -1.31,0.53 -0.51,0 -0.96,-0.18 -1.35,-0.56 -0.4,-0.37 -0.59,-0.8 -0.59,-1.27 0,-0.28 0.04,-0.56 0.13,-0.85 0.1,-0.3 0.25,-0.7 0.46,-1.22l5.13 -13.05c0.15,-0.37 0.33,-0.82 0.53,-1.35 0.21,-0.53 0.43,-0.96 0.66,-1.31 0.24,-0.34 0.54,-0.62 0.92,-0.84 0.38,-0.21 0.85,-0.32 1.4,-0.32 0.57,0 1.05,0.11 1.43,0.32 0.38,0.22 0.68,0.49 0.91,0.83 0.24,0.34 0.43,0.7 0.59,1.09 0.16,0.39 0.37,0.91 0.61,1.55l5.25 12.97c0.41,0.99 0.62,1.7 0.62,2.15 0,0.46 -0.19,0.89 -0.58,1.28 -0.39,0.39 -0.86,0.58 -1.41,0.58 -0.32,0 -0.59,-0.05 -0.82,-0.17 -0.23,-0.11 -0.42,-0.27 -0.58,-0.46 -0.15,-0.2 -0.32,-0.5 -0.49,-0.91 -0.19,-0.4 -0.34,-0.76 -0.47,-1.07zm-8.06 -5.58l6.01 0 -3.03 -8.29 -2.98 8.29z"/>
    <path class="fil189" d="M313.25 134.43l0 10.87c0,1.24 -0.13,2.31 -0.39,3.2 -0.27,0.9 -0.69,1.64 -1.28,2.22 -0.58,0.59 -1.35,1.02 -2.29,1.31 -0.95,0.28 -2.13,0.42 -3.53,0.42 -1.29,0 -2.45,-0.18 -3.46,-0.54 -1.01,-0.36 -1.79,-0.83 -2.34,-1.4 -0.55,-0.57 -0.82,-1.16 -0.82,-1.76 0,-0.46 0.15,-0.83 0.46,-1.12 0.31,-0.28 0.69,-0.43 1.13,-0.43 0.55,0 1.03,0.24 1.44,0.73 0.2,0.24 0.41,0.49 0.62,0.74 0.22,0.25 0.45,0.46 0.71,0.64 0.26,0.18 0.58,0.32 0.94,0.4 0.37,0.09 0.79,0.13 1.26,0.13 0.97,0 1.72,-0.13 2.25,-0.4 0.54,-0.27 0.91,-0.65 1.12,-1.13 0.22,-0.49 0.35,-1.01 0.38,-1.56 0.04,-0.55 0.07,-1.43 0.08,-2.66 -0.57,0.8 -1.24,1.42 -1.99,1.83 -0.75,0.43 -1.65,0.64 -2.69,0.64 -1.25,0 -2.35,-0.32 -3.28,-0.96 -0.94,-0.64 -1.66,-1.54 -2.16,-2.69 -0.5,-1.15 -0.76,-2.48 -0.76,-3.99 0,-1.13 0.16,-2.14 0.46,-3.05 0.31,-0.9 0.75,-1.67 1.31,-2.28 0.57,-0.63 1.22,-1.09 1.96,-1.41 0.74,-0.32 1.56,-0.48 2.44,-0.48 1.06,0 1.98,0.21 2.76,0.62 0.77,0.4 1.49,1.05 2.16,1.92l0 -0.51c0,-0.65 0.16,-1.16 0.48,-1.52 0.32,-0.36 0.73,-0.53 1.24,-0.53 0.72,0 1.2,0.24 1.44,0.71 0.24,0.47 0.35,1.15 0.35,2.04zm-10.83 4.74c0,1.52 0.33,2.66 0.99,3.44 0.66,0.78 1.51,1.17 2.57,1.17 0.61,0 1.2,-0.17 1.76,-0.5 0.55,-0.34 1,-0.84 1.34,-1.51 0.35,-0.67 0.52,-1.49 0.52,-2.45 0,-1.52 -0.33,-2.71 -1,-3.56 -0.67,-0.85 -1.56,-1.28 -2.65,-1.28 -1.07,0 -1.92,0.41 -2.57,1.23 -0.64,0.81 -0.96,1.97 -0.96,3.46zm24.36 1.04l-7.32 0c0.01,0.85 0.18,1.6 0.52,2.25 0.33,0.65 0.77,1.14 1.33,1.47 0.55,0.33 1.16,0.49 1.83,0.49 0.44,0 0.85,-0.05 1.22,-0.16 0.38,-0.1 0.73,-0.26 1.08,-0.49 0.35,-0.22 0.67,-0.46 0.96,-0.72 0.29,-0.26 0.67,-0.6 1.14,-1.04 0.19,-0.17 0.46,-0.25 0.82,-0.25 0.38,0 0.69,0.11 0.93,0.32 0.24,0.2 0.36,0.5 0.36,0.89 0,0.33 -0.14,0.73 -0.4,1.18 -0.27,0.45 -0.66,0.89 -1.2,1.3 -0.53,0.41 -1.2,0.76 -2.01,1.03 -0.81,0.28 -1.74,0.41 -2.79,0.41 -2.41,0 -4.27,-0.69 -5.61,-2.06 -1.33,-1.37 -2,-3.22 -2,-5.57 0,-1.11 0.17,-2.14 0.5,-3.08 0.32,-0.95 0.81,-1.76 1.43,-2.44 0.63,-0.67 1.41,-1.19 2.33,-1.55 0.92,-0.36 1.95,-0.54 3.07,-0.54 1.47,0 2.72,0.31 3.76,0.92 1.05,0.62 1.83,1.42 2.36,2.4 0.52,0.98 0.78,1.98 0.78,2.99 0,0.94 -0.27,1.55 -0.81,1.83 -0.54,0.28 -1.3,0.42 -2.28,0.42zm-7.32 -2.13l6.79 0c-0.09,-1.28 -0.44,-2.23 -1.04,-2.87 -0.6,-0.63 -1.38,-0.95 -2.36,-0.95 -0.94,0 -1.7,0.32 -2.3,0.96 -0.6,0.65 -0.96,1.6 -1.09,2.86zm16.95 -4.34l0 0.46c0.66,-0.87 1.38,-1.51 2.17,-1.92 0.78,-0.4 1.68,-0.6 2.69,-0.6 0.99,0 1.87,0.21 2.65,0.64 0.78,0.43 1.36,1.04 1.74,1.82 0.25,0.46 0.41,0.95 0.48,1.49 0.07,0.52 0.11,1.2 0.11,2.02l0 6.97c0,0.75 -0.17,1.31 -0.51,1.7 -0.35,0.38 -0.8,0.57 -1.34,0.57 -0.56,0 -1.01,-0.19 -1.36,-0.59 -0.35,-0.39 -0.52,-0.95 -0.52,-1.68l0 -6.24c0,-1.23 -0.18,-2.18 -0.52,-2.83 -0.34,-0.65 -1.02,-0.98 -2.05,-0.98 -0.66,0 -1.27,0.19 -1.82,0.59 -0.55,0.4 -0.95,0.95 -1.21,1.64 -0.18,0.56 -0.27,1.6 -0.27,3.13l0 4.69c0,0.76 -0.18,1.32 -0.53,1.7 -0.35,0.38 -0.8,0.57 -1.36,0.57 -0.53,0 -0.98,-0.19 -1.33,-0.59 -0.34,-0.39 -0.52,-0.95 -0.52,-1.68l0 -10.82c0,-0.71 0.16,-1.24 0.47,-1.59 0.31,-0.36 0.73,-0.53 1.27,-0.53 0.33,0 0.63,0.08 0.89,0.23 0.27,0.16 0.48,0.39 0.64,0.7 0.16,0.31 0.23,0.69 0.23,1.13zm27 8.52c0,0.47 -0.14,0.97 -0.42,1.5 -0.28,0.53 -0.7,1.03 -1.28,1.51 -0.57,0.48 -1.29,0.86 -2.16,1.15 -0.86,0.3 -1.84,0.44 -2.93,0.44 -2.31,0 -4.12,-0.67 -5.41,-2.02 -1.31,-1.34 -1.96,-3.15 -1.96,-5.42 0,-1.53 0.3,-2.89 0.9,-4.07 0.59,-1.18 1.45,-2.09 2.58,-2.73 1.12,-0.65 2.47,-0.97 4.03,-0.97 0.97,0 1.86,0.14 2.67,0.42 0.8,0.29 1.49,0.65 2.05,1.1 0.56,0.45 0.99,0.93 1.29,1.44 0.3,0.51 0.45,0.98 0.45,1.42 0,0.45 -0.17,0.83 -0.5,1.14 -0.34,0.31 -0.74,0.46 -1.22,0.46 -0.31,0 -0.57,-0.08 -0.77,-0.24 -0.21,-0.15 -0.44,-0.41 -0.7,-0.77 -0.45,-0.69 -0.93,-1.21 -1.43,-1.56 -0.5,-0.35 -1.13,-0.52 -1.9,-0.52 -1.1,0 -1.99,0.43 -2.67,1.3 -0.68,0.86 -1.01,2.04 -1.01,3.53 0,0.71 0.08,1.35 0.26,1.94 0.17,0.59 0.42,1.1 0.75,1.51 0.33,0.41 0.73,0.73 1.19,0.94 0.47,0.22 0.98,0.33 1.54,0.33 0.75,0 1.39,-0.18 1.92,-0.52 0.54,-0.35 1.01,-0.88 1.42,-1.6 0.23,-0.42 0.48,-0.74 0.74,-0.98 0.27,-0.24 0.59,-0.36 0.98,-0.36 0.46,0 0.83,0.18 1.13,0.53 0.3,0.34 0.46,0.71 0.46,1.1zm5.98 5.11l0.34 -0.84 -4.6 -11.6c-0.29,-0.67 -0.43,-1.16 -0.43,-1.46 0,-0.31 0.09,-0.61 0.25,-0.89 0.17,-0.27 0.39,-0.49 0.68,-0.66 0.29,-0.16 0.59,-0.24 0.89,-0.24 0.55,0 0.95,0.17 1.23,0.51 0.27,0.34 0.51,0.83 0.72,1.47l3.17 9.22 3 -8.57c0.24,-0.7 0.45,-1.24 0.64,-1.63 0.2,-0.4 0.4,-0.66 0.61,-0.8 0.22,-0.13 0.52,-0.2 0.91,-0.2 0.28,0 0.56,0.07 0.82,0.22 0.26,0.16 0.46,0.36 0.6,0.61 0.14,0.26 0.21,0.53 0.21,0.81 -0.03,0.18 -0.09,0.42 -0.18,0.74 -0.08,0.32 -0.18,0.65 -0.29,0.98l-4.88 12.77c-0.43,1.13 -0.84,2.01 -1.24,2.65 -0.4,0.64 -0.93,1.14 -1.6,1.48 -0.66,0.34 -1.55,0.51 -2.67,0.51 -1.1,0 -1.92,-0.12 -2.47,-0.35 -0.55,-0.24 -0.82,-0.68 -0.82,-1.3 0,-0.44 0.13,-0.77 0.39,-1 0.26,-0.23 0.65,-0.35 1.16,-0.35 0.2,0 0.39,0.03 0.59,0.08 0.24,0.06 0.44,0.09 0.61,0.09 0.43,0 0.77,-0.07 1.01,-0.2 0.25,-0.12 0.47,-0.35 0.67,-0.66 0.2,-0.32 0.43,-0.78 0.68,-1.39z"/>
   </g>
  </g>
 </g>
</svg>
