<?xml version="1.0" encoding="UTF-8"?>
<!DOCTYPE svg PUBLIC "-//W3C//DTD SVG 1.1//EN" "http://www.w3.org/Graphics/SVG/1.1/DTD/svg11.dtd">
<!-- Creator: CorelDRAW 2021 (64-Bit) -->
<svg xmlns="http://www.w3.org/2000/svg" xml:space="preserve" width="606px" height="174px" version="1.1" style="shape-rendering:geometricPrecision; text-rendering:geometricPrecision; image-rendering:optimizeQuality; fill-rule:evenodd; clip-rule:evenodd"
viewBox="0 0 163.81 47.09"
 xmlns:xlink="http://www.w3.org/1999/xlink"
 xmlns:xodm="http://www.corel.com/coreldraw/odm/2003">
 <defs>
  <style type="text/css">
   <![CDATA[
    .fil2 {fill:none}
    .fil0 {fill:#6E1BE3;fill-rule:nonzero}
    .fil1 {fill:url(#id1);fill-rule:nonzero}
   ]]>
  </style>
   <clipPath id="id0">
    <path d="M0 0l163.81 0 0 47.09 -163.81 0 0 -47.09z"/>
   </clipPath>
  <linearGradient id="id1" gradientUnits="userSpaceOnUse" x1="1.91" y1="34.28" x2="39.12" y2="10.58">
   <stop offset="0" style="stop-opacity:1; stop-color:#6E1BE3"/>
   <stop offset="1" style="stop-opacity:1; stop-color:#F467DC"/>
  </linearGradient>
 </defs>
 <g id="Layer_x0020_1">
  <metadata id="CorelCorpID_0Corel-Layer"/>
  <g>
  </g>
  <g style="clip-path:url(#id0)">
   <g>
    <path class="fil0" d="M59.28 26.53c0,1.82 -0.02,3.91 -0.04,5.99l-0.01 0.59c0,0.15 -0.06,0.29 -0.16,0.39 -0.09,0.09 -0.22,0.15 -0.36,0.15l-2.17 0c-0.15,0 -0.28,-0.06 -0.37,-0.16 -0.1,-0.09 -0.16,-0.23 -0.16,-0.38l0 -7.11c-0.04,-0.16 -0.1,-0.32 -0.16,-0.47 -0.07,-0.17 -0.15,-0.33 -0.24,-0.47 -0.09,-0.15 -0.19,-0.29 -0.3,-0.42 -0.12,-0.14 -0.24,-0.26 -0.37,-0.37 -0.27,-0.23 -0.55,-0.4 -0.85,-0.51 -0.3,-0.11 -0.64,-0.16 -0.99,-0.16 -0.18,0 -0.36,0.01 -0.52,0.04 -0.16,0.03 -0.32,0.07 -0.47,0.12 -0.14,0.06 -0.29,0.13 -0.43,0.21 -0.14,0.09 -0.27,0.19 -0.4,0.3 -0.14,0.12 -0.26,0.25 -0.37,0.38 -0.12,0.13 -0.22,0.27 -0.31,0.42l-0.01 0.01c-0.09,0.14 -0.17,0.29 -0.24,0.45l-0.01 0.02c-0.06,0.13 -0.11,0.27 -0.16,0.42l-0.02 7.14c0,0.15 -0.06,0.29 -0.16,0.38 -0.09,0.1 -0.22,0.16 -0.37,0.16l-2.14 0 -0.08 -0.01 -0.13 -0.03 -0.06 -0.01c-0.1,-0.04 -0.18,-0.1 -0.24,-0.18l-0.02 -0.03c-0.06,-0.09 -0.09,-0.2 -0.09,-0.3l0 -18.91c0,-0.15 0.06,-0.28 0.15,-0.38 0.1,-0.1 0.23,-0.16 0.37,-0.16l2.27 0c0.14,0 0.27,0.06 0.37,0.16 0.09,0.1 0.15,0.23 0.15,0.38l0 6.86c0.13,-0.08 0.27,-0.16 0.43,-0.23 0.16,-0.08 0.31,-0.15 0.46,-0.21l0.03 -0.01c0.16,-0.06 0.31,-0.12 0.46,-0.16 0.16,-0.05 0.33,-0.09 0.5,-0.12 0.16,-0.03 0.34,-0.06 0.51,-0.07 0.19,-0.02 0.36,-0.03 0.53,-0.03 0.4,0 0.79,0.04 1.17,0.13 0.38,0.08 0.76,0.21 1.12,0.38 0.19,0.08 0.36,0.17 0.53,0.26 0.17,0.1 0.33,0.21 0.48,0.32 0.17,0.11 0.32,0.23 0.46,0.36l0.03 0.02c0.14,0.12 0.27,0.25 0.4,0.38 0.13,0.15 0.26,0.3 0.38,0.44l0.02 0.03c0.12,0.15 0.23,0.3 0.33,0.45l0.02 0.03c0.11,0.16 0.21,0.33 0.3,0.48 0.09,0.17 0.19,0.35 0.28,0.55l0.01 0.02c0.08,0.18 0.16,0.37 0.23,0.55 0.07,0.2 0.13,0.4 0.19,0.6 0.05,0.2 0.1,0.41 0.14,0.62 0.03,0.21 0.06,0.43 0.09,0.64l0 0.06zm13.52 -6.05l0 12.66c0,0.15 -0.06,0.28 -0.16,0.38 -0.09,0.1 -0.22,0.16 -0.37,0.16l-2.22 0c-0.14,0 -0.27,-0.06 -0.36,-0.16 -0.1,-0.1 -0.16,-0.23 -0.16,-0.38l0 -0.37 -0.01 0c-0.14,0.09 -0.3,0.18 -0.47,0.27 -0.16,0.08 -0.33,0.16 -0.49,0.22l-0.01 0.01c-0.17,0.06 -0.34,0.12 -0.52,0.17 -0.17,0.05 -0.35,0.1 -0.54,0.13 -0.19,0.04 -0.38,0.07 -0.56,0.08 -0.19,0.02 -0.39,0.03 -0.58,0.03 -0.43,0 -0.86,-0.05 -1.27,-0.14 -0.21,-0.04 -0.41,-0.1 -0.62,-0.17 -0.2,-0.06 -0.4,-0.14 -0.59,-0.23 -0.19,-0.09 -0.38,-0.19 -0.57,-0.29l-0.02 -0.02c-0.17,-0.1 -0.34,-0.21 -0.5,-0.32 -0.17,-0.12 -0.33,-0.26 -0.49,-0.39 -0.16,-0.14 -0.31,-0.29 -0.45,-0.44 -0.15,-0.15 -0.28,-0.31 -0.41,-0.48l-0.02 -0.03c-0.13,-0.16 -0.24,-0.33 -0.35,-0.49l-0.01 -0.03c-0.11,-0.17 -0.21,-0.35 -0.31,-0.54 -0.09,-0.19 -0.19,-0.39 -0.27,-0.59 -0.08,-0.21 -0.15,-0.43 -0.22,-0.64 -0.06,-0.21 -0.11,-0.43 -0.15,-0.66 -0.05,-0.21 -0.08,-0.44 -0.1,-0.68 -0.02,-0.24 -0.03,-0.47 -0.03,-0.7 0,-0.22 0.01,-0.45 0.03,-0.68 0.02,-0.24 0.05,-0.46 0.1,-0.67 0.04,-0.21 0.09,-0.43 0.15,-0.65 0.07,-0.21 0.14,-0.42 0.23,-0.63 0.08,-0.21 0.17,-0.41 0.27,-0.6 0.1,-0.19 0.2,-0.37 0.32,-0.55 0.1,-0.17 0.22,-0.35 0.36,-0.52 0.13,-0.17 0.26,-0.33 0.41,-0.48 0.14,-0.16 0.29,-0.3 0.45,-0.44 0.15,-0.14 0.32,-0.27 0.49,-0.39 0.17,-0.12 0.35,-0.24 0.52,-0.34 0.19,-0.1 0.38,-0.2 0.57,-0.29 0.19,-0.09 0.39,-0.17 0.59,-0.24 0.21,-0.06 0.41,-0.12 0.62,-0.16 0.2,-0.05 0.41,-0.08 0.62,-0.1 0.22,-0.03 0.44,-0.04 0.65,-0.04 0.19,0 0.39,0.01 0.58,0.03 0.18,0.01 0.37,0.04 0.56,0.08 0.19,0.03 0.38,0.07 0.55,0.12 0.18,0.06 0.36,0.12 0.52,0.19l0.02 0.01c0.16,0.06 0.31,0.13 0.47,0.21 0.17,0.09 0.33,0.18 0.47,0.26l0.01 0.01 0 -0.49c0,-0.15 0.06,-0.29 0.16,-0.39 0.09,-0.09 0.22,-0.16 0.36,-0.16l2.22 0c0.15,0 0.28,0.07 0.37,0.16 0.1,0.1 0.16,0.24 0.16,0.39zm-6.45 9.81c0.2,0 0.4,-0.01 0.59,-0.05 0.19,-0.04 0.37,-0.09 0.55,-0.17 0.1,-0.04 0.2,-0.08 0.27,-0.12 0.09,-0.05 0.18,-0.1 0.25,-0.15 0.07,-0.04 0.15,-0.1 0.23,-0.17l0.02 -0.01c0.07,-0.05 0.14,-0.11 0.2,-0.17 0.07,-0.07 0.14,-0.14 0.2,-0.21 0.06,-0.06 0.13,-0.14 0.19,-0.22l0.17 -0.24c0.05,-0.1 0.1,-0.18 0.15,-0.27 0.05,-0.09 0.09,-0.18 0.13,-0.28 0.04,-0.09 0.07,-0.19 0.1,-0.29l0.01 -0.02c0.03,-0.09 0.05,-0.18 0.07,-0.28l0.05 -0.27 0 -1c-0.01,-0.09 -0.03,-0.18 -0.05,-0.27 -0.02,-0.11 -0.05,-0.21 -0.08,-0.3 -0.03,-0.1 -0.06,-0.2 -0.1,-0.29 -0.04,-0.1 -0.08,-0.19 -0.13,-0.28 -0.05,-0.09 -0.1,-0.18 -0.15,-0.27 -0.06,-0.08 -0.12,-0.17 -0.17,-0.24 -0.06,-0.08 -0.13,-0.16 -0.19,-0.23 -0.06,-0.06 -0.13,-0.13 -0.2,-0.2 -0.07,-0.07 -0.14,-0.13 -0.22,-0.19 -0.08,-0.06 -0.16,-0.12 -0.23,-0.16 -0.07,-0.05 -0.16,-0.1 -0.25,-0.15 -0.08,-0.04 -0.19,-0.09 -0.28,-0.13 -0.18,-0.07 -0.36,-0.12 -0.54,-0.16 -0.19,-0.04 -0.39,-0.06 -0.59,-0.06 -0.22,0 -0.43,0.03 -0.63,0.07l-0.02 0c-0.09,0.02 -0.19,0.05 -0.29,0.08 -0.1,0.04 -0.2,0.08 -0.29,0.12 -0.2,0.09 -0.38,0.2 -0.56,0.32 -0.17,0.12 -0.33,0.26 -0.48,0.42 -0.07,0.07 -0.14,0.15 -0.21,0.23l-0.01 0.03c-0.06,0.07 -0.12,0.15 -0.17,0.23l-0.01 0.01c-0.05,0.09 -0.1,0.18 -0.15,0.27l-0.01 0.02c-0.05,0.09 -0.09,0.18 -0.13,0.28l-0.01 0.03c-0.04,0.1 -0.07,0.19 -0.1,0.29 -0.03,0.1 -0.06,0.21 -0.08,0.32 -0.02,0.12 -0.04,0.23 -0.05,0.34 -0.01,0.1 -0.01,0.22 -0.01,0.34 0,0.25 0.02,0.48 0.06,0.71l0 0c0.02,0.11 0.05,0.22 0.08,0.33l0.01 0.03c0.03,0.09 0.06,0.18 0.1,0.28l0.01 0.02c0.04,0.1 0.08,0.19 0.13,0.28 0.04,0.1 0.1,0.19 0.16,0.29 0.06,0.09 0.12,0.18 0.19,0.26 0.06,0.09 0.13,0.17 0.2,0.24 0.08,0.08 0.16,0.16 0.24,0.23 0.07,0.06 0.16,0.13 0.25,0.19l0.01 0.02c0.08,0.05 0.16,0.11 0.25,0.16 0.1,0.05 0.2,0.11 0.29,0.15 0.09,0.04 0.19,0.08 0.29,0.11 0.11,0.04 0.21,0.07 0.31,0.09 0.1,0.02 0.21,0.04 0.31,0.05l0.01 0c0.09,0.01 0.19,0.01 0.31,0.01zm17.06 -0.95l1.02 2.25c0.06,0.14 0.07,0.28 0.02,0.41 -0.04,0.13 -0.14,0.25 -0.27,0.31l-0.21 0.09c-0.27,0.2 -0.55,0.38 -0.83,0.53 -0.3,0.16 -0.61,0.29 -0.92,0.4 -0.31,0.1 -0.63,0.19 -0.96,0.24 -0.34,0.06 -0.67,0.08 -1.01,0.08 -0.21,0 -0.44,-0.01 -0.67,-0.03 -0.22,-0.02 -0.44,-0.06 -0.66,-0.1 -0.21,-0.04 -0.42,-0.1 -0.63,-0.17 -0.21,-0.07 -0.42,-0.15 -0.62,-0.23 -0.2,-0.09 -0.39,-0.19 -0.58,-0.3 -0.19,-0.1 -0.37,-0.21 -0.54,-0.33 -0.18,-0.13 -0.35,-0.26 -0.51,-0.4 -0.17,-0.14 -0.33,-0.29 -0.47,-0.44 -0.15,-0.15 -0.29,-0.31 -0.43,-0.48 -0.13,-0.17 -0.26,-0.35 -0.38,-0.53 -0.11,-0.17 -0.22,-0.36 -0.33,-0.56 -0.1,-0.2 -0.2,-0.4 -0.28,-0.6l-0.01 -0.03c-0.08,-0.2 -0.15,-0.4 -0.22,-0.62 -0.06,-0.21 -0.12,-0.43 -0.16,-0.65l0 -0.03c-0.04,-0.21 -0.07,-0.43 -0.09,-0.66 -0.03,-0.23 -0.04,-0.46 -0.04,-0.68 0,-0.23 0.01,-0.46 0.04,-0.7 0.02,-0.23 0.05,-0.45 0.09,-0.68 0.05,-0.22 0.1,-0.44 0.16,-0.65 0.07,-0.21 0.14,-0.42 0.23,-0.63 0.09,-0.21 0.18,-0.41 0.28,-0.6 0.1,-0.19 0.22,-0.38 0.34,-0.56 0.11,-0.18 0.24,-0.35 0.37,-0.52 0.14,-0.16 0.28,-0.32 0.43,-0.48 0.15,-0.15 0.31,-0.29 0.47,-0.43 0.16,-0.14 0.33,-0.27 0.51,-0.39 0.17,-0.12 0.35,-0.23 0.54,-0.33 0.19,-0.11 0.38,-0.21 0.58,-0.29 0.2,-0.09 0.41,-0.17 0.62,-0.24 0.21,-0.07 0.42,-0.12 0.63,-0.17l0.02 0c0.2,-0.04 0.41,-0.07 0.64,-0.1 0.23,-0.02 0.46,-0.03 0.67,-0.03 0.69,0 1.35,0.1 1.97,0.31 0.62,0.2 1.21,0.5 1.77,0.89l0.2 0.11c0.13,0.06 0.22,0.18 0.27,0.31 0.04,0.13 0.03,0.27 -0.03,0.41l-1.02 2.16c-0.07,0.13 -0.18,0.23 -0.3,0.27 -0.13,0.05 -0.27,0.04 -0.4,-0.02l-0.03 -0.02c-0.06,-0.03 -0.14,-0.09 -0.21,-0.14l-0.43 -0.34c-0.07,-0.05 -0.15,-0.1 -0.22,-0.15 -0.08,-0.04 -0.16,-0.08 -0.24,-0.12 -0.07,-0.04 -0.16,-0.07 -0.25,-0.1 -0.09,-0.03 -0.18,-0.06 -0.27,-0.08 -0.08,-0.03 -0.18,-0.05 -0.26,-0.06 -0.09,-0.02 -0.18,-0.03 -0.27,-0.04 -0.09,0 -0.18,-0.01 -0.28,-0.01 -0.12,0 -0.24,0.01 -0.34,0.02 -0.11,0.01 -0.22,0.03 -0.33,0.05 -0.1,0.02 -0.2,0.05 -0.31,0.08 -0.11,0.04 -0.21,0.08 -0.31,0.12 -0.2,0.09 -0.39,0.2 -0.56,0.32 -0.18,0.13 -0.34,0.26 -0.48,0.42 -0.15,0.15 -0.28,0.32 -0.4,0.5 -0.12,0.18 -0.23,0.37 -0.31,0.58 -0.05,0.11 -0.09,0.21 -0.12,0.31 -0.03,0.11 -0.06,0.22 -0.08,0.33l0 0.01c-0.02,0.1 -0.04,0.21 -0.05,0.32 -0.01,0.1 -0.01,0.22 -0.01,0.34 0,0.25 0.02,0.49 0.06,0.7l0 0.02c0.02,0.09 0.05,0.2 0.08,0.31 0.04,0.11 0.08,0.21 0.12,0.31 0.08,0.21 0.19,0.4 0.31,0.59 0.12,0.18 0.25,0.35 0.39,0.5 0.09,0.08 0.16,0.15 0.24,0.22 0.07,0.06 0.16,0.12 0.25,0.19l0.01 0.01c0.09,0.06 0.17,0.11 0.26,0.16 0.1,0.06 0.19,0.11 0.29,0.15 0.1,0.04 0.2,0.08 0.31,0.12 0.11,0.03 0.21,0.06 0.31,0.08 0.11,0.03 0.22,0.04 0.33,0.05l0.01 0.01c0.1,0 0.21,0.01 0.33,0.01 0.39,0 0.76,-0.07 1.1,-0.19 0.34,-0.13 0.66,-0.32 0.96,-0.58l0.26 -0.26c0.1,-0.1 0.23,-0.16 0.37,-0.16 0.13,0 0.26,0.06 0.37,0.16 0.02,0.02 0.04,0.05 0.06,0.08l0.04 0.07zm14.25 -2.79c0,1.91 -0.02,3.81 -0.04,5.72l-0.01 0.84c0,0.15 -0.06,0.29 -0.16,0.39 -0.09,0.09 -0.22,0.15 -0.36,0.15l-2.17 0c-0.15,0 -0.28,-0.06 -0.37,-0.16 -0.1,-0.09 -0.16,-0.23 -0.16,-0.38l0 -7.11c-0.04,-0.16 -0.1,-0.32 -0.16,-0.47 -0.07,-0.17 -0.15,-0.33 -0.24,-0.47 -0.09,-0.15 -0.19,-0.29 -0.3,-0.42 -0.12,-0.14 -0.24,-0.26 -0.37,-0.37 -0.27,-0.23 -0.55,-0.4 -0.85,-0.51 -0.31,-0.11 -0.64,-0.16 -0.99,-0.16 -0.18,0 -0.36,0.01 -0.52,0.04 -0.16,0.03 -0.32,0.07 -0.47,0.12 -0.15,0.06 -0.29,0.13 -0.43,0.21 -0.14,0.09 -0.27,0.19 -0.4,0.3 -0.14,0.12 -0.26,0.25 -0.37,0.38 -0.12,0.13 -0.22,0.27 -0.31,0.42l-0.01 0.01c-0.09,0.14 -0.17,0.29 -0.24,0.45l-0.01 0.02c-0.06,0.13 -0.11,0.27 -0.16,0.42l-0.03 7.14c0.01,0.15 -0.05,0.29 -0.15,0.38 -0.09,0.1 -0.22,0.16 -0.37,0.16l-2.14 0 -0.08 -0.01 -0.13 -0.03 -0.06 -0.01c-0.1,-0.04 -0.18,-0.1 -0.24,-0.18l-0.02 -0.03c-0.06,-0.09 -0.09,-0.2 -0.09,-0.3l0 -18.91c0,-0.15 0.06,-0.28 0.15,-0.38 0.09,-0.1 0.23,-0.16 0.37,-0.16l2.27 0c0.14,0 0.27,0.06 0.37,0.16 0.09,0.1 0.15,0.23 0.15,0.38l0 6.86c0.13,-0.08 0.27,-0.16 0.43,-0.23 0.16,-0.08 0.31,-0.15 0.45,-0.21l0.04 -0.01c0.16,-0.06 0.31,-0.12 0.46,-0.16 0.16,-0.05 0.33,-0.09 0.5,-0.12 0.16,-0.03 0.33,-0.06 0.51,-0.07 0.19,-0.02 0.36,-0.03 0.53,-0.03 0.4,0 0.79,0.04 1.17,0.13 0.38,0.08 0.76,0.21 1.12,0.38 0.19,0.08 0.36,0.17 0.53,0.26 0.17,0.1 0.33,0.21 0.48,0.32 0.16,0.11 0.32,0.23 0.46,0.36l0.03 0.02c0.14,0.12 0.27,0.25 0.4,0.38 0.13,0.15 0.26,0.3 0.38,0.44l0.02 0.03c0.12,0.15 0.23,0.3 0.33,0.45l0.02 0.03c0.11,0.16 0.21,0.33 0.3,0.48 0.09,0.17 0.19,0.35 0.28,0.55l0.01 0.02c0.08,0.18 0.16,0.37 0.23,0.55 0.07,0.2 0.13,0.4 0.18,0.6 0.06,0.2 0.11,0.41 0.15,0.62 0.03,0.21 0.06,0.43 0.09,0.64l0 0.08zm5.68 -1.63c0.31,0.03 0.61,0.09 0.89,0.16 0.28,0.08 0.55,0.18 0.8,0.29l0.01 0c0.25,0.12 0.49,0.25 0.71,0.41 0.22,0.15 0.43,0.33 0.62,0.53 0.19,0.19 0.36,0.41 0.51,0.63 0.15,0.23 0.27,0.47 0.37,0.71 0.1,0.25 0.17,0.51 0.22,0.78 0.05,0.28 0.07,0.55 0.07,0.84 0,0.14 -0.01,0.28 -0.02,0.44 -0.01,0.14 -0.04,0.29 -0.06,0.43l-0.01 0.01c-0.03,0.15 -0.06,0.29 -0.1,0.42 -0.04,0.13 -0.09,0.27 -0.14,0.4 -0.06,0.13 -0.12,0.26 -0.19,0.39 -0.06,0.13 -0.14,0.25 -0.21,0.37l-0.01 0.02c-0.07,0.1 -0.15,0.21 -0.24,0.32 -0.09,0.11 -0.18,0.21 -0.28,0.3 -0.09,0.1 -0.19,0.19 -0.3,0.28 -0.11,0.09 -0.22,0.18 -0.33,0.25 -0.11,0.08 -0.23,0.15 -0.36,0.22 -0.12,0.07 -0.24,0.13 -0.38,0.19l-0.01 0c-0.13,0.06 -0.26,0.11 -0.39,0.15 -0.14,0.04 -0.28,0.08 -0.42,0.11 -0.13,0.02 -0.28,0.05 -0.43,0.06 -0.16,0.02 -0.31,0.02 -0.45,0.02l-0.48 0c-0.2,0 -0.41,-0.01 -0.62,-0.03 -0.2,-0.03 -0.4,-0.06 -0.59,-0.11 -0.2,-0.04 -0.4,-0.1 -0.59,-0.17 -0.19,-0.07 -0.38,-0.15 -0.56,-0.25 -0.19,-0.09 -0.37,-0.19 -0.54,-0.3 -0.17,-0.12 -0.33,-0.24 -0.47,-0.36 -0.15,-0.13 -0.29,-0.27 -0.42,-0.42 -0.12,-0.13 -0.23,-0.29 -0.34,-0.45l-0.1 -0.12c-0.08,-0.09 -0.12,-0.2 -0.12,-0.31l0 -0.05c0,-0.09 0.02,-0.18 0.06,-0.26l1.03 -1.82c0.07,-0.13 0.19,-0.22 0.32,-0.25 0.13,-0.04 0.27,-0.02 0.39,0.05l0.02 0.01c0.03,0.03 0.06,0.05 0.09,0.08 0.12,0.14 0.24,0.37 0.35,0.53 0.05,0.09 0.11,0.17 0.17,0.24 0.06,0.07 0.13,0.14 0.21,0.2 0.08,0.06 0.16,0.12 0.26,0.18l0.02 0.01c0.09,0.05 0.19,0.09 0.29,0.13 0.11,0.04 0.23,0.08 0.36,0.12 0.14,0.03 0.27,0.06 0.39,0.09 0.13,0.02 0.27,0.04 0.41,0.06 0.14,0.01 0.28,0.02 0.42,0.02l0.04 0c0.1,0 0.19,-0.01 0.27,-0.02 0.09,-0.02 0.17,-0.04 0.24,-0.07 0.07,-0.02 0.14,-0.06 0.2,-0.1 0.06,-0.05 0.13,-0.1 0.19,-0.16 0.06,-0.06 0.11,-0.12 0.15,-0.19 0.04,-0.06 0.08,-0.12 0.1,-0.19 0.03,-0.07 0.05,-0.14 0.07,-0.22 0.01,-0.08 0.02,-0.16 0.02,-0.25 0,-0.08 -0.01,-0.15 -0.02,-0.21 -0.01,-0.07 -0.03,-0.13 -0.05,-0.18 -0.01,-0.04 -0.04,-0.09 -0.07,-0.13 -0.03,-0.05 -0.07,-0.09 -0.11,-0.13 -0.04,-0.04 -0.09,-0.08 -0.15,-0.11 -0.07,-0.04 -0.14,-0.08 -0.23,-0.11 -0.1,-0.04 -0.21,-0.08 -0.33,-0.11l-0.01 0c-0.11,-0.03 -0.24,-0.05 -0.38,-0.07 -0.25,-0.02 -0.5,-0.04 -0.74,-0.09 -0.26,-0.04 -0.53,-0.1 -0.79,-0.19 -0.13,-0.04 -0.27,-0.08 -0.4,-0.14 -0.13,-0.04 -0.26,-0.1 -0.39,-0.17 -0.13,-0.06 -0.25,-0.13 -0.37,-0.2 -0.11,-0.07 -0.23,-0.15 -0.34,-0.23 -0.11,-0.09 -0.22,-0.18 -0.33,-0.27 -0.1,-0.1 -0.2,-0.2 -0.29,-0.3 -0.1,-0.1 -0.19,-0.21 -0.27,-0.32 -0.08,-0.11 -0.16,-0.23 -0.24,-0.35 -0.08,-0.14 -0.15,-0.28 -0.21,-0.41 -0.05,-0.14 -0.1,-0.29 -0.14,-0.45 -0.04,-0.15 -0.07,-0.31 -0.09,-0.47 -0.02,-0.16 -0.03,-0.32 -0.03,-0.49 0,-0.29 0.03,-0.57 0.08,-0.84l0 -0.02c0.05,-0.26 0.13,-0.52 0.23,-0.77 0.05,-0.13 0.11,-0.25 0.17,-0.37 0.06,-0.13 0.13,-0.24 0.2,-0.35l0.01 -0.03c0.07,-0.11 0.14,-0.21 0.22,-0.3 0.07,-0.1 0.16,-0.2 0.25,-0.3 0.09,-0.09 0.19,-0.19 0.28,-0.27 0.1,-0.09 0.2,-0.17 0.31,-0.25 0.1,-0.07 0.21,-0.15 0.32,-0.21l0.03 -0.01c0.1,-0.06 0.21,-0.12 0.32,-0.17l0.02 -0.01c0.11,-0.05 0.23,-0.1 0.35,-0.14 0.12,-0.04 0.25,-0.08 0.38,-0.11l0.02 0c0.12,-0.02 0.24,-0.05 0.37,-0.06 0.14,-0.01 0.28,-0.02 0.4,-0.02l0.25 0c0.16,0 0.34,0.01 0.52,0.03 0.16,0.02 0.33,0.05 0.51,0.09 0.16,0.03 0.33,0.08 0.5,0.14 0.17,0.06 0.34,0.13 0.51,0.2 0.16,0.08 0.32,0.16 0.47,0.25 0.15,0.09 0.29,0.19 0.43,0.29 0.13,0.1 0.26,0.21 0.38,0.32 0.12,0.12 0.23,0.24 0.32,0.37l0.14 0.17c0.07,0.08 0.12,0.19 0.13,0.29 0.01,0.11 -0.01,0.22 -0.07,0.32l-1.09 2.02c-0.07,0.13 -0.19,0.22 -0.32,0.26l0 0c-0.13,0.04 -0.27,0.02 -0.39,-0.05 -0.18,-0.12 -0.3,-0.31 -0.44,-0.47 -0.12,-0.15 -0.25,-0.29 -0.39,-0.4l-0.02 -0.02c-0.12,-0.1 -0.25,-0.19 -0.37,-0.26 -0.13,-0.07 -0.27,-0.12 -0.4,-0.16 -0.14,-0.04 -0.28,-0.06 -0.42,-0.06 -0.08,0 -0.15,0.01 -0.22,0.02 -0.07,0.01 -0.14,0.02 -0.2,0.04 -0.07,0.03 -0.13,0.05 -0.19,0.08l-0.02 0.01c-0.05,0.03 -0.1,0.06 -0.15,0.1 -0.05,0.04 -0.08,0.07 -0.11,0.11 -0.03,0.03 -0.06,0.08 -0.08,0.12l-0.01 0.02c-0.02,0.05 -0.03,0.1 -0.04,0.16 -0.01,0.07 -0.02,0.15 -0.02,0.24 0.01,0.1 0.01,0.22 0.06,0.31 0.1,0.1 0.15,0.13 0.28,0.2 0.11,0.05 0.19,0.08 0.3,0.12 0.16,0.04 0.26,0.07 0.42,0.1l0.28 0.03 0.36 0.02zm13.91 -4.44l0 2.4c0,0.15 -0.06,0.28 -0.15,0.38 -0.09,0.1 -0.23,0.16 -0.37,0.16l-2.67 0 0 9.72c0,0.15 -0.06,0.28 -0.16,0.38 -0.09,0.1 -0.22,0.16 -0.37,0.16l-2.26 0c-0.15,0 -0.28,-0.06 -0.37,-0.16 -0.1,-0.1 -0.16,-0.23 -0.16,-0.38l0 -9.72 -2.79 0c-0.15,0 -0.28,-0.06 -0.37,-0.16 -0.09,-0.1 -0.15,-0.23 -0.15,-0.38l0 -2.4c0,-0.15 0.06,-0.29 0.15,-0.39 0.09,-0.09 0.22,-0.16 0.37,-0.16l2.79 0 0 -5.75c0,-0.15 0.06,-0.28 0.16,-0.38 0.09,-0.1 0.22,-0.16 0.37,-0.16l2.26 0c0.15,0 0.28,0.06 0.37,0.16 0.1,0.1 0.16,0.23 0.16,0.38l0 5.75 2.67 0c0.14,0 0.28,0.07 0.37,0.16 0.09,0.1 0.15,0.24 0.15,0.39zm12.57 0l0 12.66c0,0.15 -0.06,0.28 -0.15,0.38 -0.1,0.1 -0.23,0.16 -0.37,0.16l-2.22 0c-0.15,0 -0.28,-0.06 -0.37,-0.16 -0.1,-0.1 -0.16,-0.23 -0.16,-0.38l0 -0.37 -0.01 0c-0.14,0.09 -0.3,0.18 -0.47,0.27 -0.16,0.08 -0.33,0.16 -0.49,0.22l-0.01 0.01c-0.17,0.06 -0.34,0.12 -0.51,0.17 -0.18,0.05 -0.36,0.1 -0.54,0.13 -0.2,0.04 -0.39,0.07 -0.57,0.08 -0.19,0.02 -0.39,0.03 -0.58,0.03 -0.21,0 -0.42,-0.01 -0.64,-0.04l-0.01 0c-0.22,-0.02 -0.42,-0.05 -0.62,-0.1 -0.21,-0.04 -0.41,-0.1 -0.61,-0.17 -0.21,-0.06 -0.41,-0.14 -0.6,-0.23 -0.19,-0.09 -0.38,-0.19 -0.56,-0.29l-0.02 -0.02c-0.18,-0.1 -0.35,-0.21 -0.51,-0.32 -0.17,-0.12 -0.33,-0.26 -0.49,-0.39 -0.16,-0.14 -0.31,-0.29 -0.45,-0.44 -0.14,-0.15 -0.28,-0.31 -0.41,-0.48l-0.02 -0.03c-0.13,-0.16 -0.24,-0.33 -0.34,-0.49l-0.02 -0.03c-0.11,-0.17 -0.21,-0.35 -0.3,-0.54 -0.1,-0.19 -0.19,-0.39 -0.27,-0.59 -0.09,-0.21 -0.16,-0.43 -0.23,-0.64l0 -0.03c-0.06,-0.21 -0.11,-0.42 -0.15,-0.63 -0.04,-0.21 -0.07,-0.44 -0.1,-0.68 -0.02,-0.24 -0.03,-0.47 -0.03,-0.7 0,-0.22 0.01,-0.45 0.03,-0.68 0.03,-0.24 0.06,-0.46 0.1,-0.67 0.04,-0.21 0.09,-0.43 0.16,-0.65 0.06,-0.21 0.13,-0.42 0.22,-0.63 0.08,-0.21 0.18,-0.41 0.27,-0.6 0.1,-0.19 0.2,-0.37 0.32,-0.55 0.1,-0.17 0.23,-0.35 0.36,-0.52 0.13,-0.17 0.27,-0.33 0.41,-0.48 0.14,-0.16 0.29,-0.3 0.45,-0.44 0.16,-0.14 0.32,-0.27 0.49,-0.39 0.17,-0.12 0.35,-0.24 0.53,-0.34 0.18,-0.1 0.37,-0.2 0.56,-0.29 0.19,-0.09 0.39,-0.17 0.6,-0.24 0.2,-0.06 0.4,-0.12 0.61,-0.16 0.2,-0.05 0.41,-0.08 0.63,-0.1 0.22,-0.03 0.43,-0.04 0.64,-0.04 0.19,0 0.39,0.01 0.58,0.03 0.18,0.01 0.37,0.04 0.57,0.08 0.18,0.03 0.37,0.07 0.54,0.12 0.18,0.06 0.36,0.12 0.53,0.19l0.01 0.01c0.16,0.06 0.31,0.13 0.47,0.21 0.17,0.09 0.33,0.18 0.47,0.26l0.01 0.01 0 -0.49c0,-0.15 0.06,-0.29 0.16,-0.39 0.09,-0.09 0.22,-0.16 0.37,-0.16l2.22 0c0.14,0 0.27,0.07 0.37,0.16 0.09,0.1 0.15,0.24 0.15,0.39zm-6.45 9.81c0.21,0 0.4,-0.01 0.59,-0.05 0.19,-0.04 0.38,-0.09 0.55,-0.17 0.11,-0.04 0.2,-0.08 0.27,-0.12 0.09,-0.05 0.18,-0.1 0.25,-0.15 0.07,-0.04 0.15,-0.1 0.24,-0.17l0.21 -0.18c0.08,-0.07 0.14,-0.14 0.21,-0.21 0.06,-0.06 0.12,-0.14 0.18,-0.22 0.06,-0.08 0.12,-0.16 0.17,-0.24 0.05,-0.09 0.1,-0.18 0.15,-0.27 0.05,-0.09 0.09,-0.18 0.13,-0.28 0.04,-0.09 0.07,-0.19 0.1,-0.29l0.01 -0.03c0.03,-0.08 0.05,-0.17 0.07,-0.27l0.05 -0.27 0 -1c-0.01,-0.09 -0.03,-0.18 -0.05,-0.27 -0.02,-0.11 -0.05,-0.21 -0.08,-0.3 -0.03,-0.1 -0.06,-0.2 -0.1,-0.29 -0.04,-0.1 -0.08,-0.19 -0.13,-0.28 -0.05,-0.09 -0.1,-0.18 -0.15,-0.27 -0.06,-0.08 -0.11,-0.17 -0.17,-0.24 -0.06,-0.08 -0.12,-0.16 -0.18,-0.22 -0.07,-0.07 -0.13,-0.14 -0.21,-0.21 -0.07,-0.07 -0.14,-0.13 -0.21,-0.19 -0.09,-0.06 -0.17,-0.12 -0.24,-0.16 -0.07,-0.05 -0.16,-0.1 -0.25,-0.15 -0.08,-0.04 -0.19,-0.09 -0.28,-0.13 -0.18,-0.07 -0.36,-0.12 -0.54,-0.16 -0.19,-0.04 -0.38,-0.06 -0.59,-0.06 -0.12,0 -0.23,0.01 -0.32,0.02 -0.1,0.01 -0.21,0.03 -0.31,0.05l-0.01 0c-0.1,0.02 -0.2,0.05 -0.29,0.08 -0.11,0.04 -0.21,0.08 -0.3,0.12 -0.2,0.09 -0.38,0.2 -0.56,0.32 -0.17,0.12 -0.33,0.26 -0.48,0.42 -0.07,0.07 -0.14,0.15 -0.2,0.23l-0.02 0.03c-0.06,0.07 -0.12,0.15 -0.17,0.23l0 0.01c-0.06,0.09 -0.11,0.18 -0.16,0.27l-0.01 0.02c-0.05,0.09 -0.09,0.18 -0.13,0.28 -0.04,0.11 -0.08,0.22 -0.11,0.32l-0.01 0.01c-0.02,0.1 -0.05,0.2 -0.07,0.31 -0.02,0.12 -0.04,0.23 -0.05,0.34 -0.01,0.1 -0.01,0.22 -0.01,0.34 0,0.25 0.02,0.48 0.06,0.71l0 0c0.02,0.11 0.05,0.22 0.08,0.33l0.01 0.03c0.03,0.09 0.06,0.18 0.1,0.28l0.01 0.02c0.04,0.1 0.08,0.19 0.13,0.28 0.05,0.1 0.1,0.19 0.16,0.29 0.06,0.09 0.12,0.18 0.19,0.26 0.06,0.09 0.13,0.17 0.21,0.24 0.07,0.08 0.15,0.16 0.23,0.23 0.07,0.06 0.16,0.13 0.25,0.19l0.01 0.02c0.08,0.05 0.17,0.11 0.25,0.16 0.1,0.05 0.2,0.11 0.29,0.15 0.09,0.04 0.19,0.08 0.3,0.11 0.1,0.04 0.2,0.07 0.3,0.09 0.1,0.02 0.21,0.04 0.31,0.05l0.01 0c0.09,0.01 0.2,0.01 0.31,0.01zm17.06 -0.95l1.03 2.25c0.06,0.14 0.06,0.28 0.01,0.41 -0.04,0.13 -0.13,0.25 -0.27,0.31l-0.21 0.09c-0.27,0.2 -0.55,0.38 -0.83,0.53 -0.3,0.16 -0.61,0.29 -0.92,0.4 -0.31,0.1 -0.63,0.19 -0.96,0.24 -0.34,0.06 -0.67,0.08 -1,0.08 -0.22,0 -0.45,-0.01 -0.68,-0.03 -0.22,-0.02 -0.44,-0.06 -0.66,-0.1 -0.2,-0.04 -0.42,-0.1 -0.63,-0.17 -0.21,-0.07 -0.42,-0.15 -0.62,-0.23 -0.2,-0.09 -0.39,-0.19 -0.58,-0.3 -0.19,-0.1 -0.37,-0.21 -0.54,-0.33 -0.18,-0.13 -0.35,-0.26 -0.51,-0.4 -0.17,-0.14 -0.33,-0.29 -0.47,-0.44 -0.15,-0.15 -0.29,-0.31 -0.43,-0.48 -0.13,-0.17 -0.26,-0.35 -0.38,-0.53 -0.11,-0.17 -0.22,-0.36 -0.32,-0.56 -0.11,-0.2 -0.21,-0.4 -0.29,-0.6l-0.01 -0.03c-0.08,-0.2 -0.15,-0.41 -0.22,-0.61l0 -0.02c-0.06,-0.22 -0.12,-0.43 -0.16,-0.64l0 -0.03c-0.04,-0.21 -0.07,-0.43 -0.09,-0.66 -0.02,-0.23 -0.04,-0.46 -0.04,-0.68 0,-0.23 0.01,-0.46 0.04,-0.7 0.02,-0.23 0.05,-0.45 0.1,-0.68 0.04,-0.21 0.09,-0.43 0.16,-0.65 0.06,-0.21 0.14,-0.42 0.22,-0.63 0.09,-0.21 0.18,-0.41 0.29,-0.6 0.1,-0.19 0.21,-0.38 0.33,-0.56 0.12,-0.18 0.24,-0.35 0.38,-0.52 0.13,-0.16 0.27,-0.32 0.42,-0.48 0.15,-0.15 0.31,-0.29 0.47,-0.43 0.17,-0.14 0.34,-0.27 0.51,-0.39 0.17,-0.12 0.35,-0.23 0.54,-0.33 0.19,-0.11 0.38,-0.21 0.58,-0.29 0.2,-0.09 0.41,-0.17 0.62,-0.24 0.21,-0.07 0.42,-0.12 0.63,-0.17l0.02 0c0.2,-0.04 0.42,-0.07 0.64,-0.1 0.23,-0.02 0.46,-0.03 0.68,-0.03 0.68,0 1.34,0.1 1.97,0.31 0.61,0.2 1.2,0.5 1.76,0.89l0.2 0.11c0.13,0.06 0.22,0.18 0.27,0.31 0.04,0.13 0.03,0.27 -0.03,0.41l-1.02 2.16c-0.07,0.13 -0.18,0.23 -0.3,0.27 -0.13,0.05 -0.27,0.04 -0.4,-0.02l-0.21 -0.14 -0.45 -0.36c-0.08,-0.06 -0.16,-0.11 -0.23,-0.15 -0.08,-0.04 -0.16,-0.08 -0.24,-0.12 -0.07,-0.04 -0.16,-0.07 -0.25,-0.1 -0.09,-0.03 -0.18,-0.06 -0.26,-0.08 -0.09,-0.03 -0.18,-0.05 -0.27,-0.06 -0.09,-0.02 -0.18,-0.03 -0.27,-0.04 -0.09,0 -0.18,-0.01 -0.27,-0.01 -0.24,0 -0.47,0.03 -0.68,0.07l-0.01 0c-0.1,0.02 -0.2,0.05 -0.3,0.08 -0.11,0.04 -0.21,0.08 -0.31,0.12 -0.2,0.09 -0.38,0.2 -0.56,0.32 -0.17,0.13 -0.34,0.26 -0.48,0.42 -0.15,0.15 -0.28,0.32 -0.4,0.5l-0.02 0.02c-0.11,0.17 -0.21,0.36 -0.29,0.56 -0.05,0.11 -0.09,0.22 -0.12,0.31 -0.03,0.11 -0.06,0.22 -0.08,0.33 -0.02,0.1 -0.04,0.22 -0.05,0.33 -0.01,0.1 -0.01,0.22 -0.01,0.34 0,0.25 0.02,0.49 0.06,0.7l0.01 0.02c0.01,0.09 0.04,0.2 0.08,0.31 0.03,0.11 0.07,0.21 0.11,0.31 0.09,0.21 0.19,0.4 0.31,0.59 0.12,0.18 0.25,0.35 0.4,0.5 0.08,0.08 0.16,0.15 0.23,0.22 0.07,0.06 0.16,0.12 0.25,0.19l0.02 0.01c0.08,0.06 0.16,0.11 0.25,0.16 0.1,0.06 0.2,0.11 0.29,0.15 0.1,0.04 0.2,0.08 0.31,0.12 0.11,0.03 0.21,0.06 0.31,0.08l0.03 0.01c0.1,0.02 0.2,0.03 0.3,0.04 0.1,0.01 0.22,0.02 0.35,0.02 0.38,0 0.75,-0.07 1.09,-0.19 0.34,-0.13 0.66,-0.32 0.97,-0.58l0.25 -0.26c0.1,-0.1 0.24,-0.16 0.37,-0.16 0.13,0 0.27,0.06 0.37,0.16 0.02,0.02 0.04,0.05 0.06,0.08l0.04 0.07zm12.28 -8.93l-2.78 5.34 3.95 7.09c0.07,0.13 0.08,0.28 0.05,0.41 -0.03,0.14 -0.12,0.26 -0.24,0.33l-0.13 0.05c-0.05,0.02 -0.09,0.02 -0.13,0.02l-2.66 0c-0.1,0 -0.2,-0.03 -0.28,-0.08l-0.03 -0.03c-0.07,-0.05 -0.12,-0.11 -0.16,-0.19l-2.46 -4.34 -2.1 4.12 0 0.12c0,0.22 -0.18,0.4 -0.39,0.4l-2.31 0c-0.15,0 -0.28,-0.06 -0.37,-0.16 -0.1,-0.09 -0.16,-0.23 -0.16,-0.38l0 -19.03c0,-0.15 0.06,-0.28 0.16,-0.38 0.09,-0.1 0.22,-0.16 0.37,-0.16l2.31 0c0.15,0 0.28,0.06 0.37,0.16 0.1,0.1 0.16,0.23 0.16,0.38l0 11.75 3.24 -5.99c0.04,-0.06 0.1,-0.12 0.17,-0.16l0.03 -0.02c0.07,-0.03 0.15,-0.05 0.23,-0.05l2.71 0c0.14,0 0.27,0.06 0.37,0.15 0.09,0.1 0.15,0.24 0.15,0.39 0,0.04 -0.01,0.09 -0.02,0.14l0 0.01c-0.01,0.04 -0.03,0.08 -0.05,0.11zm6.27 4.51c0.3,0.03 0.6,0.09 0.88,0.16 0.28,0.08 0.55,0.18 0.8,0.29l0.01 0c0.25,0.12 0.49,0.25 0.71,0.41 0.22,0.15 0.43,0.33 0.62,0.53 0.19,0.19 0.37,0.41 0.51,0.63 0.15,0.23 0.28,0.47 0.37,0.71 0.1,0.25 0.17,0.51 0.22,0.78 0.05,0.28 0.07,0.55 0.07,0.84 0,0.14 0,0.28 -0.02,0.44 -0.01,0.14 -0.03,0.29 -0.06,0.43l-0.01 0.01c-0.02,0.15 -0.06,0.29 -0.1,0.42 -0.04,0.13 -0.09,0.27 -0.14,0.4 -0.06,0.13 -0.12,0.26 -0.18,0.39 -0.07,0.13 -0.14,0.25 -0.22,0.37l-0.01 0.02c-0.07,0.1 -0.15,0.21 -0.24,0.32 -0.09,0.11 -0.18,0.21 -0.27,0.3 -0.09,0.1 -0.2,0.19 -0.31,0.28 -0.11,0.09 -0.22,0.18 -0.33,0.25 -0.11,0.08 -0.23,0.15 -0.36,0.22 -0.12,0.07 -0.24,0.13 -0.37,0.19l-0.02 0c-0.12,0.06 -0.26,0.11 -0.39,0.15 -0.14,0.04 -0.28,0.08 -0.42,0.11 -0.13,0.02 -0.28,0.05 -0.43,0.06 -0.16,0.02 -0.31,0.02 -0.45,0.02l-0.48 0c-0.2,0 -0.41,-0.01 -0.61,-0.03 -0.2,-0.03 -0.41,-0.06 -0.6,-0.11 -0.2,-0.04 -0.39,-0.1 -0.59,-0.17 -0.18,-0.07 -0.37,-0.15 -0.56,-0.25 -0.19,-0.09 -0.37,-0.19 -0.54,-0.3 -0.17,-0.12 -0.33,-0.24 -0.47,-0.36 -0.15,-0.13 -0.29,-0.27 -0.42,-0.42 -0.12,-0.14 -0.23,-0.29 -0.34,-0.45l-0.1 -0.12c-0.08,-0.09 -0.11,-0.2 -0.12,-0.31l0 -0.05c0,-0.09 0.02,-0.18 0.06,-0.26l1.03 -1.82c0.07,-0.13 0.19,-0.22 0.32,-0.25 0.13,-0.04 0.27,-0.02 0.39,0.05l0.01 0.01c0.04,0.02 0.08,0.05 0.1,0.08l0.04 0.04c0.1,0.16 0.21,0.33 0.31,0.49 0.05,0.09 0.11,0.17 0.17,0.24 0.06,0.07 0.13,0.13 0.21,0.2l0.02 0.02c0.07,0.05 0.15,0.11 0.24,0.16l0.02 0.01c0.09,0.05 0.19,0.09 0.29,0.13 0.11,0.04 0.24,0.08 0.37,0.12 0.13,0.03 0.26,0.06 0.38,0.09 0.13,0.02 0.27,0.04 0.41,0.06 0.14,0.01 0.28,0.02 0.42,0.02l0.04 0c0.1,0 0.19,-0.01 0.28,-0.02 0.08,-0.02 0.16,-0.04 0.23,-0.07 0.07,-0.02 0.14,-0.06 0.2,-0.1 0.07,-0.05 0.13,-0.1 0.19,-0.16 0.06,-0.06 0.11,-0.12 0.15,-0.19 0.04,-0.06 0.08,-0.12 0.1,-0.19 0.03,-0.07 0.05,-0.14 0.07,-0.22 0.01,-0.08 0.02,-0.16 0.02,-0.25 0,-0.08 -0.01,-0.15 -0.02,-0.21 -0.01,-0.07 -0.02,-0.13 -0.04,-0.18 -0.02,-0.04 -0.05,-0.09 -0.08,-0.13 -0.03,-0.05 -0.06,-0.09 -0.1,-0.13 -0.05,-0.04 -0.1,-0.08 -0.16,-0.11 -0.06,-0.04 -0.14,-0.08 -0.23,-0.11 -0.1,-0.04 -0.21,-0.08 -0.33,-0.11l-0.01 0c-0.11,-0.03 -0.23,-0.05 -0.38,-0.07 -0.25,-0.02 -0.49,-0.04 -0.74,-0.09 -0.26,-0.04 -0.53,-0.1 -0.79,-0.19 -0.13,-0.04 -0.27,-0.08 -0.4,-0.14 -0.14,-0.05 -0.27,-0.11 -0.39,-0.17 -0.13,-0.06 -0.25,-0.13 -0.37,-0.2 -0.11,-0.07 -0.22,-0.15 -0.34,-0.23 -0.11,-0.09 -0.22,-0.18 -0.33,-0.27 -0.1,-0.1 -0.2,-0.2 -0.29,-0.3 -0.09,-0.1 -0.18,-0.21 -0.27,-0.32 -0.08,-0.11 -0.16,-0.23 -0.24,-0.35 -0.08,-0.14 -0.15,-0.28 -0.21,-0.41 -0.05,-0.14 -0.1,-0.29 -0.14,-0.45 -0.04,-0.15 -0.07,-0.31 -0.09,-0.47 -0.02,-0.16 -0.03,-0.32 -0.03,-0.49 0,-0.29 0.03,-0.57 0.08,-0.84l0 -0.02c0.05,-0.26 0.13,-0.52 0.23,-0.77 0.05,-0.13 0.11,-0.25 0.17,-0.37 0.06,-0.13 0.13,-0.24 0.2,-0.35 0.07,-0.11 0.14,-0.22 0.23,-0.33 0.08,-0.1 0.16,-0.2 0.25,-0.3 0.09,-0.09 0.19,-0.19 0.29,-0.27 0.09,-0.09 0.19,-0.17 0.3,-0.25 0.11,-0.07 0.21,-0.15 0.33,-0.21l0.02 -0.01c0.1,-0.06 0.21,-0.12 0.32,-0.17l0.02 -0.01c0.12,-0.05 0.24,-0.1 0.35,-0.14 0.12,-0.04 0.25,-0.08 0.38,-0.11 0.13,-0.02 0.26,-0.04 0.39,-0.06 0.14,-0.01 0.28,-0.02 0.4,-0.02l0.25 0c0.17,0 0.34,0.01 0.52,0.03 0.16,0.02 0.34,0.05 0.51,0.09 0.16,0.03 0.33,0.08 0.51,0.14 0.16,0.06 0.33,0.13 0.5,0.2 0.17,0.08 0.32,0.16 0.47,0.25 0.15,0.09 0.3,0.19 0.43,0.29 0.14,0.1 0.26,0.21 0.38,0.32 0.12,0.12 0.23,0.24 0.33,0.37l0.14 0.17c0.06,0.08 0.11,0.19 0.12,0.29 0.01,0.11 -0.01,0.22 -0.07,0.32l-1.09 2.02c-0.07,0.13 -0.19,0.22 -0.31,0.26l-0.01 0c-0.12,0.04 -0.27,0.02 -0.39,-0.05 -0.18,-0.12 -0.3,-0.31 -0.44,-0.47 -0.12,-0.15 -0.25,-0.29 -0.39,-0.4l-0.02 -0.02c-0.12,-0.1 -0.25,-0.19 -0.37,-0.26 -0.13,-0.07 -0.27,-0.12 -0.4,-0.16 -0.14,-0.04 -0.28,-0.06 -0.42,-0.06 -0.08,0 -0.15,0.01 -0.22,0.02 -0.07,0.01 -0.14,0.02 -0.2,0.04 -0.07,0.03 -0.13,0.05 -0.19,0.08l-0.02 0.01c-0.05,0.03 -0.1,0.06 -0.15,0.1 -0.05,0.04 -0.08,0.07 -0.11,0.11 -0.03,0.03 -0.06,0.08 -0.08,0.12l-0.01 0.02c-0.02,0.05 -0.03,0.1 -0.04,0.16 -0.01,0.07 -0.02,0.15 -0.02,0.24 0.02,0.27 0.03,0.31 0.23,0.45 0.15,0.09 0.25,0.13 0.41,0.18 0.16,0.04 0.26,0.07 0.42,0.1l0.29 0.03 0.36 0.02z"/>
    <path class="fil1" d="M4.33 10.23c0.66,0 1.27,0.27 1.7,0.7l0.06 0.06c0.4,0.43 0.65,1.01 0.65,1.65l0 21.64c0,0.67 -0.27,1.27 -0.71,1.71 -0.43,0.44 -1.04,0.71 -1.7,0.71 -0.67,0 -1.27,-0.27 -1.71,-0.71 -0.44,-0.44 -0.71,-1.04 -0.71,-1.71l0 -21.64c0,-0.66 0.27,-1.26 0.71,-1.7l0 -0.01c0.44,-0.43 1.05,-0.7 1.71,-0.7zm32.17 0.88c0.43,-0.44 1.04,-0.72 1.7,-0.72 0.66,0 1.27,0.27 1.71,0.71l0 0.01c0.44,0.44 0.71,1.04 0.71,1.7l0 21.64c0,0.67 -0.27,1.27 -0.71,1.71l-0.06 0.05c-0.43,0.41 -1.01,0.66 -1.65,0.66 -0.66,0 -1.27,-0.27 -1.71,-0.71 -0.43,-0.44 -0.7,-1.04 -0.7,-1.71l0 -21.64c0,-0.66 0.27,-1.27 0.71,-1.7zm-16.96 21.19l-8.3 -8.29c-0.3,-0.3 -0.3,-0.79 -0.01,-1.09l9.49 -9.49c0.3,-0.3 0.78,-0.3 1.08,0l9.5 9.49c0.3,0.3 0.3,0.79 0,1.09l-9.5 9.48c-0.3,0.3 -0.78,0.3 -1.08,0l-1.18 -1.19zm-2.53 -8.84l4.25 4.26 4.26 -4.26 -4.26 -4.25 -4.25 4.25z"/>
   </g>
  </g>
  <polygon class="fil2" points="0,0 163.81,0 163.81,47.09 0,47.09 "/>
 </g>
</svg>
