<?xml version="1.0" encoding="UTF-8"?>
<!DOCTYPE svg PUBLIC "-//W3C//DTD SVG 1.1//EN" "http://www.w3.org/Graphics/SVG/1.1/DTD/svg11.dtd">
<!-- Creator: CorelDRAW 2021 (64-Bit) -->
<svg xmlns="http://www.w3.org/2000/svg" xml:space="preserve" width="786px" height="226px" version="1.1" style="shape-rendering:geometricPrecision; text-rendering:geometricPrecision; image-rendering:optimizeQuality; fill-rule:evenodd; clip-rule:evenodd"
viewBox="0 0 1355.17 389.61"
 xmlns:xlink="http://www.w3.org/1999/xlink"
 xmlns:xodm="http://www.corel.com/coreldraw/odm/2003">
 <defs>
  <style type="text/css">
   <![CDATA[
    .fil2 {fill:none}
    .fil1 {fill:#ED2F59}
    .fil0 {fill:#ED2F59;fill-rule:nonzero}
   ]]>
  </style>
   <clipPath id="id0">
    <path d="M0 0l1355.17 0 0 389.61 -1355.17 0 0 -389.61z"/>
   </clipPath>
 </defs>
 <g id="Layer_x0020_1">
  <metadata id="CorelCorpID_0Corel-Layer"/>
  <g>
  </g>
  <g style="clip-path:url(#id0)">
   <g>
    <g id="_2530560793888">
     <path class="fil0" d="M85.4 269.46c-4.84,-7.09 -21.61,-33.53 -50.95,-78.68l0.32 47.73 0 14.51c0,9.99 3.23,15.8 10,16.76l-31.6 0 0 -0.32c7.09,-0.97 10.64,-6.45 10.64,-16.44l0 -16.77 0.65 -69.98c0,-4.19 0,-7.73 0,-10.64 0,-3.22 0,-5.48 -0.32,-7.41l0.32 0 66.1 95.12c4.51,-5.8 11.93,-16.77 23.22,-32.25 11.28,-15.8 26.12,-36.43 44.82,-61.91l0 103.51c0,10 3.55,15.48 10.32,16.45l0 0.32 -16.45 -0.32 -3.22 0c-2.26,0 -5.16,0 -8.06,0 -2.91,0 -6.13,0.32 -9.68,0.32 7.1,-1.29 10.64,-6.77 10.64,-16.77l-0.96 -64.81 -55.79 81.58 0 0zm375.66 -59.98c-6.77,1.29 -10.32,6.77 -10.32,16.77l0 24.83c0,3.87 -4.83,8.06 -14.19,12.25 -11.28,4.2 -23.53,6.45 -36.43,6.45 -19.35,0 -35.79,-5.8 -48.37,-17.09 -13.22,-11.93 -19.67,-27.08 -19.67,-45.46l0 -1.29c0,-18.06 6.77,-32.89 20.31,-45.15 12.9,-12.25 28.38,-18.38 47.08,-18.38 13.22,0 24.19,1.62 33.22,4.84 5.48,2.26 9.02,4.19 10.64,5.81l0.97 0.96c0.32,0.32 0.32,0.65 0.32,0.65 0,0.32 0.32,0.64 0.64,0.64 0.65,4.84 0.97,10 0.97,15.48 0,5.81 -0.32,9.03 -0.97,9.35l-0.64 0c-0.32,-3.22 -2.58,-7.41 -6.45,-12.25 -3.87,-5.16 -10.32,-9.35 -19.35,-13.55 -5.48,-2.25 -11.93,-3.54 -19.99,-3.54 -13.87,0 -24.83,4.51 -33.54,13.86 -9.35,9.68 -13.86,23.22 -13.86,40.63l0 0.97c0,16.12 4.84,29.67 14.51,39.98 9.67,10 21.92,14.84 37.4,14.84 7.74,0 14.84,-1.29 21.61,-3.87 6.45,-2.58 9.67,-5.16 9.67,-8.06l-0.97 -22.9c0,-9.99 -3.22,-15.47 -10.31,-16.77l0 -0.32 37.72 0 0 0.32 0 0zm61.27 -62.88c-3.23,0.65 -6.13,1.62 -8.39,3.55 -2.25,1.61 -4.19,3.87 -5.8,6.77l0 95.77c0,3.55 0.64,6.45 2.58,8.71 2.9,3.87 6.45,6.45 11.29,7.74l0.32 0.32c-0.32,0.64 -1.94,0.64 -4.84,0.64 -16.12,-0.64 -29.02,-0.64 -37.73,0 -1.93,0 -3.22,-0.32 -4.19,-0.96 4.51,-0.32 8.38,-1.61 10.96,-4.52 2.91,-2.58 4.84,-5.8 5.16,-9.67l0 -92.22c0,-2.26 -0.64,-4.52 -1.61,-6.77 -1.29,-2.26 -2.58,-4.52 -4.19,-6.45 -1.61,-1.94 -3.55,-2.9 -5.48,-2.9 0.64,0 7.74,-0.33 21.28,-0.33 13.54,0 20.31,0.33 20.63,0.33l0.01 -0.01zm128.98 86.42c0.64,0.33 0.64,3.55 0.64,9.35 0,5.49 -0.32,10.65 -0.96,15.16 0,0.32 -0.32,0.32 -0.32,0.64 0,0.33 0,0.65 -0.33,0.65l-0.96 0.97c-1.61,1.93 -5.16,3.87 -10.65,5.8 -9.35,2.9 -20.31,4.52 -32.88,4.52 -19.03,0 -34.83,-5.81 -47.73,-17.74 -12.9,-12.25 -19.34,-27.41 -19.99,-45.79 0.32,-18.06 7.1,-33.21 19.99,-45.46 12.9,-12.26 28.7,-18.38 47.73,-18.38 12.89,0 23.86,1.61 32.88,5.16 5.49,1.93 9.03,3.87 10.65,5.48l0.96 0.97c0.33,0.32 0.33,0.64 0.33,0.64 0,0.32 0.32,0.64 0.32,0.64 0.64,4.84 0.96,10 0.96,15.81 0,5.48 0,8.38 -0.64,9.02l-0.65 0c-0.32,-2.9 -2.58,-7.09 -6.44,-12.25 -3.87,-4.84 -10.32,-9.35 -19.35,-13.54 -5.49,-2.26 -11.93,-3.55 -19.67,-3.55 -13.87,0 -24.83,4.51 -33.54,13.87 -9.35,9.67 -14.19,23.21 -14.19,40.63l0 1.93c0,17.74 4.84,31.28 14.19,40.63 8.71,9.03 19.67,13.87 33.54,13.87 8.38,0 14.83,-1.29 19.67,-3.55 9.02,-3.87 15.47,-8.38 19.35,-13.54 3.86,-4.84 6.12,-9.03 6.44,-11.93l0.65 0 0 -0.01z"/>
     <path class="fil0" d="M808.67 234.31c0,11.93 -4.52,20.96 -13.87,26.77 -6.45,4.19 -14.19,6.45 -22.57,7.41l-39.99 0 -16.76 0.32 0 -0.32c7.09,-0.96 10.64,-6.77 10.64,-16.44l0 -87.39c0,-10 -3.55,-15.48 -10.64,-16.77l47.72 -0.96c10,0.32 18.38,2.58 24.83,6.77 7.41,4.84 11.28,11.93 11.28,21.28 0,12.57 -7.74,21.6 -23.21,26.44 -1.62,0.65 -1.62,0.97 0.32,1.29 21.6,3.55 32.24,13.87 32.24,31.6l0.01 0zm-19.03 1.94c0,-10.32 -3.22,-18.06 -10.32,-23.22 -6.12,-4.51 -13.86,-6.77 -23.21,-6.77 -5.49,0 -10,0.32 -13.22,0.97l0 46.43c0,5.8 6.12,8.71 18.05,8.71 19.35,0 28.7,-8.71 28.7,-26.12zm-9.35 -59.66c0,-8.06 -1.93,-13.86 -6.13,-17.41 -4.51,-3.87 -10.96,-5.8 -19.67,-5.8 -7.74,0 -11.6,0.96 -11.6,3.22l0 42.24 7.74 0c10.31,0 17.73,-1.61 22.57,-5.16 4.84,-3.22 7.09,-9.03 7.09,-17.09l0 0zm77.07 71.59c0,5.8 3.22,9.35 9.99,10.64 0.97,0.32 6.78,0.32 17.09,0.32 4.2,0 8.39,-0.32 11.93,-0.97 8.07,-2.25 13.55,-4.51 17.09,-7.09 3.55,-2.58 5.81,-5.48 7.1,-8.71l-3.87 24.51 -0.32 0.97 -5.16 0c-9.68,-0.65 -22.25,-0.97 -37.08,-0.97 -5.49,0 -11.94,0 -19.03,0 -7.09,0 -15.48,0 -24.83,0.32 7.1,-0.97 10.64,-6.77 10.64,-17.09l0 -87.06 -0.32 0c0,-10.32 -3.54,-15.8 -10.64,-17.09l0 -0.32 38.05 0 0 0.32c-3.55,0.65 -6.13,2.58 -7.74,5.81 -1.94,3.22 -2.9,8.7 -2.9,16.12l0 80.29 0 0zm160.9 21.6c-0.64,0.32 -1.93,0.32 -3.86,0.32 -9.68,-0.64 -22.25,-0.96 -37.09,-0.96 -5.48,0 -11.93,0 -19.02,0 -7.1,0 -15.48,0.32 -24.83,0.32 7.09,-0.97 10.64,-6.77 10.64,-16.77l0 -87.06c0,-10 -3.55,-15.8 -10.64,-16.77l0 -0.32 34.5 0c5.16,0 9.67,-0.32 13.87,-0.32 4.51,0 8.38,-0.32 12.57,-0.32l1.29 0c2.9,0 5.48,-0.33 8.06,-0.33 2.58,0 5.16,-0.32 7.74,-0.64 3.87,0 5.81,0.32 5.81,1.29l0 19.02c-0.33,-3.54 -2.58,-6.12 -6.77,-7.41 -4.2,-1.61 -11.94,-2.9 -23.87,-3.87 -2.58,0 -5.8,-0.32 -9.35,-0.32 -3.87,0 -8.06,0 -12.57,0 -1.94,0 -3.23,0.32 -3.87,0.96 -0.32,0.33 -0.32,1.29 -0.32,3.23l0 38.69c0,1.61 0.64,2.26 2.58,2.26 1.61,0 5.16,0 10.96,0 6.13,0 14.19,0 24.51,0.32 5.16,0 9.03,-1.29 11.28,-3.55 2.26,-2.25 3.55,-5.15 4.19,-8.06l0.33 0c-0.33,4.84 -0.33,14.83 0,30.31 -1.29,-7.09 -7.1,-10.64 -17.09,-10.64 -3.87,0 -9.03,-0.32 -14.84,-0.32 -5.8,0 -12.57,-0.32 -20.31,-0.32 -1.29,0 -1.61,0.65 -1.61,1.29l0 40.63c0,5.8 3.22,9.35 9.99,10.64 0.97,0.32 6.77,0.32 17.09,0.32 4.84,0 8.71,-0.32 11.93,-1.29 7.74,-1.93 13.55,-4.19 17.09,-6.77 3.55,-2.9 5.81,-5.8 7.1,-8.7l-3.87 24.18 -0.32 1.29 -1.29 -0.32 -0.01 -0.01zm161.23 -124.14c-7.09,1.29 -10.32,7.09 -10.32,17.09l0.32 67.39c0,7.09 0,13.54 0,19.02 0.32,5.49 0.32,10.65 0.65,15.16 0,2.26 -0.65,3.55 -1.29,4.51l-2.26 0c-5.48,-5.8 -16.45,-16.12 -32.57,-31.27 -15.8,-15.16 -37.08,-35.15 -63.52,-59.98l-0.32 58.04 0 14.19c0,10.32 3.54,16.12 10.32,17.09l0 0.32 -31.61 0 0 -0.32c7.1,-0.97 10.65,-6.77 10.65,-17.09l0 -16.45 0.64 -69.97c0,-4.19 0,-7.74 0,-10.96 0,-2.91 0,-5.48 -0.32,-7.42l0.32 0 95.13 87.06c1.29,0.97 1.93,1.61 2.58,1.61 0.32,0 0.64,-0.96 0.64,-2.25l0 -68.68c0,-10 -3.55,-15.8 -10.64,-17.09l31.6 0 0 0zm24.18 123.82c7.1,-0.97 10.65,-6.77 10.65,-16.77l0.32 -87.38 0 -0.32c0,-10 -3.55,-15.48 -10.64,-16.77 21.6,-0.97 39.66,-1.29 53.85,-1.29 21.28,0 38.69,5.48 51.59,15.8 13.22,10.64 19.99,25.15 19.99,43.53 0,21.93 -7.09,38.37 -21.28,49.34 -13.22,10.32 -30.31,14.83 -51.27,14.18 -2.26,0 -8.06,0 -17.09,0 -8.7,0 -20.96,0 -36.11,-0.32l-0.01 0zm28.06 -22.57c0,6.13 1.61,10 4.84,11.93 3.22,1.93 9.35,2.9 19.02,2.9 36.44,0 54.5,-17.73 54.5,-53.2 0,-35.8 -18.38,-53.85 -55.47,-53.85l-12.9 0c-6.77,0.64 -9.99,2.58 -9.99,6.12l0 86.1 0 0z"/>
     <polygon class="fil1" points="289.84,266.56 249.85,247.86 209.87,266.56 215.03,222.7 185.04,190.14 228.25,181.75 249.85,143.06 271.46,181.75 314.66,190.14 284.68,222.7 "/>
    </g>
   </g>
  </g>
  <polygon class="fil2" points="0,0 1355.17,0 1355.17,389.61 0,389.61 "/>
 </g>
</svg>
